<?xml version="1.0" standalone="no"?>
<!DOCTYPE svg PUBLIC "-//W3C//DTD SVG 1.1//EN" "http://www.w3.org/Graphics/SVG/1.1/DTD/svg11.dtd" >
<svg xmlns="http://www.w3.org/2000/svg" xmlns:xlink="http://www.w3.org/1999/xlink" version="1.1">
<metadata>
Created by FontForge 20201107 at Sat Aug 25 01:26:47 2018
 By 
Copyright 2018 The Manrope Project Authors (https://github.com/sharanda/manrope)
</metadata>
<defs>
<font id="Manrope-Regular" horiz-adv-x="594" >
  <font-face 
    font-family="Manrope"
    font-weight="400"
    font-stretch="semi-condensed"
    units-per-em="960"
    panose-1="0 0 5 6 0 0 0 0 0 0"
    ascent="768"
    descent="-192"
    x-height="540"
    cap-height="720"
    bbox="-25 -255 1079 956"
    underline-thickness="50"
    underline-position="-200"
    unicode-range="U+0020-FB02"
  />
<missing-glyph horiz-adv-x="740" 
d="M640 720v-13h-540v13h540zM640 665v-16h-540v16h540zM640 610v-18h-540v18h540zM640 554v-21h-540v21h540zM640 498v-22h-540v22h540zM640 443v-24h-540v24h540zM640 388v-28h-540v28h540zM640 333v-30h-540v30h540zM640 278v-33h-540v33h540zM640 222v-35h-540v35h540z
M640 167v-37h-540v37h540zM640 112v-40h-540v40h540zM640 0h-540v57h540v-57z" />
    <glyph glyph-name="fl" unicode="fl" horiz-adv-x="609" 
d="M466 735h73v-735h-73v477h-260v-477h-73v477h-123v63h123v31q0 82 49 125q59 49 178 36v-65q-49 7 -84 -1q-70 -14 -70 -91v-35h260v195z" />
    <glyph glyph-name="f_f" unicode="ff" horiz-adv-x="710" 
d="M616 666q-70 -14 -70 -91v-35h154v-63h-154v-477h-73v477h-267v-477h-73v477h-123v63h123v31q0 82 49 125q59 49 178 36v-65q-49 7 -84 -1q-70 -14 -70 -91v-35h267v31q0 82 49 125q59 49 178 36v-65q-49 7 -84 -1z" />
    <glyph glyph-name="f_f_l" unicode="ffl" horiz-adv-x="914" 
d="M771 735h73v-735h-73v477h-260v-477h-73v477h-232v-477h-73v477h-123v63h123v31q0 82 49 125q59 49 178 36v-65q-49 7 -84 -1q-70 -14 -70 -91v-35h232v31q0 81 49 125q59 49 178 36v-65q-49 7 -83 -1q-38 -7 -54.5 -29.5t-16.5 -61.5v-35h260v195z" />
    <glyph glyph-name="t_t" unicode="tt" horiz-adv-x="741" 
d="M539 477v-278q0 -74 12 -95q16 -37 64 -42t90 4v-66q-61 -15 -116 -4q-77 13 -104 71q-19 38 -19 129v281h-267v-278v-18v-17t0.5 -13.5t1 -14t1.5 -11t3 -11.5t5 -10q18 -37 65 -42t89 4v-66q-60 -15 -116 -4q-76 13 -104 71q-19 40 -19 129v281h-115v63h115v150h74
v-150h267v150h73v-150h166v-63h-166z" />
    <glyph glyph-name="hyphen_greater.liga" unicode="&#x2d;&#x3e;" horiz-adv-x="1001" 
d="M626 508l235 -234l-235 -235l-39 39l163 164h-610v63h611l-164 164z" />
    <glyph glyph-name="parenleft_greater_parenright.liga" unicode="&#x28;&#x3e;&#x29;" horiz-adv-x="1077" 
d="M538 -135q135 0 249 66.5t180 180.5t66 248t-66 248t-180 180.5t-249 66.5q-134 0 -248 -66.5t-180.5 -180.5t-66.5 -248t66.5 -248t180.5 -180.5t248 -66.5zM540 -63q-177 0 -301 123.5t-124 300.5q0 176 124 299t301 123q175 0 298.5 -123.5t123.5 -298.5
q0 -177 -123.5 -300.5t-298.5 -123.5zM474 520l192 -160l-192 -160v320z" />
    <glyph glyph-name="parenleft_c_parenright.liga" unicode="&#x28;c&#x29;" horiz-adv-x="830" 
d="M415 -102q154 0 263 108.5t109 262.5t-109 263t-263 109t-263 -109t-109 -263t109 -262.5t263 -108.5zM415 -31q-125 0 -213 88t-88 213q0 124 88 211.5t213 87.5q124 0 211.5 -87.5t87.5 -211.5q0 -125 -87.5 -213t-211.5 -88zM584 382l-58 -25q-2 7 -13 21
q-32 45 -96 45q-59 0 -94 -45q-31 -38 -31 -107q0 -64 31 -106q14 -21 40.5 -33t53.5 -12q59 0 96 45q8 10 12 20l59 -25q-8 -15 -22 -33q-51 -65 -145 -65q-42 -1 -81 16.5t-64 48.5q-45 57 -45 144q2 92 45 146q54 64 145 64q94 0 145 -64q15 -19 22 -35z" />
    <glyph glyph-name="space_less_three_space.liga" unicode="&#x20;&#x3c;&#x33;&#x20;" horiz-adv-x="1209" 
d="M724 555q74 0 130 -60q53 -55 55 -136q2 -79 -55 -139l-204 -215q-18 -20 -45 -20q-29 0 -47 20l-204 215q-52 57 -54 137q-2 78 54 138q57 60 130 60q60 0 121 -45q57 45 119 45zM724 492q-61 0 -119 -65q-64 65 -121 65q-47 0 -83 -40q-37 -38 -37 -93q-2 -56 37 -96
l204 -215l204 215q36 39 36 96q0 54 -36 93q-39 40 -85 40z" />
    <glyph glyph-name="less_hyphen.liga" unicode="&#x3c;&#x2d;" horiz-adv-x="1001" 
d="M861 305v-63h-610l163 -164l-39 -39l-235 235l235 234l39 -39l-164 -164h611z" />
    <glyph glyph-name=".notdef" horiz-adv-x="740" 
d="M640 720v-13h-540v13h540zM640 665v-16h-540v16h540zM640 610v-18h-540v18h540zM640 554v-21h-540v21h540zM640 498v-22h-540v22h540zM640 443v-24h-540v24h540zM640 388v-28h-540v28h540zM640 333v-30h-540v30h540zM640 278v-33h-540v33h540zM640 222v-35h-540v35h540z
M640 167v-37h-540v37h540zM640 112v-40h-540v40h540zM640 0h-540v57h540v-57z" />
    <glyph glyph-name=".null" horiz-adv-x="200" 
 />
    <glyph glyph-name="nonmarkingreturn" horiz-adv-x="941" 
 />
    <glyph glyph-name="space" unicode=" " horiz-adv-x="227" 
 />
    <glyph glyph-name="exclam" unicode="!" horiz-adv-x="313" 
d="M120 720h73v-540h-73v540zM120 83h73v-83h-73v83z" />
    <glyph glyph-name="quotedbl" unicode="&#x22;" horiz-adv-x="392" 
d="M60 720h73v-180h-73v180zM219 720h73v-180h-73v180z" />
    <glyph glyph-name="numbersign" unicode="#" horiz-adv-x="920" 
d="M842 448h-204l-43 -160h203l-18 -71h-204l-58 -217h-72l57 217h-167l-58 -217h-72l57 217h-203l19 71h204l42 160h-203l19 70h203l54 202h73l-54 -202h167l54 202h73l-54 -202h203zM522 288l43 160h-167l-43 -160h167z" />
    <glyph glyph-name="dollar" unicode="$" horiz-adv-x="574" 
d="M454 310q60 -54 60 -131q0 -94 -74 -148q-48 -36 -117 -44v-86h-73v87q-87 14 -140 81q-50 63 -50 141h74q0 -57 37 -99q45 -55 115 -55q73 0 115 38q37 32 37 87q0 48 -43 81q-14 12 -34.5 23.5t-33.5 17t-42 18t-37 15.5q-91 38 -132 86q-43 48 -43 117q0 85 62 142
q47 43 115 52v87h73v-88q70 -12 117 -64q59 -60 60 -144h-76q0 55 -40 97q-41 43 -98 43q-59 0 -99 -37q-38 -35 -38 -88q0 -44 28 -73q27 -34 115 -69q118 -47 162 -87z" />
    <glyph glyph-name="percent" unicode="%" horiz-adv-x="861" 
d="M240 375q-74 0 -127 52.5t-53 127.5q0 73 54 126.5t126 53.5q74 0 127 -52.5t53 -127.5t-53 -127.5t-127 -52.5zM140 19l-50 50l631 630l50 -49zM240 436q49 0 84 35t35 84t-35 84t-84 35t-84 -35t-35 -84t35 -84t84 -35zM621 -15q-74 0 -127 52.5t-53 127.5
q0 73 54 126.5t126 53.5q74 0 127 -52.5t53 -127.5t-53 -127.5t-127 -52.5zM621 46q49 0 84 35t35 84t-35 84t-84 35q-48 0 -83 -35t-35 -84t35 -84t83 -35z" />
    <glyph glyph-name="ampersand" unicode="&#x26;" horiz-adv-x="651" 
d="M557 300v-101q0 -40 -10 -66l92 -86l-48 -52l-79 75q-34 -42 -93 -64q-46 -21 -117 -21q-129 0 -197 72q-52 55 -55 140q-2 84 47 142q22 28 70 51q-41 41 -58.5 74.5t-17.5 78.5q0 57 28 102.5t78 67.5q45 21 105 21q92 0 147 -46q36 -30 54 -75l-71 -21q-10 27 -34 45
q-35 27 -94 27q-42 0 -78 -17q-60 -30 -60 -103q0 -47 40 -93q10 -11 52 -49l221 -206q3 18 3 34l-1 142h160v-72h-84zM458 122l-234 214q-45 -14 -70 -44q-30 -37 -28 -92q0 -57 32 -92q45 -52 144 -52q62 0 96 18q40 22 60 48z" />
    <glyph glyph-name="quotesingle" unicode="'" horiz-adv-x="213" 
d="M60 720h73v-180h-73v180z" />
    <glyph glyph-name="parenleft" unicode="(" horiz-adv-x="392" 
d="M302 805l-61 34q-62 -106 -94 -248q-29 -128 -27 -260q2 -146 27 -261q31 -140 94 -249l61 35q-106 191 -106 475q0 283 106 474z" />
    <glyph glyph-name="parenright" unicode=")" horiz-adv-x="393" 
d="M90 805q106 -189 106 -474q2 -281 -106 -475l61 -35q61 104 95 249q24 116 26 261q1 130 -26 260q-31 139 -95 248z" />
    <glyph glyph-name="asterisk" unicode="*" horiz-adv-x="437" 
d="M377 569l-119 -38l73 -101l-55 -40l-73 101l-73 -101l-55 40l73 101l-118 38l21 65l118 -39v125h68v-125l119 39z" />
    <glyph glyph-name="plus" unicode="+" horiz-adv-x="600" 
d="M540 313v-63h-208v-209h-63v209h-209v63h209v208h63v-208h208z" />
    <glyph glyph-name="comma" unicode="," horiz-adv-x="265" 
d="M145 -20q0 -45 -22 -68t-63 -16l5 36q46 -4 40 68h-45v105h85v-125z" />
    <glyph glyph-name="hyphen" unicode="-" horiz-adv-x="420" 
d="M60 313h300v-63h-300v63z" />
    <glyph glyph-name="period" unicode="." horiz-adv-x="253" 
d="M84 85h85v-85h-85v85z" />
    <glyph glyph-name="slash" unicode="/" horiz-adv-x="388" 
d="M252 720h75l-192 -720h-75z" />
    <glyph glyph-name="zero" unicode="0" horiz-adv-x="610" 
d="M305 -15q107 0 175 76q60 67 60 166v267q0 102 -62 168q-68 75 -173 73q-103 2 -173 -73q-62 -69 -62 -168v-267q0 -97 59 -165q68 -77 176 -77zM305 664q41 1 76.5 -18.5t57.5 -53.5q27 -43 27 -98v-267q0 -60 -27 -98q-22 -34 -57.5 -53.5t-76.5 -19.5t-76.5 19.5
t-57.5 52.5q-27 39 -27 99v267q0 57 27 99q22 33 58 52.5t76 18.5z" />
    <glyph glyph-name="one" unicode="1" horiz-adv-x="390" 
d="M196 720h74v-720h-74v638l-136 -82v83z" />
    <glyph glyph-name="two" unicode="2" horiz-adv-x="571" 
d="M56 506q-1 51 21 97.5t60 78.5q62 53 153 53q96 0 158 -62q73 -68 73 -168q0 -65 -23.5 -110.5t-78.5 -93.5l-255 -230h348v-71h-462l1 71l326 291q69 60 69 144q0 71 -53 118q-43 40 -105 40q-57 0 -101 -36q-57 -49 -57 -122h-74z" />
    <glyph glyph-name="three" unicode="3" horiz-adv-x="553" 
d="M429 388q66 -63 64 -168q-2 -123 -84 -186q-60 -48 -146 -48q-84 -2 -146 47q-56 41 -77 110l70 21q16 -49 53 -77q43 -31 100 -31q58 2 98 33q56 44 56 131q0 80 -50 126q-43 37 -106 37q-40 0 -80 -20l-37 58l240 228h-315v71h416v-73l-212 -201q93 2 156 -58z" />
    <glyph glyph-name="four" unicode="4" horiz-adv-x="588" 
d="M459 210h79v-71h-79v-139h-74v139h-335v71l241 510h78l-241 -510h257v210h74v-210z" />
    <glyph glyph-name="five" unicode="5" horiz-adv-x="578" 
d="M93 720h379v-70h-313l-14 -241q61 55 146 55q91 0 159 -60q78 -70 78 -178q-2 -100 -72 -170t-172 -70q-96 -2 -165 64q-50 46 -69 114l70 19q14 -51 51 -82q49 -44 113 -44q71 0 120 49q50 50 50 120q0 76 -56 126q-51 44 -114 44q-62 0 -107 -39q-24 -21 -39 -46
l-67 39z" />
    <glyph glyph-name="six" unicode="6" horiz-adv-x="621" 
d="M519 632l-56 -46q-24 36 -62 57t-82 21q-84 0 -133 -65q-42 -50 -42 -119v-102q69 86 177 86q94 0 165 -66q73 -71 71 -172q0 -97 -69 -168q-70 -74 -174 -72q-105 -2 -177 75q-67 70 -67 180v239q0 111 70 181q68 72 179 74q61 0 113.5 -27.5t86.5 -75.5zM340 67
q71 11 109 70q34 53 23 115q-10 67 -66 106q-54 37 -119 26q-69 -11 -107 -68q-36 -53 -25 -117q10 -61 61 -100q56 -43 124 -32z" />
    <glyph glyph-name="seven" unicode="7" horiz-adv-x="502" 
d="M112 0l264 649h-336v71h412v-71l-264 -649h-76z" />
    <glyph glyph-name="eight" unicode="8" horiz-adv-x="580" 
d="M77 541q2 96 67 148q55 46 146 46t146 -46q66 -50 66 -148q0 -74 -46 -121q-18 -21 -38 -34q35 -23 54 -49q50 -54 48 -135q0 -103 -68 -162q-62 -55 -162 -55t-162 55q-66 59 -68 162q-2 79 47 135q21 26 55 49q-21 12 -39 34q-46 49 -46 121zM155 541q-2 -59 37 -90
q35 -31 98 -31t98 31q36 30 36 90q2 58 -37 91q-34 31 -97 31q-63 -2 -98 -31q-35 -31 -37 -91zM401 95q41 37 41 107t-41 108q-40 39 -111 39q-70 0 -112 -39q-41 -38 -41 -108t41 -107q42 -39 112 -39q71 0 111 39z" />
    <glyph glyph-name="nine" unicode="9" horiz-adv-x="621" 
d="M102 88l56 46q24 -36 62 -57t82 -21q84 0 133 65q42 50 42 119v102q-69 -86 -177 -86q-94 0 -165 66q-73 71 -71 172q0 97 69 168q70 74 174 72q105 2 177 -75q67 -70 67 -180v-239q0 -111 -70 -181q-68 -72 -179 -74q-61 0 -113.5 27.5t-86.5 75.5zM281 653
q-71 -11 -109 -70q-34 -53 -23 -115q10 -67 66 -106q54 -37 119 -26q69 11 107 68q36 53 25 117q-10 61 -61 100q-56 43 -124 32z" />
    <glyph glyph-name="colon" unicode=":" horiz-adv-x="296" 
d="M107 460h85v-85h-85v85zM107 165h85v-85h-85v85z" />
    <glyph glyph-name="semicolon" unicode=";" horiz-adv-x="245" 
d="M82 540h85v-85h-85v85zM167 -20q0 -45 -22 -68t-63 -16l4 36q27 -2 35 16t6 52h-45v105h85v-125z" />
    <glyph glyph-name="less" unicode="&#x3c;" horiz-adv-x="614" 
d="M375 35l-235 235l235 235l39 -40l-195 -195l195 -195z" />
    <glyph glyph-name="equal" unicode="=" horiz-adv-x="750" 
d="M120 395v-63h510v63h-510zM120 208v-63h510v63h-510z" />
    <glyph glyph-name="greater" unicode="&#x3e;" horiz-adv-x="615" 
d="M240 35l-40 40l195 195l-195 195l40 40l234 -235z" />
    <glyph glyph-name="question" unicode="?" horiz-adv-x="524" 
d="M474 542q0 -81 -59 -142q-11 -12 -54.5 -46.5t-56.5 -57.5q-3 -6 -5.5 -12t-4 -10.5t-2.5 -11.5l-1.5 -10.5t-1 -13t-0.5 -12.5v-15v-15h-78q0 85 24 129q17 33 66.5 71.5t61.5 51.5q33 37 33 94q0 49 -26 80q-35 42 -109 42q-69 0 -103 -36q-32 -29 -32 -86h-76
q5 91 62 141q56 52 148 52q110 0 167 -64q47 -51 47 -129zM211 0v98h78v-98h-78z" />
    <glyph glyph-name="at" unicode="@" horiz-adv-x="913" 
d="M833 269q-2 -111 -55 -163q-36 -36 -92 -36q-57 0 -98 38q-23 22 -31 43q-42 -37 -105 -37q-67 0 -108 40q-42 40 -46 115q0 71 46 116q43 40 109 40q62 0 100 -34v20h53v-175q0 -56 19 -76q25 -27 60 -27q33 0 51 23q31 36 29 113q-2 120 -56 198q-40 56 -108 84.5
t-146 28.5q-129 0 -213 -72q-97 -80 -95 -242q2 -148 87 -228q83 -80 226 -80q94 0 165 42l26 -58q-83 -47 -193 -47q-170 0 -272 99q-103 96 -106 271q-2 86 28 163.5t90 128.5q98 88 254 88q97 0 178.5 -35.5t132.5 -104.5q68 -94 70 -236zM543 270q0 41 -19 64
q-24 29 -68 29q-42 0 -68 -24q-24 -24 -24 -69t24 -68q25 -24 67 -24q46 0 69 29q19 22 19 63z" />
    <glyph glyph-name="A" unicode="A" horiz-adv-x="634" 
d="M537 0l-49 142h-342l-49 -142h-77l248 720h98l248 -720h-77zM170 211h294l-148 426z" />
    <glyph glyph-name="B" unicode="B" horiz-adv-x="613" 
d="M539 326q44 -55 41 -126q-3 -72 -46 -122t-107 -68q-33 -10 -101 -10h-256v720h243q69 0 91 -7q59 -16 97 -63q39 -43 44 -112q4 -61 -38 -115q-15 -21 -34 -37q39 -22 66 -60zM347 650h-203v-237h203q26 0 54 14t45 37q24 36 23 74q0 42 -31 75q-36 37 -91 37zM468 113
q36 38 36 87q0 50 -29 88q-18 26 -48.5 40.5t-61.5 14.5h-221v-272h181q42 0 59 1t41.5 10.5t42.5 30.5z" />
    <glyph glyph-name="C" unicode="C" horiz-adv-x="735" 
d="M613 235l73 -21q-17 -62 -57 -114q-90 -115 -254 -115q-162 0 -253 115q-81 104 -79 260q4 164 79 260q88 115 253 115q78 0 144.5 -29.5t109.5 -85.5q44 -58 63 -133l-76 -12q-15 59 -46 100q-65 87 -195 89q-58 1 -109.5 -22.5t-83.5 -66.5q-60 -77 -60 -215t60 -216
q31 -43 83 -65.5t110 -22.5q59 -1 111 22t84 66q28 38 43 91z" />
    <glyph glyph-name="D" unicode="D" horiz-adv-x="671" 
d="M628 357q0 172 -89 269q-84 94 -229 94l-240 1v-720h238q147 0 230 92q44 48 67 118t23 146zM550 357q-2 -141 -64 -211q-65 -73 -178 -75l-162 2v575l163 1q113 -2 175 -72q68 -77 66 -220z" />
    <glyph glyph-name="E" unicode="E" horiz-adv-x="583" 
d="M513 650h-370v-255h310v-70h-310v-255h370v-70h-443v720h443v-70z" />
    <glyph glyph-name="F" unicode="F" horiz-adv-x="503" 
d="M483 647h-340v-250h280v-74h-280v-323h-73v720h413v-73z" />
    <glyph glyph-name="G" unicode="G" horiz-adv-x="750" 
d="M440 368h266v-23q-5 -151 -78 -244q-91 -116 -253 -116q-79 0 -145.5 29.5t-107.5 86.5q-77 95 -79 259q2 161 79 259q41 57 107.5 86.5t145.5 29.5q161 0 253 -116q23 -31 34 -56l-67 -30q-4 7 -12.5 21t-12.5 20q-33 44 -85 67t-110 23q-127 0 -195 -90
q-56 -73 -60 -214q4 -141 60 -214q68 -90 195 -90q58 0 110 23t85 67q43 61 55 158h-185v64z" />
    <glyph glyph-name="H" unicode="H" horiz-adv-x="685" 
d="M541 720h74v-720h-74v273h-398v-273h-73v720h73v-377h398v377z" />
    <glyph glyph-name="I" unicode="I" horiz-adv-x="233" 
d="M80 720h73v-720h-73v720z" />
    <glyph glyph-name="J" unicode="J" horiz-adv-x="464" 
d="M383 720h-76v-499q0 -74 -14 -104q-15 -29 -43 -45t-60 -16q-36 0 -64 19q-42 29 -53 75l-73 -17q21 -81 90 -121q43 -26 101 -26q112 0 166 92q18 32 22 60.5t4 82.5v499z" />
    <glyph glyph-name="K" unicode="K" horiz-adv-x="622" 
d="M622 0h-97l-300 335h-81v-335h-74v720h74v-315h81l256 315h93l-282 -349z" />
    <glyph glyph-name="L" unicode="L" horiz-adv-x="510" 
d="M153 720h-73v-720h415v70h-342v650z" />
    <glyph glyph-name="M" unicode="M" horiz-adv-x="848" 
d="M778 720v-719h-74v555l-256 -556h-48l-256 556v-556h-74v720h73l281 -605l280 605h74z" />
    <glyph glyph-name="N" unicode="N" horiz-adv-x="684" 
d="M144 720l396 -590v590h74v-720h-74l-396 591v-591h-74v720h74z" />
    <glyph glyph-name="O" unicode="O" horiz-adv-x="750" 
d="M375 -15q-167 0 -253 115q-77 99 -79 260q0 159 79 260q43 57 110 86.5t143 27.5q166 -2 254 -114q74 -95 78 -260q0 -159 -78 -260q-90 -115 -254 -115zM375 56q59 0 110.5 22.5t83.5 66.5q58 76 60 215q0 137 -60 214q-32 44 -84 67.5t-110 22.5q-59 -1 -111 -24
t-83 -66q-58 -73 -60 -214q0 -138 60 -215q31 -44 83.5 -67t110.5 -22z" />
    <glyph glyph-name="P" unicode="P" horiz-adv-x="627" 
d="M533 648q61 -64 61 -151q0 -80 -54 -144q-30 -37 -75.5 -58t-94.5 -21h-227v-274h-73v720h300q38 0 75 -14q51 -17 88 -58zM483 400q36 45 35 97q-2 63 -44 107q-43 45 -105 45h-226v-305h226q69 0 114 56z" />
    <glyph glyph-name="Q" unicode="Q" horiz-adv-x="750" 
d="M629 100q-1 -3 -4 -4l60 -60l-49 -50l-61 61q-81 -62 -200 -62q-167 0 -253 115q-77 99 -79 260q0 159 79 260q43 57 110 86.5t143 27.5q166 -2 254 -114q74 -95 78 -260q0 -159 -78 -260zM375 56q85 0 147 43l-78 78l50 50l78 -78q55 76 57 211q0 137 -60 214
q-32 44 -84 67.5t-110 22.5q-59 -1 -111 -24t-83 -66q-58 -73 -60 -214q0 -138 60 -215q31 -44 83.5 -67t110.5 -22z" />
    <glyph glyph-name="R" unicode="R" horiz-adv-x="664" 
d="M604 0h-85l-133 275q-5 -1 -16 -1h-227v-274h-73v720h300q38 0 75 -14q51 -17 88 -58q61 -64 61 -151q0 -80 -54 -144q-34 -40 -79 -59zM369 344q69 0 114 56q36 45 35 97q-2 63 -44 107q-43 45 -105 45h-226v-305h226z" />
    <glyph glyph-name="S" unicode="S" horiz-adv-x="611" 
d="M576 539l-73 -20q-32 80 -89 115q-50 30 -112 30q-60 2 -106 -23q-27 -15 -43 -41t-16 -54q0 -42 27 -68q28 -29 101 -51l129 -38q82 -23 130 -69q59 -57 57 -133q0 -44 -22 -86.5t-59 -68.5q-67 -47 -185 -47q-151 0 -227 100q-41 52 -58 131l74 20q11 -63 43 -105
q55 -76 171 -76q86 0 138 37q47 34 47 97q0 47 -33 78q-34 34 -94 50l-132 39q-92 29 -133 67q-52 48 -52 125q0 48 29 91.5t74 65.5q56 30 140 30q86 0 149 -38q87 -50 125 -158z" />
    <glyph glyph-name="T" unicode="T" horiz-adv-x="597" 
d="M587 720v-70h-252v-650h-73v650h-252v70h577z" />
    <glyph glyph-name="U" unicode="U" horiz-adv-x="702" 
d="M632 720v-461q0 -98 -62 -174q-39 -48 -97 -74.5t-122 -25.5q-63 -1 -121 25.5t-97 74.5q-63 78 -63 174v461h74v-426q0 -57 8 -91t37 -72q29 -36 72 -56.5t90 -20.5t90.5 20.5t71.5 56.5t36.5 71t8.5 92v426h74z" />
    <glyph glyph-name="V" unicode="V" horiz-adv-x="604" 
d="M253 0l-248 720h77l219 -637l221 637h77l-248 -720h-98z" />
    <glyph glyph-name="W" unicode="W" horiz-adv-x="936" 
d="M842 720h77l-208 -720h-74l-170 591l-169 -591h-74l-207 720h76l168 -594l168 594h77l168 -594z" />
    <glyph glyph-name="X" unicode="X" horiz-adv-x="603" 
d="M345 365l253 -365h-89l-208 301l-207 -301h-89l253 365l-247 355h89l201 -292l201 292h90z" />
    <glyph glyph-name="Y" unicode="Y" horiz-adv-x="556" 
d="M471 720h85l-241 -418v-302h-74v302l-241 418h85l193 -334z" />
    <glyph glyph-name="Z" unicode="Z" horiz-adv-x="621" 
d="M152 70h409v-70h-501v71l408 579h-408v70h501v-71z" />
    <glyph glyph-name="bracketleft" unicode="[" horiz-adv-x="387" 
d="M307 820h-119v-970h119v-68h-187v1106h187v-68z" />
    <glyph glyph-name="backslash" unicode="\" horiz-adv-x="387" 
d="M135 720l192 -720h-75l-192 720h75z" />
    <glyph glyph-name="bracketright" unicode="]" horiz-adv-x="387" 
d="M267 888v-1106h-187v68h119v970h-119v68h187z" />
    <glyph glyph-name="asciicircum" unicode="^" horiz-adv-x="669" 
d="M60 501l235 235l235 -235l-40 -39l-195 195l-195 -196z" />
    <glyph glyph-name="underscore" unicode="_" horiz-adv-x="660" 
d="M0 -77h660v-63h-660v63z" />
    <glyph glyph-name="a" unicode="a" horiz-adv-x="556" 
d="M496 0h-66v87q-66 -102 -213 -102q-78 0 -127.5 44.5t-49.5 118.5q0 101 95 149q23 12 59.5 21.5t62 14t83.5 12.5t81 12q-1 63 -39 95t-101 32q-100 0 -158 -71l-48 50q77 92 215 92q83 0 141 -51q65 -55 65 -171v-333zM401 143q14 28 18 59.5t4 92.5q-150 -23 -187 -32
q-54 -11 -88 -39t-34 -69q0 -47 32 -75.5t83 -28.5q124 0 172 92z" />
    <glyph glyph-name="b" unicode="b" horiz-adv-x="609" 
d="M510 468q59 -75 59 -197q0 -123 -59 -199q-69 -87 -187 -87q-123 0 -187 91v-76h-66v720h74v-243q70 78 182 78q117 0 184 -87zM451 118q40 53 40 153q0 97 -41 152q-46 64 -136 64q-88 0 -134 -60q-44 -56 -44 -156q0 -102 44 -157q47 -61 135 -61q89 0 136 65z" />
    <glyph glyph-name="c" unicode="c" horiz-adv-x="554" 
d="M519 420l-69 -29q-5 11 -19 31q-47 63 -136 63t-135 -63q-40 -51 -42 -152q2 -101 42 -152q47 -62 135 -62q89 0 136 62q8 11 18 30l70 -30q-13 -27 -29 -45q-69 -88 -195 -88q-125 0 -194 88q-59 75 -61 197q2 122 61 198q70 87 194 87q125 0 195 -87q19 -24 29 -48z
" />
    <glyph glyph-name="d" unicode="d" horiz-adv-x="609" 
d="M465 720h74v-720h-66v76q-64 -91 -187 -91q-118 0 -187 87q-59 76 -59 199q0 122 59 197q67 87 184 87q112 0 182 -78v243zM429 114q44 55 44 157q0 100 -44 156q-47 60 -134 60q-90 0 -136 -64q-41 -55 -41 -152q0 -100 40 -153q47 -65 136 -65q88 0 135 61z" />
    <glyph glyph-name="e" unicode="e" horiz-adv-x="591" 
d="M116 246q5 -82 41 -130q47 -64 139 -64q119 0 180 104l56 -36q-35 -67 -96 -101t-138 -34q-59 0 -111.5 22.5t-85.5 65.5q-61 77 -61 195q0 123 61 200q71 87 195 87q123 0 195 -87q66 -84 59 -222h-434zM296 488q-91 2 -139 -63q-32 -43 -40 -111h356q-8 71 -40 111
q-48 65 -137 63z" />
    <glyph glyph-name="f" unicode="f" horiz-adv-x="370" 
d="M276 666q-70 -14 -70 -91v-35h154v-63h-154v-477h-73v477h-123v63h123v31q0 82 49 125q59 49 178 36v-65q-49 7 -84 -1z" />
    <glyph glyph-name="g" unicode="g" horiz-adv-x="609" 
d="M473 540h66v-532q0 -82 -18 -129t-63 -82q-68 -52 -170 -52q-104 0 -166 68q-31 23 -47 51l68 33q6 -12 19 -27q44 -53 126 -53q81 0 128 40q30 25 39.5 57t9.5 94v57q-63 -80 -179 -80q-118 0 -187 87q-59 76 -59 199q0 122 59 197q67 87 184 87q57 0 107.5 -23
t82.5 -65v73zM429 114q44 55 44 157q0 100 -44 156q-47 60 -134 60q-90 0 -136 -64q-41 -55 -41 -152q0 -100 40 -153q47 -65 136 -65q88 0 135 61z" />
    <glyph glyph-name="h" unicode="h" 
d="M450 510q51 -38 68 -100t16 -148v-262h-74v260q0 72 -13 119t-50 75q-44 32 -105 29q-56 -2 -92 -35q-39 -34 -50 -93q-6 -28 -6 -77v-278h-74v720h66v-256q11 17 26 32q51 53 135 56q92 7 153 -42z" />
    <glyph glyph-name="i" unicode="i" horiz-adv-x="233" 
d="M80 718h73v-82h-73v82zM80 540h73v-540h-73v540z" />
    <glyph glyph-name="j" unicode="j" horiz-adv-x="254" 
d="M100 713h74v-82h-74v82zM10 -180v-75q76 0 120 51q29 32 36.5 72t7.5 117v555h-74v-555q0 -66 -4.5 -94t-23.5 -47q-18 -22 -62 -24z" />
    <glyph glyph-name="k" unicode="k" horiz-adv-x="498" 
d="M144 260v-260h-74v720h74v-397h57l182 217h88l-205 -249l232 -291h-88l-209 260h-57z" />
    <glyph glyph-name="l" unicode="l" horiz-adv-x="213" 
d="M70 0h73v735h-73v-735z" />
    <glyph glyph-name="m" unicode="m" horiz-adv-x="847" 
d="M726 514q40 -33 50.5 -72t10.5 -110l-1 -332h-72v329q0 51 -8 78.5t-36 51.5q-33 30 -78 30q-62 0 -98 -46q-29 -35 -29 -95v-16v-332h-73l1 329q0 51 -8 78.5t-36 51.5q-33 30 -79 30q-60 0 -98 -46q-28 -35 -28 -95v-348h-74v540h66v-59q25 35 65.5 54t84.5 19
q71 0 118 -40q28 -22 42 -51l9 14q25 36 66 56.5t87 20.5q71 0 118 -40z" />
    <glyph glyph-name="n" unicode="n" 
d="M450 510q51 -38 68 -100t16 -148v-262h-74v260q0 72 -13 119t-50 75q-44 32 -105 29q-56 -2 -92 -35q-39 -34 -50 -93q-6 -28 -6 -77v-278h-74v540h66v-76q11 17 26 32q51 53 135 56q92 7 153 -42z" />
    <glyph glyph-name="o" unicode="o" horiz-adv-x="592" 
d="M296 -15q-126 0 -195 88q-61 76 -61 198q0 121 61 197q33 42 84.5 64.5t110.5 22.5q126 0 195 -87q61 -77 61 -197q0 -119 -61 -198q-69 -88 -195 -88zM432 118q42 54 42 153q0 98 -42 152q-47 62 -136 62q-91 0 -136 -62q-42 -54 -42 -152q0 -99 42 -153q46 -63 136 -63
q88 0 136 63z" />
    <glyph glyph-name="p" unicode="p" horiz-adv-x="609" 
d="M510 468q59 -75 59 -197q0 -123 -59 -199q-69 -87 -187 -87q-116 0 -179 80v-305h-74v780h66v-73q32 42 82.5 65t107.5 23q117 0 184 -87zM451 118q40 53 40 153q0 97 -41 152q-46 64 -136 64q-88 0 -134 -60q-44 -56 -44 -156q0 -102 44 -157q47 -61 135 -61
q89 0 136 65z" />
    <glyph glyph-name="q" unicode="q" horiz-adv-x="609" 
d="M473 540h66v-780h-74v305q-63 -80 -179 -80q-118 0 -187 87q-59 76 -59 199q0 122 59 197q67 87 184 87q57 0 107.5 -23t82.5 -65v73zM429 114q44 55 44 157q0 100 -44 156q-47 60 -134 60q-90 0 -136 -64q-41 -55 -41 -152q0 -100 40 -153q47 -65 136 -65q88 0 135 61z
" />
    <glyph glyph-name="r" unicode="r" horiz-adv-x="406" 
d="M308 555q39 0 73 -10v-71q-35 14 -78 12q-66 -2 -107 -41q-24 -23 -36 -55t-14 -58t-2 -75v-257h-74v540h66v-81q15 26 45 51q51 43 127 45z" />
    <glyph glyph-name="s" unicode="s" horiz-adv-x="537" 
d="M495 399l-71 -18q-21 60 -72 86q-36 21 -85 21q-44 1 -83 -15q-47 -23 -47 -63q0 -32 25 -50q19 -15 64 -28q14 -4 110 -30q65 -17 104 -49q56 -44 56 -110q0 -35 -18.5 -69t-49.5 -52q-55 -36 -148 -36q-120 0 -183 69q-16 18 -27.5 40.5t-16 36t-13.5 45.5l71 18
q9 -58 38 -93q45 -49 131 -49q72 0 110 26q36 23 36 65q0 35 -31 56q-25 18 -80 34q-28 8 -62.5 18t-49.5 14q-69 23 -99 51q-37 33 -37 92q0 40 24.5 74t63.5 51q48 23 115 21q62 0 114 -26q38 -19 69 -55.5t42 -74.5z" />
    <glyph glyph-name="t" unicode="t" horiz-adv-x="401" 
d="M199 477v-278v-18v-17t0.5 -13.5t1 -14t1.5 -11t3 -11.5t5 -10q18 -37 65 -42t89 4v-66q-60 -15 -116 -4q-76 13 -104 71q-19 40 -19 129v281h-115v63h115v150h74v-150h165v-63h-165z" />
    <glyph glyph-name="u" unicode="u" 
d="M450 540h74v-540h-66v76q-11 -17 -26 -32q-51 -53 -135 -56q-92 -7 -153 42q-51 38 -68 100t-16 148v262h74v-260q0 -72 13 -119t50 -75q44 -32 105 -29q56 2 92 35q39 34 50 93q6 28 6 77v278z" />
    <glyph glyph-name="v" unicode="v" horiz-adv-x="508" 
d="M413 540h75l-196 -540h-76l-196 540h75l159 -444z" />
    <glyph glyph-name="w" unicode="w" horiz-adv-x="767" 
d="M674 540h73l-165 -540h-67l-131 430l-135 -430h-64l-165 540h74l128 -419l128 419h67l129 -419z" />
    <glyph glyph-name="x" unicode="x" horiz-adv-x="544" 
d="M519 540l-205 -267l210 -273h-87l-165 215l-165 -215h-87l209 273l-204 267h86l161 -209l160 209h87z" />
    <glyph glyph-name="y" unicode="y" horiz-adv-x="549" 
d="M464 539h75l-248 -645q-29 -79 -73 -111q-31 -23 -94 -23l-14 1v71l18 -2q36 -2 55 12q15 12 29 40t42 103l-234 555h76l193 -461z" />
    <glyph glyph-name="z" unicode="z" horiz-adv-x="578" 
d="M508 69v-69h-438v68l340 403h-340v69h438v-69l-340 -402h340z" />
    <glyph glyph-name="braceleft" unicode="{" horiz-adv-x="446" 
d="M356 -198v70h-56q-22 0 -37 15t-15 36v240q0 39 -22 70l-28 39l28 39q22 31 22 70v239q0 22 15 37t37 15h56v71h-56q-51 0 -86.5 -36t-35.5 -87v-239q0 -14 -9 -30l-43 -59q-13 -20 0 -40l43 -59q9 -16 9 -30v-240q0 -50 35.5 -85.5t86.5 -35.5h56z" />
    <glyph glyph-name="bar" unicode="|" horiz-adv-x="253" 
d="M90 720h73v-720h-73v720z" />
    <glyph glyph-name="braceright" unicode="}" horiz-adv-x="447" 
d="M90 -198h56q51 0 87 35.5t36 85.5v240q0 17 9 30l42 59q13 20 0 40l-42 59q-9 13 -9 30v239q0 51 -36 87t-87 36h-56v-71h56q22 0 37 -15t15 -37v-239q0 -39 22 -70l28 -39l-28 -39q-22 -31 -22 -70v-240q0 -21 -15 -36t-37 -15h-56v-70z" />
    <glyph glyph-name="asciitilde" unicode="~" horiz-adv-x="662" 
d="M538 336q12 -47 -9 -87q-26 -42 -74 -47q-52 -9 -124 23q-7 3 -21 9.5t-20 9t-16.5 7t-17.5 6t-15 2.5t-16 0q-24 -2 -31.5 -20.5t1.5 -34.5h-71q-12 48 9 87q25 41 73 48q54 8 124 -23q8 -3 25 -11t24.5 -11t19 -7t20.5 -5.5t18 -0.5q24 2 31.5 20.5t-1.5 34.5h71z" />
    <glyph glyph-name="exclamdown" unicode="&#xa1;" horiz-adv-x="313" 
d="M120 457v83h73v-83h-73zM120 -180v540h73v-540h-73z" />
    <glyph glyph-name="cent" unicode="&#xa2;" horiz-adv-x="554" 
d="M431 193q8 11 18 30l70 -30q-13 -27 -29 -45q-58 -75 -162 -86v-92h-63v92q-104 10 -164 86q-59 75 -61 197q2 122 61 198q60 75 164 86v91h63v-92q103 -11 162 -85q19 -24 29 -48l-69 -29q-5 11 -19 31q-46 63 -136 63q-89 0 -135 -63q-40 -51 -42 -152q2 -101 42 -152
q47 -62 135 -62q89 0 136 62z" />
    <glyph glyph-name="sterling" unicode="&#xa3;" horiz-adv-x="624" 
d="M256 330v-260h282v-70h-478v70h51q29 0 50 21.5t21 50.5v188h-122v71h122v146q0 82 54 135t135 53q133 0 193 -177l-67 -22q-21 66 -51.5 97t-75.5 31q-51 0 -82.5 -32.5t-31.5 -86.5v-144h182v-71h-182z" />
    <glyph glyph-name="yen" unicode="&#xa5;" horiz-adv-x="556" 
d="M556 720l-205 -355h117v-63h-153v-120h153v-63h-153v-119h-74v119h-153v63h153v120h-153v63h117l-205 355h85l193 -334l193 334h85z" />
    <glyph glyph-name="copyright" unicode="&#xa9;" horiz-adv-x="830" 
d="M415 -102q154 0 263 108.5t109 262.5t-109 263t-263 109t-263 -109t-109 -263t109 -262.5t263 -108.5zM415 -31q-125 0 -213 88t-88 213q0 124 88 211.5t213 87.5q124 0 211.5 -87.5t87.5 -211.5q0 -125 -87.5 -213t-211.5 -88zM584 382l-58 -25q-2 7 -13 21
q-32 45 -96 45q-59 0 -94 -45q-31 -38 -31 -107q0 -64 31 -106q14 -21 40.5 -33t53.5 -12q59 0 96 45q8 10 12 20l59 -25q-8 -15 -22 -33q-51 -65 -145 -65q-42 -1 -81 16.5t-64 48.5q-45 57 -45 144q2 92 45 146q54 64 145 64q94 0 145 -64q15 -19 22 -35z" />
    <glyph glyph-name="guillemotleft" unicode="&#xab;" horiz-adv-x="536" 
d="M253 53l44 35l-145 183l145 182l-44 35l-173 -217zM425 53l44 35l-146 183l146 182l-44 35l-173 -217z" />
    <glyph glyph-name="registered" unicode="&#xae;" horiz-adv-x="625" 
d="M313 772q100 0 171 -71t71 -171t-71 -171.5t-171 -71.5q-101 0 -172 71.5t-71 171.5t71 171t172 71zM313 715q-77 0 -131.5 -54t-54.5 -131t54.5 -131t131.5 -54t131 54.5t54 130.5q0 77 -54 131t-131 54zM231 649h105q33 0 55.5 -22.5t22.5 -54.5q0 -47 -43 -69l43 -88
h-50l-39 80h-50v-80h-44v234zM275 607v-70h60q14 0 24 10.5t10 24.5q0 15 -11 25t-23 10h-60z" />
    <glyph glyph-name="degree" unicode="&#xb0;" horiz-adv-x="450" 
d="M210 375q-74 0 -127 52.5t-53 127.5q0 73 54 126.5t126 53.5q74 0 127 -52.5t53 -127.5t-53 -127.5t-127 -52.5zM210 436q49 0 84 35t35 84t-35 84t-84 35t-84 -35t-35 -84t35 -84t84 -35z" />
    <glyph glyph-name="plusminus" unicode="&#xb1;" horiz-adv-x="600" 
d="M332 412h208v-63h-208v-129h-63v129h-209v63h209v128h63v-128zM60 79v63h480v-63h-480z" />
    <glyph glyph-name="periodcentered" unicode="&#xb7;" horiz-adv-x="587" 
d="M295 217q-23 0 -39 15t-16 38t16 38t39 15q21 0 36.5 -15t15.5 -38t-15.5 -38t-36.5 -15z" />
    <glyph glyph-name="guillemotright" unicode="&#xbb;" horiz-adv-x="536" 
d="M111 53l173 218l-173 217l-44 -35l146 -182l-146 -183zM283 53l173 218l-173 217l-44 -35l145 -182l-145 -183z" />
    <glyph glyph-name="questiondown" unicode="&#xbf;" horiz-adv-x="524" 
d="M312 540v-98h-77v98h77zM50 -2q0 83 59 142q11 12 54.5 46.5t55.5 57.5q3 6 5.5 12t4.5 10t3 12t1.5 11t1 12.5t0.5 12v15v15.5h78q0 -85 -24 -129q-17 -33 -66.5 -71.5t-61.5 -51.5q-33 -37 -33 -94q0 -51 26 -80q34 -42 109 -42q67 0 102 36q33 30 33 86h76
q-5 -91 -62 -141q-58 -52 -148 -52q-110 0 -167 64q-47 51 -47 129z" />
    <glyph glyph-name="Agrave" unicode="&#xc0;" horiz-adv-x="634" 
d="M472 842l-23 -56l-227 94l22 56zM537 0l-49 142h-342l-49 -142h-77l248 720h98l248 -720h-77zM170 211h294l-146 426z" />
    <glyph glyph-name="Aacute" unicode="&#xc1;" horiz-adv-x="634" 
d="M412 880l-227 -94l-23 56l228 94zM537 0l-49 142h-342l-49 -142h-77l248 720h98l248 -720h-77zM170 211h294l-148 426z" />
    <glyph glyph-name="Acircumflex" unicode="&#xc2;" horiz-adv-x="634" 
d="M302 858l-110 -72l-32 52l142 92l142 -92l-31 -52zM537 0l-49 142h-342l-49 -142h-77l248 720h98l248 -720h-77zM170 211h294l-148 426z" />
    <glyph glyph-name="Atilde" unicode="&#xc3;" horiz-adv-x="634" 
d="M205 843h-50q-9 35 7 61q17 30 52 34q38 6 88 -16q6 -3 21 -10t21 -9t15.5 -4.5t17.5 -1.5q17 1 22.5 14.5t-0.5 24.5h50q9 -35 -7 -61q-17 -30 -52 -34q-38 -6 -88 16q-6 3 -21 10t-21 9t-15.5 4.5t-17.5 1.5q-17 -1 -22.5 -14.5t0.5 -24.5zM537 0l-49 142h-342
l-49 -142h-77l248 720h98l248 -720h-77zM170 211h294l-148 426z" />
    <glyph glyph-name="Adieresis" unicode="&#xc4;" horiz-adv-x="634" 
d="M247 920v-80h-80v80h80zM438 920v-80h-80v80h80zM537 0l-49 142h-342l-49 -142h-77l248 720h98l248 -720h-77zM170 211h294l-148 426z" />
    <glyph glyph-name="Aring" unicode="&#xc5;" horiz-adv-x="634" 
d="M537 0l-49 142h-342l-49 -142h-77l232 673q-30 15 -48.5 43.5t-18.5 63.5q0 48 34.5 83t82.5 35q49 0 83.5 -35t34.5 -83q0 -56 -43 -91l237 -689h-77zM302 840q-25 0 -42.5 -17.5t-17.5 -42.5t17.5 -42.5t42.5 -17.5t42.5 17.5t17.5 42.5t-17.5 42.5t-42.5 17.5z
M170 211h294l-148 426z" />
    <glyph glyph-name="AE" unicode="&#xc6;" horiz-adv-x="912" 
d="M842 650h-370v-255h310v-70h-310v-255h370v-70h-444v142h-252l-49 -142h-77l248 720h574v-70zM170 211h228v436h-78z" />
    <glyph glyph-name="Ccedilla" unicode="&#xc7;" horiz-adv-x="735" 
d="M570 144q28 38 43 91l73 -21q-17 -62 -57 -114q-81 -103 -224 -114l-16 -45q32 -16 48 -43q12 -22 10.5 -49.5t-15.5 -47.5q-30 -46 -87 -41q-27 3 -54 16l19 50q26 -8 36 -8q25 -2 36 16q11 19 3 37l-4 8t-6.5 7t-7 5t-9.5 4.5t-9.5 3.5t-12.5 4.5t-13 4.5l28 78
q-145 8 -229 114q-81 104 -79 260q4 164 79 260q88 115 253 115q78 0 144.5 -29.5t109.5 -85.5q44 -58 63 -133l-76 -12q-15 59 -46 100q-65 87 -195 89q-58 1 -109.5 -22.5t-83.5 -66.5q-60 -77 -60 -215t60 -216q31 -43 83 -65.5t110 -22.5q59 -1 111 22t84 66z" />
    <glyph glyph-name="Egrave" unicode="&#xc8;" horiz-adv-x="583" 
d="M408 842l-22 -56l-227 94l22 56zM513 650h-370v-255h310v-70h-310v-255h370v-70h-443v720h443v-70z" />
    <glyph glyph-name="Eacute" unicode="&#xc9;" horiz-adv-x="583" 
d="M415 880l-227 -94l-23 56l227 94zM513 650h-370v-255h310v-70h-310v-255h370v-70h-443v720h443v-70z" />
    <glyph glyph-name="Ecircumflex" unicode="&#xca;" horiz-adv-x="583" 
d="M281 858l-111 -72l-31 52l142 92l142 -92l-31 -52zM513 650h-370v-255h310v-70h-310v-255h370v-70h-443v720h443v-70z" />
    <glyph glyph-name="Edieresis" unicode="&#xcb;" horiz-adv-x="583" 
d="M229 920v-80h-80v80h80zM420 920v-80h-80v80h80zM513 650h-370v-255h310v-70h-310v-255h370v-70h-443v720h443v-70z" />
    <glyph glyph-name="Igrave" unicode="&#xcc;" horiz-adv-x="233" 
d="M220 786l23 56l-227 94l-23 -56zM80 720h73v-720h-73v720z" />
    <glyph glyph-name="Iacute" unicode="&#xcd;" horiz-adv-x="233" 
d="M12 786l227 94l-22 56l-228 -94zM80 720h73v-720h-73v720z" />
    <glyph glyph-name="Icircumflex" unicode="&#xce;" horiz-adv-x="233" 
d="M6 786l111 72l110 -72l32 52l-142 92l-142 -92zM80 720h73v-720h-73v720z" />
    <glyph glyph-name="Idieresis" unicode="&#xcf;" horiz-adv-x="233" 
d="M-19 920h80v-80h-80v80zM172 920h80v-80h-80v80zM80 720h73v-720h-73v720z" />
    <glyph glyph-name="Eth" unicode="&#xd0;" horiz-adv-x="665" 
d="M533 626q89 -97 89 -269q0 -76 -23 -146t-67 -118q-83 -92 -230 -92h-238v328h-54v63h54v329l240 -1q145 0 229 -94zM480 146q62 70 64 211q2 143 -66 220q-62 70 -175 72l-163 -1v-256h185v-63h-185v-256l162 -2q113 2 178 75z" />
    <glyph glyph-name="Ntilde" unicode="&#xd1;" horiz-adv-x="684" 
d="M502 911q9 -34 -6 -61q-18 -30 -52 -34q-38 -6 -88 16q-7 3 -22 9.5t-21 9t-15.5 5t-17.5 1.5q-17 -1 -22 -14.5t1 -24.5h-51q-7 35 7 61q18 30 52 34q38 6 88 -16q7 -3 18 -8l16.5 -7.5t13.5 -5.5t14.5 -4t13.5 0q17 1 22 14.5t-1 24.5h50zM144 720l396 -590v590h74
v-720h-74l-396 591v-591h-74v720h74z" />
    <glyph glyph-name="Ograve" unicode="&#xd2;" horiz-adv-x="750" 
d="M494 786l23 56l-227 94l-23 -56zM375 -15q-167 0 -253 115q-77 99 -79 260q0 159 79 260q43 57 110 86.5t143 27.5q166 -2 254 -114q74 -95 78 -260q0 -159 -78 -260q-90 -115 -254 -115zM375 56q59 0 110.5 22.5t83.5 66.5q58 76 60 215q0 137 -60 214q-32 44 -84 67.5
t-110 22.5q-59 -1 -111 -24t-83 -66q-58 -73 -60 -214q0 -138 60 -215q31 -44 83.5 -67t110.5 -22z" />
    <glyph glyph-name="Oacute" unicode="&#xd3;" horiz-adv-x="750" 
d="M280 786l227 94l-22 56l-228 -94zM375 -15q-167 0 -253 115q-77 99 -79 260q0 159 79 260q43 57 110 86.5t143 27.5q166 -2 254 -114q74 -95 78 -260q0 -159 -78 -260q-90 -115 -254 -115zM375 56q59 0 110.5 22.5t83.5 66.5q58 76 60 215q0 137 -60 214q-32 44 -84 67.5
t-110 22.5q-59 -1 -111 -24t-83 -66q-58 -73 -60 -214q0 -138 60 -215q31 -44 83.5 -67t110.5 -22z" />
    <glyph glyph-name="Ocircumflex" unicode="&#xd4;" horiz-adv-x="750" 
d="M261 786l111 72l110 -72l32 52l-142 92l-142 -92zM375 -15q-167 0 -253 115q-77 99 -79 260q0 159 79 260q43 57 110 86.5t143 27.5q166 -2 254 -114q74 -95 78 -260q0 -159 -78 -260q-90 -115 -254 -115zM375 56q59 0 110.5 22.5t83.5 66.5q58 76 60 215q0 137 -60 214
q-32 44 -84 67.5t-110 22.5q-59 -1 -111 -24t-83 -66q-58 -73 -60 -214q0 -138 60 -215q31 -44 83.5 -67t110.5 -22z" />
    <glyph glyph-name="Otilde" unicode="&#xd5;" horiz-adv-x="750" 
d="M519 936q9 -35 -7 -61q-17 -30 -52 -34q-38 -6 -88 16q-6 3 -21 10t-21 9t-15.5 4.5t-17.5 1.5q-17 -1 -22.5 -14.5t0.5 -24.5h-50q-9 35 7 61q17 30 52 34q38 6 88 -16q6 -3 21 -10t21 -9t15.5 -4.5t17.5 -1.5q17 1 22.5 14.5t-0.5 24.5h50zM375 -15q-167 0 -253 115
q-77 99 -79 260q0 159 79 260q43 57 110 86.5t143 27.5q166 -2 254 -114q74 -95 78 -260q0 -159 -78 -260q-90 -115 -254 -115zM375 56q59 0 110.5 22.5t83.5 66.5q58 76 60 215q0 137 -60 214q-32 44 -84 67.5t-110 22.5q-59 -1 -111 -24t-83 -66q-58 -73 -60 -214
q0 -138 60 -215q31 -44 83.5 -67t110.5 -22z" />
    <glyph glyph-name="Odieresis" unicode="&#xd6;" horiz-adv-x="750" 
d="M236 920h80v-80h-80v80zM427 920h80v-80h-80v80zM375 -15q-167 0 -253 115q-77 99 -79 260q0 159 79 260q43 57 110 86.5t143 27.5q166 -2 254 -114q74 -95 78 -260q0 -159 -78 -260q-90 -115 -254 -115zM375 56q59 0 110.5 22.5t83.5 66.5q58 76 60 215q0 137 -60 214
q-32 44 -84 67.5t-110 22.5q-59 -1 -111 -24t-83 -66q-58 -73 -60 -214q0 -138 60 -215q31 -44 83.5 -67t110.5 -22z" />
    <glyph glyph-name="multiply" unicode="&#xd7;" horiz-adv-x="504" 
d="M445 140l-45 -45l-147 148l-148 -148l-45 45l148 147l-147 147l44 45l148 -147l147 147l44 -45l-147 -147z" />
    <glyph glyph-name="Oslash" unicode="&#xd8;" horiz-adv-x="750" 
d="M712 650l-61 -61q52 -88 56 -229q0 -159 -78 -260q-90 -115 -254 -115q-149 0 -235 93l-59 -59l-50 50l67 67q-53 89 -55 224q0 159 79 260q43 57 110 86.5t143 27.5q146 -2 232 -89l55 54zM121 360q0 -101 32 -169l401 401q-68 74 -179 72q-59 -1 -111 -24t-83 -66
q-58 -73 -60 -214zM629 360q0 102 -34 173l-402 -402q32 -37 80.5 -56.5t101.5 -18.5q59 0 110.5 22.5t83.5 66.5q58 76 60 215z" />
    <glyph glyph-name="Ugrave" unicode="&#xd9;" horiz-adv-x="702" 
d="M458 786l22 56l-227 94l-22 -56zM632 720v-461q0 -98 -62 -174q-39 -48 -97 -74.5t-122 -25.5q-63 -1 -121 25.5t-97 74.5q-63 78 -63 174v461h74v-426q0 -57 8 -91t37 -72q29 -36 72 -56.5t90 -20.5t90.5 20.5t71.5 56.5t36.5 71t8.5 92v426h74z" />
    <glyph glyph-name="Uacute" unicode="&#xda;" horiz-adv-x="702" 
d="M250 786l227 94l-22 56l-228 -94zM632 720v-461q0 -98 -62 -174q-39 -48 -97 -74.5t-122 -25.5q-63 -1 -121 25.5t-97 74.5q-63 78 -63 174v461h74v-426q0 -57 8 -91t37 -72q29 -36 72 -56.5t90 -20.5t90.5 20.5t71.5 56.5t36.5 71t8.5 92v426h74z" />
    <glyph glyph-name="Ucircumflex" unicode="&#xdb;" horiz-adv-x="702" 
d="M235 786l111 72l111 -72l31 52l-142 92l-142 -92zM632 720v-461q0 -98 -62 -174q-39 -48 -97 -74.5t-122 -25.5q-63 -1 -121 25.5t-97 74.5q-63 78 -63 174v461h74v-426q0 -57 8 -91t37 -72q29 -36 72 -56.5t90 -20.5t90.5 20.5t71.5 56.5t36.5 71t8.5 92v426h74z" />
    <glyph glyph-name="Udieresis" unicode="&#xdc;" horiz-adv-x="702" 
d="M207 920h80v-80h-80v80zM398 920h80v-80h-80v80zM632 720v-461q0 -98 -62 -174q-39 -48 -97 -74.5t-122 -25.5q-63 -1 -121 25.5t-97 74.5q-63 78 -63 174v461h74v-426q0 -57 8 -91t37 -72q29 -36 72 -56.5t90 -20.5t90.5 20.5t71.5 56.5t36.5 71t8.5 92v426h74z" />
    <glyph glyph-name="Yacute" unicode="&#xdd;" horiz-adv-x="556" 
d="M186 786l227 94l-22 56l-228 -94zM471 720h85l-241 -418v-302h-74v302l-241 418h85l193 -334z" />
    <glyph glyph-name="Thorn" unicode="&#xde;" horiz-adv-x="598" 
d="M503 511q60 -62 62 -151q0 -79 -54 -144q-30 -36 -76 -57.5t-95 -21.5h-196v-137h-74v720h74v-137h196q41 0 76 -13q51 -19 87 -59zM454 263q36 45 35 97q-2 63 -44 107q-46 46 -105 46h-196v-306h196q68 0 114 56z" />
    <glyph glyph-name="germandbls" unicode="&#xdf;" horiz-adv-x="599" 
d="M70 0v539q0 102 77 157q51 39 126 39q74 0 125 -38q37 -27 57.5 -68.5t20.5 -86.5q0 -58 -38 -102q-20 -28 -50 -46q55 -22 90 -54q61 -58 61 -135q0 -99 -64 -151q-68 -54 -206 -54h-48v76h48q106 0 152 37q41 34 41 92q0 61 -51 99q-50 39 -138 46v67q62 10 97 51
q30 33 30 74q0 59 -46 95q-36 28 -80 28q-47 0 -83 -27q-20 -16 -32.5 -41.5t-12.5 -51.5v-545h-76z" />
    <glyph glyph-name="agrave" unicode="&#xe0;" horiz-adv-x="556" 
d="M420 606l22 56l-227 94l-22 -56zM496 0h-66v87q-66 -102 -213 -102q-78 0 -127.5 44.5t-49.5 118.5q0 101 95 149q23 12 59.5 21.5t62 14t83.5 12.5t81 12q-1 63 -39 95t-101 32q-100 0 -158 -71l-48 50q77 92 215 92q83 0 141 -51q65 -55 65 -171v-333zM401 143
q14 28 18 59.5t4 92.5q-150 -23 -187 -32q-54 -11 -88 -39t-34 -69q0 -47 32 -75.5t83 -28.5q124 0 172 92z" />
    <glyph glyph-name="aacute" unicode="&#xe1;" horiz-adv-x="556" 
d="M190 606l227 94l-22 56l-227 -94zM496 0h-66v87q-66 -102 -213 -102q-78 0 -127.5 44.5t-49.5 118.5q0 101 95 149q23 12 59.5 21.5t62 14t83.5 12.5t81 12q-1 63 -39 95t-101 32q-100 0 -158 -71l-48 50q77 92 215 92q83 0 141 -51q65 -55 65 -171v-333zM401 143
q14 28 18 59.5t4 92.5q-150 -23 -187 -32q-54 -11 -88 -39t-34 -69q0 -47 32 -75.5t83 -28.5q124 0 172 92z" />
    <glyph glyph-name="acircumflex" unicode="&#xe2;" horiz-adv-x="556" 
d="M182 606l111 72l110 -72l32 52l-142 92l-142 -92zM496 0h-66v87q-66 -102 -213 -102q-78 0 -127.5 44.5t-49.5 118.5q0 101 95 149q23 12 59.5 21.5t62 14t83.5 12.5t81 12q-1 63 -39 95t-101 32q-100 0 -158 -71l-48 50q77 92 215 92q83 0 141 -51q65 -55 65 -171v-333z
M401 143q14 28 18 59.5t4 92.5q-150 -23 -187 -32q-54 -11 -88 -39t-34 -69q0 -47 32 -75.5t83 -28.5q124 0 172 92z" />
    <glyph glyph-name="atilde" unicode="&#xe3;" horiz-adv-x="556" 
d="M443 731q7 -35 -7 -61q-18 -30 -52 -34q-38 -6 -88 16q-6 3 -21 10t-21 9t-15.5 4.5t-17.5 1.5q-17 -1 -22.5 -14.5t0.5 -24.5h-50q-9 34 6 61q18 30 52 34q38 6 88 -16q7 -3 22 -9.5t21 -9t15.5 -5t17.5 -1.5q17 1 22 14.5t-1 24.5h51zM496 0h-66v87q-66 -102 -213 -102
q-78 0 -127.5 44.5t-49.5 118.5q0 101 95 149q23 12 59.5 21.5t62 14t83.5 12.5t81 12q-1 63 -39 95t-101 32q-100 0 -158 -71l-48 50q77 92 215 92q83 0 141 -51q65 -55 65 -171v-333zM401 143q14 28 18 59.5t4 92.5q-150 -23 -187 -32q-54 -11 -88 -39t-34 -69
q0 -47 32 -75.5t83 -28.5q124 0 172 92z" />
    <glyph glyph-name="adieresis" unicode="&#xe4;" horiz-adv-x="556" 
d="M160 740h80v-80h-80v80zM350 740h80v-80h-80v80zM496 0h-66v87q-66 -102 -213 -102q-78 0 -127.5 44.5t-49.5 118.5q0 101 95 149q23 12 59.5 21.5t62 14t83.5 12.5t81 12q-1 63 -39 95t-101 32q-100 0 -158 -71l-48 50q77 92 215 92q83 0 141 -51q65 -55 65 -171v-333z
M401 143q14 28 18 59.5t4 92.5q-150 -23 -187 -32q-54 -11 -88 -39t-34 -69q0 -47 32 -75.5t83 -28.5q124 0 172 92z" />
    <glyph glyph-name="aring" unicode="&#xe5;" horiz-adv-x="556" 
d="M431 504q65 -55 65 -171v-333h-66v87q-66 -102 -213 -102q-78 0 -127.5 44.5t-49.5 118.5q0 101 95 149q23 12 59.5 21.5t62 14t83.5 12.5t81 12q-1 63 -39 95t-101 32q-100 0 -158 -71l-48 50q47 57 118 79q-26 32 -26 73q0 48 35 83t83 35q49 0 83.5 -35t34.5 -83
q0 -42 -28 -77q30 -12 56 -34zM285 675q-25 0 -42.5 -17.5t-17.5 -42.5t17.5 -42.5t42.5 -17.5t42.5 17.5t17.5 42.5t-17.5 42.5t-42.5 17.5zM401 143q14 28 18 59.5t4 92.5q-150 -23 -187 -32q-54 -11 -88 -39t-34 -69q0 -47 32 -75.5t83 -28.5q124 0 172 92z" />
    <glyph glyph-name="ae" unicode="&#xe6;" horiz-adv-x="960" 
d="M509 246v-1q3 -77 39 -129q44 -64 130 -64q113 0 171 104l53 -36q-34 -67 -91.5 -101t-129.5 -34q-56 0 -105.5 22.5t-81.5 65.5q-15 20 -29 50q-1 -2 -3.5 -6.5t-4.5 -6.5q-39 -68 -105 -98q-75 -35 -165 -21q-87 16 -119 70q-49 70 -14 152q28 69 112 86q58 14 169 14
h103q0 95 -50 136q-44 35 -116 35q-78 2 -124 -52q-9 -7 -20 -25l-68 32q7 13 17 26q67 89 196 89q95 0 156 -45q33 -24 53 -59l12 18q68 87 184 87q118 0 185 -87q61 -83 56 -222h-410zM548 425q-28 -39 -36 -98v-13h334q-8 70 -38 111q-45 65 -130 63q-85 2 -130 -63z
M408 149q24 40 29 98h-81q-117 0 -147 -3q-60 -8 -84 -51q-25 -46 5 -92q14 -20 39 -32.5t48 -14.5q56 -6 111 20q51 23 80 75z" />
    <glyph glyph-name="ccedilla" unicode="&#xe7;" horiz-adv-x="554" 
d="M431 118q8 11 18 30l70 -30q-13 -27 -29 -45q-56 -71 -154 -85l-17 -47q33 -16 48 -43q13 -22 11.5 -49.5t-16.5 -47.5q-29 -46 -87 -41q-25 3 -54 16l19 50q28 -8 37 -8q25 -2 36 16q11 19 3 37l-4 8t-6.5 7l-7.5 5t-9.5 4.5t-10 4t-12.5 4.5t-13 4l28 77
q-116 6 -180 88q-59 75 -61 197q2 122 61 198q70 87 194 87q125 0 195 -87q19 -24 29 -48l-69 -29q-5 11 -19 31q-47 63 -136 63t-135 -63q-40 -51 -42 -152q2 -101 42 -152q47 -62 135 -62q89 0 136 62z" />
    <glyph glyph-name="egrave" unicode="&#xe8;" horiz-adv-x="591" 
d="M449 662l-22 -56l-227 94l22 56zM116 246q5 -82 41 -130q47 -64 139 -64q119 0 180 104l56 -36q-35 -67 -96 -101t-138 -34q-59 0 -111.5 22.5t-85.5 65.5q-61 77 -61 195q0 123 61 200q71 87 195 87q123 0 195 -87q66 -84 59 -222h-434zM296 488q-91 2 -139 -63
q-32 -43 -40 -111h356q-8 71 -40 111q-48 65 -137 63z" />
    <glyph glyph-name="eacute" unicode="&#xe9;" horiz-adv-x="591" 
d="M420 700l-227 -94l-23 56l228 94zM116 246q5 -82 41 -130q47 -64 139 -64q119 0 180 104l56 -36q-35 -67 -96 -101t-138 -34q-59 0 -111.5 22.5t-85.5 65.5q-61 77 -61 195q0 123 61 200q71 87 195 87q123 0 195 -87q66 -84 59 -222h-434zM296 488q-91 2 -139 -63
q-32 -43 -40 -111h356q-8 71 -40 111q-48 65 -137 63z" />
    <glyph glyph-name="ecircumflex" unicode="&#xea;" horiz-adv-x="591" 
d="M296 678l-111 -72l-31 52l142 92l142 -92l-32 -52zM116 246q5 -82 41 -130q47 -64 139 -64q119 0 180 104l56 -36q-35 -67 -96 -101t-138 -34q-59 0 -111.5 22.5t-85.5 65.5q-61 77 -61 195q0 123 61 200q71 87 195 87q123 0 195 -87q66 -84 59 -222h-434zM296 488
q-91 2 -139 -63q-32 -43 -40 -111h356q-8 71 -40 111q-48 65 -137 63z" />
    <glyph glyph-name="edieresis" unicode="&#xeb;" horiz-adv-x="591" 
d="M240 740v-80h-80v80h80zM431 740v-80h-80v80h80zM116 246q5 -82 41 -130q47 -64 139 -64q119 0 180 104l56 -36q-35 -67 -96 -101t-138 -34q-59 0 -111.5 22.5t-85.5 65.5q-61 77 -61 195q0 123 61 200q71 87 195 87q123 0 195 -87q66 -84 59 -222h-434zM296 488
q-91 2 -139 -63q-32 -43 -40 -111h356q-8 71 -40 111q-48 65 -137 63z" />
    <glyph glyph-name="igrave" unicode="&#xec;" horiz-adv-x="233" 
d="M219 606l23 56l-227 94l-23 -56zM80 540h73v-540h-73v540z" />
    <glyph glyph-name="iacute" unicode="&#xed;" horiz-adv-x="233" 
d="M14 606l227 94l-22 56l-228 -94zM80 540h73v-540h-73v540z" />
    <glyph glyph-name="icircumflex" unicode="&#xee;" horiz-adv-x="233" 
d="M9 606l111 72l111 -72l31 52l-142 92l-142 -92zM80 540h73v-540h-73v540z" />
    <glyph glyph-name="idieresis" unicode="&#xef;" horiz-adv-x="233" 
d="M-19 740h80v-80h-80v80zM172 740h80v-80h-80v80zM80 540h73v-540h-73v540z" />
    <glyph glyph-name="eth" unicode="&#xf0;" horiz-adv-x="582" 
d="M479 599q39 -61 51 -136t12 -209q0 -121 -63 -191q-62 -80 -187 -78q-118 -2 -189 78q-61 69 -63 189q2 120 63 188q68 79 189 79q99 0 156 -57q13 -9 20 -18q-9 66 -40 115q-27 43 -66 72l-53 -68l-49 39l47 59q-39 16 -87 19l11 62q66 -3 118 -27l59 75l49 -39l-53 -67
q45 -34 75 -85zM457 217q12 83 -23 143q-37 64 -111 77q-76 16 -133 -28q-51 -39 -65 -122q-12 -82 23 -143q36 -62 112 -77q78 -15 133 28q53 42 64 122z" />
    <glyph glyph-name="ntilde" unicode="&#xf1;" 
d="M215 638h-50q-9 35 7 61q17 30 52 34q38 6 88 -16q6 -3 21 -10t21 -9t15.5 -4.5t17.5 -1.5q17 1 22.5 14.5t-0.5 24.5h50q9 -35 -7 -61q-17 -30 -52 -34q-38 -6 -88 16q-6 3 -21 10t-21 9t-15.5 4.5t-17.5 1.5q-17 -1 -22.5 -14.5t0.5 -24.5zM450 510q51 -38 68 -100
t16 -148v-262h-74v260q0 72 -13 119t-50 75q-44 32 -105 29q-56 -2 -92 -35q-39 -34 -50 -93q-6 -28 -6 -77v-278h-74v540h66v-76q11 17 26 32q51 53 135 56q92 7 153 -42z" />
    <glyph glyph-name="ograve" unicode="&#xf2;" horiz-adv-x="592" 
d="M411 606l23 56l-227 94l-23 -56zM296 -15q-126 0 -195 88q-61 79 -61 198q0 120 61 197q69 87 195 87q59 0 110.5 -22.5t84.5 -64.5q61 -76 61 -197q0 -122 -61 -198q-69 -88 -195 -88zM160 118q48 -63 136 -63q90 0 136 63q42 54 42 153q0 98 -42 152q-45 62 -136 62
q-89 0 -136 -62q-42 -54 -42 -152q0 -99 42 -153z" />
    <glyph glyph-name="oacute" unicode="&#xf3;" horiz-adv-x="592" 
d="M181 606l227 94l-23 56l-227 -94zM296 -15q-126 0 -195 88q-61 76 -61 198q0 121 61 197q33 42 84.5 64.5t110.5 22.5q126 0 195 -87q61 -77 61 -197q0 -119 -61 -198q-69 -88 -195 -88zM432 118q42 54 42 153q0 98 -42 152q-47 62 -136 62q-91 0 -136 -62
q-42 -54 -42 -152q0 -99 42 -153q46 -63 136 -63q88 0 136 63z" />
    <glyph glyph-name="ocircumflex" unicode="&#xf4;" horiz-adv-x="592" 
d="M185 606l111 72l111 -72l31 52l-142 92l-142 -92zM296 -15q-126 0 -195 88q-61 76 -61 198q0 121 61 197q33 42 84.5 64.5t110.5 22.5q126 0 195 -87q61 -77 61 -197q0 -119 -61 -198q-69 -88 -195 -88zM432 118q42 54 42 153q0 98 -42 152q-47 62 -136 62
q-91 0 -136 -62q-42 -54 -42 -152q0 -99 42 -153q46 -63 136 -63q88 0 136 63z" />
    <glyph glyph-name="otilde" unicode="&#xf5;" horiz-adv-x="592" 
d="M443 731q9 -34 -6 -61q-18 -30 -52 -34q-38 -6 -88 16q-7 3 -22 9.5t-21 9t-15.5 5t-17.5 1.5q-17 -1 -22 -14.5t1 -24.5h-51q-7 35 7 61q18 30 52 34q38 6 88 -16q7 -3 18 -8l16.5 -7.5t13.5 -5.5t14.5 -4t13.5 0q17 1 22 14.5t-1 24.5h50zM296 -15q-126 0 -195 88
q-61 76 -61 198q0 121 61 197q33 42 84.5 64.5t110.5 22.5q126 0 195 -87q61 -77 61 -197q0 -119 -61 -198q-69 -88 -195 -88zM432 118q42 54 42 153q0 98 -42 152q-47 62 -136 62q-91 0 -136 -62q-42 -54 -42 -152q0 -99 42 -153q46 -63 136 -63q88 0 136 63z" />
    <glyph glyph-name="odieresis" unicode="&#xf6;" horiz-adv-x="592" 
d="M161 740h80v-80h-80v80zM351 740h80v-80h-80v80zM296 -15q-126 0 -195 88q-61 76 -61 198q0 121 61 197q33 42 84.5 64.5t110.5 22.5q126 0 195 -87q61 -77 61 -197q0 -119 -61 -198q-69 -88 -195 -88zM432 118q42 54 42 153q0 98 -42 152q-47 62 -136 62q-91 0 -136 -62
q-42 -54 -42 -152q0 -99 42 -153q46 -63 136 -63q88 0 136 63z" />
    <glyph glyph-name="oslash" unicode="&#xf8;" horiz-adv-x="592" 
d="M572 495l-59 -59q39 -69 39 -165q0 -119 -61 -198q-69 -88 -195 -88q-104 0 -172 63l-54 -53l-50 50l59 59q-39 69 -39 167q0 121 61 197q33 42 84.5 64.5t110.5 22.5q104 0 173 -63l53 53zM118 271q0 -64 18 -110l281 279q-47 45 -121 45q-91 0 -136 -62
q-42 -54 -42 -152zM474 271q0 62 -18 109l-280 -280q47 -45 120 -45q88 0 136 63q42 54 42 153z" />
    <glyph glyph-name="ugrave" unicode="&#xf9;" 
d="M427 662l-23 -56l-227 94l23 56zM450 540h74v-540h-66v76q-11 -17 -26 -32q-51 -53 -135 -56q-92 -7 -153 42q-51 38 -68 100t-16 148v262h74v-260q0 -72 13 -119t50 -75q44 -32 105 -29q56 2 92 35q39 34 50 93q6 28 6 77v278z" />
    <glyph glyph-name="uacute" unicode="&#xfa;" 
d="M419 700l-227 -94l-23 56l227 94zM450 540h74v-540h-66v76q-11 -17 -26 -32q-51 -53 -135 -56q-92 -7 -153 42q-51 38 -68 100t-16 148v262h74v-260q0 -72 13 -119t50 -75q44 -32 105 -29q56 2 92 35q39 34 50 93q6 28 6 77v278z" />
    <glyph glyph-name="ucircumflex" unicode="&#xfb;" 
d="M282 678l-110 -72l-32 52l142 92l142 -92l-31 -52zM450 540h74v-540h-66v76q-11 -17 -26 -32q-51 -53 -135 -56q-92 -7 -153 42q-51 38 -68 100t-16 148v262h74v-260q0 -72 13 -119t50 -75q44 -32 105 -29q56 2 92 35q39 34 50 93q6 28 6 77v278z" />
    <glyph glyph-name="udieresis" unicode="&#xfc;" 
d="M226 740v-80h-80v80h80zM417 740v-80h-80v80h80zM450 540h74v-540h-66v76q-11 -17 -26 -32q-51 -53 -135 -56q-92 -7 -153 42q-51 38 -68 100t-16 148v262h74v-260q0 -72 13 -119t50 -75q44 -32 105 -29q56 2 92 35q39 34 50 93q6 28 6 77v278z" />
    <glyph glyph-name="yacute" unicode="&#xfd;" horiz-adv-x="549" 
d="M188 606l227 94l-23 56l-227 -94zM464 539h75l-248 -645q-29 -79 -73 -111q-31 -23 -94 -23l-14 1v71l18 -2q36 -2 55 12q15 12 29 40t42 103l-234 555h76l193 -461z" />
    <glyph glyph-name="thorn" unicode="&#xfe;" horiz-adv-x="609" 
d="M510 468q59 -75 59 -197q0 -123 -59 -199q-69 -87 -187 -87q-116 0 -179 80v-305h-74v960h74v-243q70 78 182 78q117 0 184 -87zM451 118q40 53 40 153q0 97 -41 152q-46 64 -136 64q-88 0 -134 -60q-44 -56 -44 -156q0 -102 44 -157q47 -61 135 -61q89 0 136 65z" />
    <glyph glyph-name="ydieresis" unicode="&#xff;" horiz-adv-x="549" 
d="M145 740h80v-80h-80v80zM335 740h80v-80h-80v80zM464 539h75l-248 -645q-29 -79 -73 -111q-31 -23 -94 -23l-14 1v71l18 -2q36 -2 55 12q15 12 29 40t42 103l-234 555h76l193 -461z" />
    <glyph glyph-name="Amacron" unicode="&#x100;" horiz-adv-x="634" 
d="M428 903v-63h-251v63h251zM537 0l-49 142h-342l-49 -142h-77l248 720h98l248 -720h-77zM170 211h294l-148 426z" />
    <glyph glyph-name="amacron" unicode="&#x101;" horiz-adv-x="556" 
d="M174 723h251v-63h-251v63zM496 0h-66v87q-66 -102 -213 -102q-78 0 -127.5 44.5t-49.5 118.5q0 101 95 149q23 12 59.5 21.5t62 14t83.5 12.5t81 12q-1 63 -39 95t-101 32q-100 0 -158 -71l-48 50q77 92 215 92q83 0 141 -51q65 -55 65 -171v-333zM401 143q14 28 18 59.5
t4 92.5q-150 -23 -187 -32q-54 -11 -88 -39t-34 -69q0 -47 32 -75.5t83 -28.5q124 0 172 92z" />
    <glyph glyph-name="Abreve" unicode="&#x102;" horiz-adv-x="634" 
d="M305 780q-53 0 -91 38t-38 91h61q0 -28 20 -48t48 -20t48 20t20 48h61q0 -53 -38 -91t-91 -38zM537 0l-49 142h-342l-49 -142h-77l248 720h98l248 -720h-77zM170 211h294l-148 426z" />
    <glyph glyph-name="abreve" unicode="&#x103;" horiz-adv-x="556" 
d="M363 729h61q0 -53 -37.5 -91t-91.5 -38q-53 0 -91 38t-38 91h61q0 -28 20 -48t48 -20t48 20t20 48zM496 0h-66v87q-66 -102 -213 -102q-78 0 -127.5 44.5t-49.5 118.5q0 101 95 149q23 12 59.5 21.5t62 14t83.5 12.5t81 12q-1 63 -39 95t-101 32q-100 0 -158 -71l-48 50
q77 92 215 92q83 0 141 -51q65 -55 65 -171v-333zM401 143q14 28 18 59.5t4 92.5q-150 -23 -187 -32q-54 -11 -88 -39t-34 -69q0 -47 32 -75.5t83 -28.5q124 0 172 92z" />
    <glyph glyph-name="Aogonek" unicode="&#x104;" horiz-adv-x="634" 
d="M584 -156l33 -40q-21 -24 -46 -35q-30 -13 -60.5 -6.5t-49.5 29.5q-39 40 -17 105q22 66 87 119l-43 126h-342l-49 -142h-77l248 720h98l248 -720h-16q-33 -25 -57 -55q-28 -34 -39 -67q-9 -30 6 -45q29 -30 76 11zM170 211h294l-148 426z" />
    <glyph glyph-name="aogonek" unicode="&#x105;" horiz-adv-x="556" 
d="M501 -156l33 -40q-18 -23 -46 -35q-29 -13 -60 -6.5t-49 29.5q-40 40 -18 105q19 54 69 103v87q-66 -102 -213 -102q-78 0 -127.5 44.5t-49.5 118.5q0 101 95 149q23 12 59.5 21.5t62 14t83.5 12.5t81 12q-1 63 -39 95t-101 32q-100 0 -158 -71l-48 50q77 92 215 92
q83 0 141 -51q65 -55 65 -171v-306l19 -27q-33 -25 -57 -55q-29 -38 -38 -67q-10 -29 6 -45q18 -15 37.5 -10.5t37.5 21.5zM401 143q14 28 18 59.5t4 92.5q-150 -23 -187 -32q-54 -11 -88 -39t-34 -69q0 -47 32 -75.5t83 -28.5q124 0 172 92z" />
    <glyph glyph-name="Cacute" unicode="&#x106;" horiz-adv-x="735" 
d="M273 786l227 94l-22 56l-227 -94zM613 235l73 -21q-17 -62 -57 -114q-90 -115 -254 -115q-162 0 -253 115q-81 104 -79 260q4 164 79 260q88 115 253 115q78 0 144.5 -29.5t109.5 -85.5q44 -58 63 -133l-76 -12q-15 59 -46 100q-65 87 -195 89q-58 1 -109.5 -22.5
t-83.5 -66.5q-60 -77 -60 -215t60 -216q31 -43 83 -65.5t110 -22.5q59 -1 111 22t84 66q28 38 43 91z" />
    <glyph glyph-name="cacute" unicode="&#x107;" horiz-adv-x="554" 
d="M191 606l227 94l-22 56l-228 -94zM519 420l-69 -29q-5 11 -19 31q-47 63 -136 63t-135 -63q-40 -51 -42 -152q2 -101 42 -152q47 -62 135 -62q89 0 136 62q8 11 18 30l70 -30q-13 -27 -29 -45q-69 -88 -195 -88q-125 0 -194 88q-59 75 -61 197q2 122 61 198q70 87 194 87
q125 0 195 -87q19 -24 29 -48z" />
    <glyph glyph-name="Cdotaccent" unicode="&#x10a;" horiz-adv-x="735" 
d="M335 945h85v-85h-85v85zM613 235l73 -21q-17 -62 -57 -114q-90 -115 -254 -115q-162 0 -253 115q-81 104 -79 260q4 164 79 260q88 115 253 115q78 0 144.5 -29.5t109.5 -85.5q44 -58 63 -133l-76 -12q-15 59 -46 100q-65 87 -195 89q-58 1 -109.5 -22.5t-83.5 -66.5
q-60 -77 -60 -215t60 -216q31 -43 83 -65.5t110 -22.5q59 -1 111 22t84 66q28 38 43 91z" />
    <glyph glyph-name="cdotaccent" unicode="&#x10b;" horiz-adv-x="554" 
d="M261 740h85v-85h-85v85zM519 420l-69 -29q-5 11 -19 31q-47 63 -136 63t-135 -63q-40 -51 -42 -152q2 -101 42 -152q47 -62 135 -62q89 0 136 62q8 11 18 30l70 -30q-13 -27 -29 -45q-69 -88 -195 -88q-125 0 -194 88q-59 75 -61 197q2 122 61 198q70 87 194 87
q125 0 195 -87q19 -24 29 -48z" />
    <glyph glyph-name="Ccaron" unicode="&#x10c;" horiz-adv-x="735" 
d="M265 930l-31 -52l142 -92l142 92l-31 52l-111 -72zM613 235l73 -21q-17 -62 -57 -114q-90 -115 -254 -115q-162 0 -253 115q-81 104 -79 260q4 164 79 260q88 115 253 115q78 0 144.5 -29.5t109.5 -85.5q44 -58 63 -133l-76 -12q-15 59 -46 100q-65 87 -195 89
q-58 1 -109.5 -22.5t-83.5 -66.5q-60 -77 -60 -215t60 -216q31 -43 83 -65.5t110 -22.5q59 -1 111 22t84 66q28 38 43 91z" />
    <glyph glyph-name="ccaron" unicode="&#x10d;" horiz-adv-x="554" 
d="M190 750l-31 -52l142 -92l142 92l-32 52l-110 -72zM519 420l-69 -29q-5 11 -19 31q-47 63 -136 63t-135 -63q-40 -51 -42 -152q2 -101 42 -152q47 -62 135 -62q89 0 136 62q8 11 18 30l70 -30q-13 -27 -29 -45q-69 -88 -195 -88q-125 0 -194 88q-59 75 -61 197
q2 122 61 198q70 87 194 87q125 0 195 -87q19 -24 29 -48z" />
    <glyph glyph-name="Dcaron" unicode="&#x10e;" horiz-adv-x="671" 
d="M163 930l-32 -52l142 -92l142 92l-31 52l-111 -72zM628 357q0 172 -89 269q-84 94 -229 94l-240 1v-720h238q147 0 230 92q44 48 67 118t23 146zM550 357q-2 -141 -64 -211q-65 -73 -178 -75l-162 2v575l163 1q113 -2 175 -72q68 -77 66 -220z" />
    <glyph glyph-name="dcaron" unicode="&#x10f;" horiz-adv-x="718" 
d="M623 727h86v-126q0 -45 -22.5 -68t-63.5 -16l5 36q27 -1 35 17t6 51h-46v106zM465 477v243h74v-720h-66v76q-64 -91 -187 -91q-118 0 -187 87q-59 76 -59 199q0 122 59 197q67 87 184 87q112 0 182 -78zM429 114q44 55 44 157q0 100 -44 156q-47 60 -134 60
q-90 0 -136 -64q-41 -55 -41 -152q0 -100 40 -153q47 -65 136 -65q88 0 135 61z" />
    <glyph glyph-name="Dcroat" unicode="&#x110;" horiz-adv-x="665" 
d="M533 626q89 -97 89 -269q0 -76 -23 -146t-67 -118q-83 -92 -230 -92h-238v328h-54v63h54v329l240 -1q145 0 229 -94zM480 146q62 70 64 211q2 143 -66 220q-62 70 -175 72l-163 -1v-256h185v-63h-185v-256l162 -2q113 2 178 75z" />
    <glyph glyph-name="dcroat" unicode="&#x111;" horiz-adv-x="609" 
d="M592 656v-63h-53v-593h-66v76q-64 -91 -187 -91q-118 0 -187 87q-59 76 -59 199q0 122 59 197q67 87 184 87q112 0 182 -78v116h-123v63h123v64h74v-64h53zM429 114q44 55 44 157q0 100 -44 156q-47 60 -134 60q-90 0 -136 -64q-41 -55 -41 -152q0 -100 40 -153
q47 -65 136 -65q88 0 135 61z" />
    <glyph glyph-name="Emacron" unicode="&#x112;" horiz-adv-x="583" 
d="M422 903v-63h-251v63h251zM513 650h-370v-255h310v-70h-310v-255h370v-70h-443v720h443v-70z" />
    <glyph glyph-name="emacron" unicode="&#x113;" horiz-adv-x="591" 
d="M431 723v-63h-251v63h251zM116 246q5 -82 41 -130q47 -64 139 -64q119 0 180 104l56 -36q-35 -67 -96 -101t-138 -34q-59 0 -111.5 22.5t-85.5 65.5q-61 77 -61 195q0 123 61 200q71 87 195 87q123 0 195 -87q66 -84 59 -222h-434zM296 488q-91 2 -139 -63
q-32 -43 -40 -111h356q-8 71 -40 111q-48 65 -137 63z" />
    <glyph glyph-name="Edotaccent" unicode="&#x116;" horiz-adv-x="583" 
d="M347 920v-85h-85v85h85zM513 650h-370v-255h310v-70h-310v-255h370v-70h-443v720h443v-70z" />
    <glyph glyph-name="edotaccent" unicode="&#x117;" horiz-adv-x="591" 
d="M342 740v-85h-85v85h85zM116 246q5 -82 41 -130q47 -64 139 -64q119 0 180 104l56 -36q-35 -67 -96 -101t-138 -34q-59 0 -111.5 22.5t-85.5 65.5q-61 77 -61 195q0 123 61 200q71 87 195 87q123 0 195 -87q66 -84 59 -222h-434zM296 488q-91 2 -139 -63
q-32 -43 -40 -111h356q-8 71 -40 111q-48 65 -137 63z" />
    <glyph glyph-name="Eogonek" unicode="&#x118;" horiz-adv-x="583" 
d="M513 650h-370v-255h310v-70h-310v-255h370v-70h-20q-31 -23 -56 -55q-30 -37 -39 -67q-10 -29 6 -45q18 -15 37.5 -10.5t37.5 21.5l33 -40q-19 -24 -46 -35q-30 -13 -60 -6.5t-49 29.5q-39 41 -18 105q19 54 69 103h-338v720h443v-70z" />
    <glyph glyph-name="eogonek" unicode="&#x119;" horiz-adv-x="591" 
d="M116 246q5 -82 41 -130q47 -64 139 -64q119 0 180 104l56 -36l-3 -5h1q-13 -26 -35 -58.5t-44.5 -62.5t-27.5 -37q-33 -54 -39 -79q-8 -29 6 -45q29 -30 76 11l33 -40q-21 -24 -46 -35q-30 -12 -60 -5.5t-50 28.5q-39 44 -17 105q11 38 46 84q4 7 13 16q-42 -12 -87 -12
q-59 0 -111.5 22.5t-85.5 65.5q-61 77 -61 195q0 123 61 200q71 87 195 87q123 0 195 -87q66 -84 59 -222h-434zM296 488q-91 2 -139 -63q-32 -43 -40 -111h356q-8 71 -40 111q-48 65 -137 63z" />
    <glyph glyph-name="Ecaron" unicode="&#x11a;" horiz-adv-x="583" 
d="M439 878l-142 -92l-142 92l31 52l111 -72l110 72zM513 650h-370v-255h310v-70h-310v-255h370v-70h-443v720h443v-70z" />
    <glyph glyph-name="ecaron" unicode="&#x11b;" horiz-adv-x="591" 
d="M453 698l-142 -92l-142 92l32 52l110 -72l111 72zM116 246q5 -82 41 -130q47 -64 139 -64q119 0 180 104l56 -36q-35 -67 -96 -101t-138 -34q-59 0 -111.5 22.5t-85.5 65.5q-61 77 -61 195q0 123 61 200q71 87 195 87q123 0 195 -87q66 -84 59 -222h-434zM296 488
q-91 2 -139 -63q-32 -43 -40 -111h356q-8 71 -40 111q-48 65 -137 63z" />
    <glyph glyph-name="Gbreve" unicode="&#x11e;" horiz-adv-x="750" 
d="M378 780q-53 0 -91 38t-38 91h61q0 -28 20 -48t48 -20t48 20t20 48h61q0 -53 -38 -91t-91 -38zM440 368h266v-23q-5 -151 -78 -244q-91 -116 -253 -116q-79 0 -145.5 29.5t-107.5 86.5q-77 95 -79 259q2 161 79 259q41 57 107.5 86.5t145.5 29.5q161 0 253 -116
q23 -31 34 -56l-67 -30q-4 7 -12.5 21t-12.5 20q-33 44 -85 67t-110 23q-127 0 -195 -90q-56 -73 -60 -214q4 -141 60 -214q68 -90 195 -90q58 0 110 23t85 67q43 61 55 158h-185v64z" />
    <glyph glyph-name="gbreve" unicode="&#x11f;" horiz-adv-x="609" 
d="M316 600q-53 0 -91 38t-38 91h61q0 -28 20 -48t48 -20t48 20t20 48h61q0 -53 -37.5 -91t-91.5 -38zM473 540h66v-532q0 -82 -18 -129t-63 -82q-68 -52 -170 -52q-104 0 -166 68q-31 23 -47 51l68 33q6 -12 19 -27q44 -53 126 -53q81 0 128 40q30 25 39.5 57t9.5 94v57
q-63 -80 -179 -80q-118 0 -187 87q-59 76 -59 199q0 122 59 197q67 87 184 87q57 0 107.5 -23t82.5 -65v73zM429 114q44 55 44 157q0 100 -44 156q-47 60 -134 60q-90 0 -136 -64q-41 -55 -41 -152q0 -100 40 -153q47 -65 136 -65q88 0 135 61z" />
    <glyph glyph-name="Gdotaccent" unicode="&#x120;" horiz-adv-x="750" 
d="M415 920v-85h-86v85h86zM440 368h266v-23q-5 -151 -78 -244q-91 -116 -253 -116q-79 0 -145.5 29.5t-107.5 86.5q-77 95 -79 259q2 161 79 259q41 57 107.5 86.5t145.5 29.5q161 0 253 -116q23 -31 34 -56l-67 -30q-4 7 -12.5 21t-12.5 20q-33 44 -85 67t-110 23
q-127 0 -195 -90q-56 -73 -60 -214q4 -141 60 -214q68 -90 195 -90q58 0 110 23t85 67q43 61 55 158h-185v64z" />
    <glyph glyph-name="gdotaccent" unicode="&#x121;" horiz-adv-x="609" 
d="M357 740v-85h-86v85h86zM473 540h66v-532q0 -82 -18 -129t-63 -82q-68 -52 -170 -52q-104 0 -166 68q-31 23 -47 51l68 33q6 -12 19 -27q44 -53 126 -53q81 0 128 40q30 25 39.5 57t9.5 94v57q-63 -80 -179 -80q-118 0 -187 87q-59 76 -59 199q0 122 59 197q67 87 184 87
q57 0 107.5 -23t82.5 -65v73zM429 114q44 55 44 157q0 100 -44 156q-47 60 -134 60q-90 0 -136 -64q-41 -55 -41 -152q0 -100 40 -153q47 -65 136 -65q88 0 135 61z" />
    <glyph glyph-name="uni0122" unicode="&#x122;" horiz-adv-x="750" 
d="M440 368h266v-23q-5 -151 -78 -244q-91 -116 -253 -116q-79 0 -145.5 29.5t-107.5 86.5q-77 95 -79 259q2 161 79 259q41 57 107.5 86.5t145.5 29.5q161 0 253 -116q23 -31 34 -56l-67 -30q-4 7 -12.5 21t-12.5 20q-33 44 -85 67t-110 23q-127 0 -195 -90
q-56 -73 -60 -214q4 -141 60 -214q68 -90 195 -90q58 0 110 23t85 67q43 61 55 158h-185v64zM325 -163v83h82v-83q0 -40 -24.5 -61.5t-57.5 -21.5v39q8 0 17.5 3t18.5 14t8 27h-44z" />
    <glyph glyph-name="uni0123" unicode="&#x123;" horiz-adv-x="609" 
d="M354 683v-83h-82v83q0 40 24.5 61.5t57.5 21.5v-39q-8 0 -17.5 -3t-18.5 -14t-8 -27h44zM473 540h66v-532q0 -82 -18 -129t-63 -82q-68 -52 -170 -52q-104 0 -166 68q-31 23 -47 51l68 33q6 -12 19 -27q44 -53 126 -53q81 0 128 40q30 25 39.5 57t9.5 94v57
q-63 -80 -179 -80q-118 0 -187 87q-59 76 -59 199q0 122 59 197q67 87 184 87q57 0 107.5 -23t82.5 -65v73zM429 114q44 55 44 157q0 100 -44 156q-47 60 -134 60q-90 0 -136 -64q-41 -55 -41 -152q0 -100 40 -153q47 -65 136 -65q88 0 135 61z" />
    <glyph glyph-name="Hbar" unicode="&#x126;" horiz-adv-x="705" 
d="M695 565v-73h-80v-492h-74v273h-398v-273h-73v492h-60v73h60v155h73v-155h398v155h74v-155h80zM541 343v149h-398v-149h398z" />
    <glyph glyph-name="hbar" unicode="&#x127;" 
d="M450 510q51 -38 68 -100t16 -148v-262h-74v260q0 72 -13 119t-50 75q-44 32 -105 29q-56 -2 -92 -35q-39 -34 -50 -93q-6 -28 -6 -77v-278h-74v593h-64v63h64v64h66v-64h121v-63h-121v-129q11 17 26 32q51 53 135 56q92 7 153 -42z" />
    <glyph glyph-name="Imacron" unicode="&#x12a;" horiz-adv-x="233" 
d="M-9 903h251v-63h-251v63zM80 720h73v-720h-73v720z" />
    <glyph glyph-name="imacron" unicode="&#x12b;" horiz-adv-x="233" 
d="M-9 723h251v-63h-251v63zM80 540h73v-540h-73v540z" />
    <glyph glyph-name="Iogonek" unicode="&#x12e;" horiz-adv-x="233" 
d="M139 -156l33 -40q-19 -24 -46 -35q-30 -13 -60 -6.5t-49 29.5q-39 41 -18 105q19 59 81 114v709h73v-720q-31 -23 -56 -55q-30 -37 -39 -67q-10 -29 6 -45q18 -15 37.5 -10.5t37.5 21.5z" />
    <glyph glyph-name="iogonek" unicode="&#x12f;" horiz-adv-x="233" 
d="M153 718v-82h-73v82h73zM139 -156l33 -40q-19 -24 -46 -35q-30 -13 -60 -6.5t-49 29.5q-39 41 -18 105q19 59 81 114v529h73v-540q-31 -23 -56 -55q-30 -37 -39 -67q-10 -29 6 -45q18 -15 37.5 -10.5t37.5 21.5z" />
    <glyph glyph-name="Idotaccent" unicode="&#x130;" horiz-adv-x="233" 
d="M74 920h85v-85h-85v85zM80 720h73v-720h-73v720z" />
    <glyph glyph-name="dotlessi" unicode="&#x131;" horiz-adv-x="233" 
d="M80 540h73v-540h-73v540z" />
    <glyph glyph-name="uni0136" unicode="&#x136;" horiz-adv-x="622" 
d="M622 0h-97l-300 335h-81v-335h-74v720h74v-315h81l256 315h93l-282 -349zM375 -163q0 -40 -24.5 -61.5t-58.5 -21.5v39q8 0 17.5 3t19 14t8.5 27h-45v83h83v-83z" />
    <glyph glyph-name="uni0137" unicode="&#x137;" horiz-adv-x="498" 
d="M144 260v-260h-74v720h74v-397h57l182 217h88l-205 -249l232 -291h-88l-209 260h-57zM313 -163q0 -40 -24.5 -61.5t-57.5 -21.5v39q8 0 17.5 3t18.5 14t8 27h-44v83h82v-83z" />
    <glyph glyph-name="Lacute" unicode="&#x139;" horiz-adv-x="510" 
d="M103 786l227 94l-23 56l-227 -94zM153 720h-73v-720h415v70h-342v650z" />
    <glyph glyph-name="lacute" unicode="&#x13a;" horiz-adv-x="213" 
d="M4 786l227 94l-22 56l-228 -94zM70 0h73v735h-73v-735z" />
    <glyph glyph-name="uni013B" unicode="&#x13b;" horiz-adv-x="510" 
d="M153 720h-73v-720h415v70h-342v650zM329 -163q0 -40 -24.5 -61.5t-58.5 -21.5v39q8 0 17.5 3t19 14t8.5 27h-45v83h83v-83z" />
    <glyph glyph-name="uni013C" unicode="&#x13c;" horiz-adv-x="213" 
d="M70 0h73v735h-73v-735zM149 -163q0 -40 -24.5 -61.5t-57.5 -21.5v39q8 0 17.5 3t18.5 14t8 27h-44v83h82v-83z" />
    <glyph glyph-name="Lcaron" unicode="&#x13d;" horiz-adv-x="510" 
d="M406 601q0 -45 -22 -68t-63 -16l4 36q27 -1 35 16.5t6 51.5h-45v106h85v-126zM153 720h-73v-720h415v70h-342v650z" />
    <glyph glyph-name="lcaron" unicode="&#x13e;" horiz-adv-x="331" 
d="M70 0h73v735h-73v-735zM322 601q0 -45 -22 -68t-63 -16l4 36q27 -1 35 16.5t6 51.5h-45v106h85v-126z" />
    <glyph glyph-name="Lslash" unicode="&#x141;" horiz-adv-x="517" 
d="M160 70h342v-70h-415v230l-45 -26v82l45 26v408h73v-366l177 101v-81l-177 -102v-202z" />
    <glyph glyph-name="lslash" unicode="&#x142;" horiz-adv-x="376" 
d="M336 493v-81l-111 -64v-348h-73v306l-112 -64v82l112 64v347h73v-305z" />
    <glyph glyph-name="Nacute" unicode="&#x143;" horiz-adv-x="684" 
d="M262 786l227 94l-22 56l-228 -94zM144 720l396 -590v590h74v-720h-74l-396 591v-591h-74v720h74z" />
    <glyph glyph-name="nacute" unicode="&#x144;" 
d="M439 700l-227 -94l-23 56l227 94zM450 510q51 -38 68 -100t16 -148v-262h-74v260q0 72 -13 119t-50 75q-44 32 -105 29q-56 -2 -92 -35q-39 -34 -50 -93q-6 -28 -6 -77v-278h-74v540h66v-76q11 17 26 32q51 53 135 56q92 7 153 -42z" />
    <glyph glyph-name="uni0145" unicode="&#x145;" horiz-adv-x="684" 
d="M144 720l396 -590v590h74v-720h-74l-396 591v-591h-74v720h74zM394 -163q0 -40 -24.5 -61.5t-58.5 -21.5v39q8 0 17.5 3t18.5 14t8 27h-44v83h83v-83z" />
    <glyph glyph-name="uni0146" unicode="&#x146;" 
d="M450 510q51 -38 68 -100t16 -148v-262h-74v260q0 72 -13 119t-50 75q-44 32 -105 29q-56 -2 -92 -35q-39 -34 -50 -93q-6 -28 -6 -77v-278h-74v540h66v-76q11 17 26 32q51 53 135 56q92 7 153 -42zM262 -163v83h83v-83q0 -40 -24.5 -61.5t-58.5 -21.5v39q8 0 17.5 3
t18.5 14t8 27h-44z" />
    <glyph glyph-name="Ncaron" unicode="&#x147;" horiz-adv-x="684" 
d="M244 930l-31 -52l142 -92l142 92l-31 52l-111 -72zM144 720l396 -590v590h74v-720h-74l-396 591v-591h-74v720h74z" />
    <glyph glyph-name="ncaron" unicode="&#x148;" 
d="M453 698l-142 -92l-142 92l31 52l111 -72l110 72zM450 510q51 -38 68 -100t16 -148v-262h-74v260q0 72 -13 119t-50 75q-44 32 -105 29q-56 -2 -92 -35q-39 -34 -50 -93q-6 -28 -6 -77v-278h-74v540h66v-76q11 17 26 32q51 53 135 56q92 7 153 -42z" />
    <glyph glyph-name="Eng" unicode="&#x14a;" horiz-adv-x="684" 
d="M540 720h74v-813q0 -89 -67 -104q-46 -7 -87 5v60q46 -6 67.5 7.5t21.5 65.5q0 33 -16 69l-389 581v-591h-74v720h74l396 -590v590z" />
    <glyph glyph-name="eng" unicode="&#x14b;" 
d="M450 510q51 -38 68 -100t16 -148v-355q0 -89 -70 -104q-43 -6 -85 5v59q44 -7 62.5 7.5t18.5 66.5v319q0 72 -13 119t-50 75q-44 32 -105 29q-56 -2 -92 -35q-39 -34 -50 -93q-6 -28 -6 -77v-278h-74v540h66v-76q11 17 26 32q51 53 135 56q92 7 153 -42z" />
    <glyph glyph-name="Omacron" unicode="&#x14c;" horiz-adv-x="750" 
d="M243 903h251v-63h-251v63zM375 -15q-167 0 -253 115q-77 99 -79 260q0 159 79 260q43 57 110 86.5t143 27.5q166 -2 254 -114q74 -95 78 -260q0 -159 -78 -260q-90 -115 -254 -115zM375 56q59 0 110.5 22.5t83.5 66.5q58 76 60 215q0 137 -60 214q-32 44 -84 67.5
t-110 22.5q-59 -1 -111 -24t-83 -66q-58 -73 -60 -214q0 -138 60 -215q31 -44 83.5 -67t110.5 -22z" />
    <glyph glyph-name="omacron" unicode="&#x14d;" horiz-adv-x="592" 
d="M171 723h250v-63h-250v63zM296 -15q-126 0 -195 88q-61 76 -61 198q0 121 61 197q33 42 84.5 64.5t110.5 22.5q126 0 195 -87q61 -77 61 -197q0 -119 -61 -198q-69 -88 -195 -88zM432 118q42 54 42 153q0 98 -42 152q-47 62 -136 62q-91 0 -136 -62q-42 -54 -42 -152
q0 -99 42 -153q46 -63 136 -63q88 0 136 63z" />
    <glyph glyph-name="Ohungarumlaut" unicode="&#x150;" horiz-adv-x="750" 
d="M309 792l106 104l-39 40l-106 -103zM455 792l106 104l-39 40l-106 -103zM375 -15q-167 0 -253 115q-77 99 -79 260q0 159 79 260q43 57 110 86.5t143 27.5q166 -2 254 -114q74 -95 78 -260q0 -159 -78 -260q-90 -115 -254 -115zM375 56q59 0 110.5 22.5t83.5 66.5
q58 76 60 215q0 137 -60 214q-32 44 -84 67.5t-110 22.5q-59 -1 -111 -24t-83 -66q-58 -73 -60 -214q0 -138 60 -215q31 -44 83.5 -67t110.5 -22z" />
    <glyph glyph-name="ohungarumlaut" unicode="&#x151;" horiz-adv-x="592" 
d="M219 612l106 104l-39 40l-106 -103zM365 612l106 104l-39 40l-106 -103zM296 -15q-126 0 -195 88q-61 76 -61 198q0 121 61 197q33 42 84.5 64.5t110.5 22.5q126 0 195 -87q61 -77 61 -197q0 -119 -61 -198q-69 -88 -195 -88zM432 118q42 54 42 153q0 98 -42 152
q-47 62 -136 62q-91 0 -136 -62q-42 -54 -42 -152q0 -99 42 -153q46 -63 136 -63q88 0 136 63z" />
    <glyph glyph-name="OE" unicode="&#x152;" horiz-adv-x="1149" 
d="M1079 650h-370v-255h310v-70h-310v-255h370v-70h-444v108l-6 -8q-90 -115 -254 -115q-167 0 -253 115q-77 99 -79 260q0 159 79 260q43 57 110 86.5t143 27.5q166 -2 254 -114l6 -8v108h444v-70zM569 145q58 76 60 215q0 137 -60 214q-32 44 -84 67.5t-110 22.5
q-59 -1 -111 -24t-83 -66q-58 -73 -60 -214q0 -138 60 -215q31 -44 83.5 -67t110.5 -22q59 0 110.5 22.5t83.5 66.5z" />
    <glyph glyph-name="oe" unicode="&#x153;" horiz-adv-x="1025" 
d="M551 246v-5q5 -77 41 -125q47 -64 138 -64q120 0 181 104l56 -36q-73 -135 -234 -135q-128 0 -198 88q-16 22 -22 33q-6 -11 -22 -33q-69 -88 -195 -88t-195 88q-61 76 -61 198q0 121 61 197q33 42 84.5 64.5t110.5 22.5q126 0 195 -87q16 -22 22 -33q14 22 22 33
q71 87 195 87t195 -87q66 -84 59 -222h-433zM730 488q-90 2 -138 -63q-31 -41 -40 -111h355q-8 70 -39 111q-48 65 -138 63zM432 118q42 54 42 153q0 98 -42 152q-47 62 -136 62q-91 0 -136 -62q-42 -54 -42 -152q0 -99 42 -153q46 -63 136 -63q88 0 136 63z" />
    <glyph glyph-name="Racute" unicode="&#x154;" horiz-adv-x="664" 
d="M426 880l-227 -94l-23 56l227 94zM604 0h-85l-133 275q-5 -1 -16 -1h-227v-274h-73v720h300q38 0 75 -14q51 -17 88 -58q61 -64 61 -151q0 -80 -54 -144q-34 -40 -79 -59zM369 344q69 0 114 56q36 45 35 97q-2 63 -44 107q-43 45 -105 45h-226v-305h226z" />
    <glyph glyph-name="racute" unicode="&#x155;" horiz-adv-x="406" 
d="M320 700l-227 -94l-23 56l227 94zM308 555q39 0 73 -10v-71q-35 14 -78 12q-66 -2 -107 -41q-24 -23 -36 -55t-14 -58t-2 -75v-257h-74v540h66v-81q15 26 45 51q51 43 127 45z" />
    <glyph glyph-name="uni0156" unicode="&#x156;" horiz-adv-x="664" 
d="M604 0h-85l-133 275q-5 -1 -16 -1h-227v-274h-73v720h300q38 0 75 -14q51 -17 88 -58q61 -64 61 -151q0 -80 -54 -144q-34 -40 -79 -59zM369 344q69 0 114 56q36 45 35 97q-2 63 -44 107q-43 45 -105 45h-226v-305h226zM267 -163v83h83v-83q0 -40 -24.5 -61.5
t-58.5 -21.5v39q8 0 17.5 3t18.5 14t8 27h-44z" />
    <glyph glyph-name="uni0157" unicode="&#x157;" horiz-adv-x="406" 
d="M308 555q39 0 73 -10v-71q-35 14 -78 12q-66 -2 -107 -41q-24 -23 -36 -55t-14 -58t-2 -75v-257h-74v540h66v-81q15 26 45 51q51 43 127 45zM66 -163v83h82v-83q0 -40 -24.5 -61.5t-57.5 -21.5v39q8 0 17.5 3t18.5 14t8 27h-44z" />
    <glyph glyph-name="Rcaron" unicode="&#x158;" horiz-adv-x="664" 
d="M440 878l-142 -92l-142 92l32 52l110 -72l111 72zM604 0h-85l-133 275q-5 -1 -16 -1h-227v-274h-73v720h300q38 0 75 -14q51 -17 88 -58q61 -64 61 -151q0 -80 -54 -144q-34 -40 -79 -59zM369 344q69 0 114 56q36 45 35 97q-2 63 -44 107q-43 45 -105 45h-226v-305h226z
" />
    <glyph glyph-name="rcaron" unicode="&#x159;" horiz-adv-x="406" 
d="M354 698l-142 -92l-142 92l31 52l111 -72l111 72zM308 555q39 0 73 -10v-71q-35 14 -78 12q-66 -2 -107 -41q-24 -23 -36 -55t-14 -58t-2 -75v-257h-74v540h66v-81q15 26 45 51q51 43 127 45z" />
    <glyph glyph-name="Sacute" unicode="&#x15a;" horiz-adv-x="611" 
d="M204 786l227 94l-22 56l-227 -94zM576 539l-73 -20q-32 80 -89 115q-50 30 -112 30q-60 2 -106 -23q-27 -15 -43 -41t-16 -54q0 -42 27 -68q28 -29 101 -51l129 -38q82 -23 130 -69q59 -57 57 -133q0 -44 -22 -86.5t-59 -68.5q-67 -47 -185 -47q-151 0 -227 100
q-41 52 -58 131l74 20q11 -63 43 -105q55 -76 171 -76q86 0 138 37q47 34 47 97q0 47 -33 78q-34 34 -94 50l-132 39q-92 29 -133 67q-52 48 -52 125q0 48 29 91.5t74 65.5q56 30 140 30q86 0 149 -38q87 -50 125 -158z" />
    <glyph glyph-name="sacute" unicode="&#x15b;" horiz-adv-x="537" 
d="M172 606l227 94l-23 56l-227 -94zM495 399l-71 -18q-21 60 -72 86q-36 21 -85 21q-44 1 -83 -15q-47 -23 -47 -63q0 -32 25 -50q19 -15 64 -28q14 -4 110 -30q65 -17 104 -49q56 -44 56 -110q0 -35 -18.5 -69t-49.5 -52q-55 -36 -148 -36q-120 0 -183 69
q-16 18 -27.5 40.5t-16 36t-13.5 45.5l71 18q9 -58 38 -93q45 -49 131 -49q72 0 110 26q36 23 36 65q0 35 -31 56q-25 18 -80 34q-28 8 -62.5 18t-49.5 14q-69 23 -99 51q-37 33 -37 92q0 40 24.5 74t63.5 51q48 23 115 21q62 0 114 -26q38 -19 69 -55.5t42 -74.5z" />
    <glyph glyph-name="Scedilla" unicode="&#x15e;" horiz-adv-x="611" 
d="M524 320q59 -57 57 -133q0 -44 -22 -86.5t-59 -68.5q-61 -43 -159 -46l-16 -45q32 -16 48 -43q12 -22 10.5 -49.5t-15.5 -47.5q-30 -46 -87 -41q-27 3 -54 16l19 50q26 -8 36 -8q25 -2 36 16q11 19 3 37l-4 8t-6.5 7t-7 5t-9.5 4.5t-9.5 3.5t-12.5 4.5t-13 4.5l28 78
q-131 10 -199 99q-41 52 -58 131l74 20q11 -63 43 -105q55 -76 171 -76q86 0 138 37q47 34 47 97q0 47 -33 78q-34 34 -94 50l-132 39q-92 29 -133 67q-52 48 -52 125q0 48 29 91.5t74 65.5q56 30 140 30q86 0 149 -38q87 -50 125 -158l-73 -20q-32 80 -89 115
q-50 30 -112 30q-60 2 -106 -23q-27 -15 -43 -41t-16 -54q0 -42 27 -68q28 -29 101 -51l129 -38q82 -23 130 -69z" />
    <glyph glyph-name="scedilla" unicode="&#x15f;" horiz-adv-x="537" 
d="M440 253q56 -44 56 -110q0 -35 -18.5 -69t-49.5 -52q-50 -32 -121 -35l-17 -46q33 -16 48 -43q13 -22 11.5 -49.5t-16.5 -47.5q-29 -46 -87 -41q-25 3 -54 16l19 50q28 -8 37 -8q25 -2 36 16q11 19 3 37l-4 8t-6.5 7l-7.5 5t-9.5 4.5t-10 4t-12.5 4.5t-13 4l29 79
q-100 7 -156 68q-16 18 -27.5 40.5t-16 36t-13.5 45.5l71 18q9 -58 38 -93q45 -49 131 -49q72 0 110 26q36 23 36 65q0 35 -31 56q-25 18 -80 34q-28 8 -62.5 18t-49.5 14q-69 23 -99 51q-37 33 -37 92q0 40 24.5 74t63.5 51q48 23 115 21q62 0 114 -26q38 -19 69 -55.5
t42 -74.5l-71 -18q-21 60 -72 86q-36 21 -85 21q-44 1 -83 -15q-47 -23 -47 -63q0 -32 25 -50q19 -15 64 -28q14 -4 110 -30q65 -17 104 -49z" />
    <glyph glyph-name="Scaron" unicode="&#x160;" horiz-adv-x="611" 
d="M202 930l-31 -52l142 -92l142 92l-32 52l-110 -72zM576 539l-73 -20q-32 80 -89 115q-50 30 -112 30q-60 2 -106 -23q-27 -15 -43 -41t-16 -54q0 -42 27 -68q28 -29 101 -51l129 -38q82 -23 130 -69q59 -57 57 -133q0 -44 -22 -86.5t-59 -68.5q-67 -47 -185 -47
q-151 0 -227 100q-41 52 -58 131l74 20q11 -63 43 -105q55 -76 171 -76q86 0 138 37q47 34 47 97q0 47 -33 78q-34 34 -94 50l-132 39q-92 29 -133 67q-52 48 -52 125q0 48 29 91.5t74 65.5q56 30 140 30q86 0 149 -38q87 -50 125 -158z" />
    <glyph glyph-name="scaron" unicode="&#x161;" horiz-adv-x="537" 
d="M163 750l-31 -52l142 -92l142 92l-32 52l-110 -72zM495 399l-71 -18q-21 60 -72 86q-36 21 -85 21q-44 1 -83 -15q-47 -23 -47 -63q0 -32 25 -50q19 -15 64 -28q14 -4 110 -30q65 -17 104 -49q56 -44 56 -110q0 -35 -18.5 -69t-49.5 -52q-55 -36 -148 -36q-120 0 -183 69
q-16 18 -27.5 40.5t-16 36t-13.5 45.5l71 18q9 -58 38 -93q45 -49 131 -49q72 0 110 26q36 23 36 65q0 35 -31 56q-25 18 -80 34q-28 8 -62.5 18t-49.5 14q-69 23 -99 51q-37 33 -37 92q0 40 24.5 74t63.5 51q48 23 115 21q62 0 114 -26q38 -19 69 -55.5t42 -74.5z" />
    <glyph glyph-name="uni0162" unicode="&#x162;" horiz-adv-x="597" 
d="M335 0h-9l-23 -59q33 -16 48 -43q13 -22 11.5 -49.5t-16.5 -47.5q-29 -46 -87 -41q-25 3 -54 16l19 50q28 -8 37 -8q25 -2 36 16q11 19 3 37l-4 8t-6.5 7l-7.5 5t-9.5 4.5t-10 4t-12.5 4.5t-13 4l35 92h-10v650h-252v70h577v-70h-252v-650z" />
    <glyph glyph-name="uni0163" unicode="&#x163;" horiz-adv-x="421" 
d="M199 477v-278v-18v-17t0.5 -13.5t1 -14t1.5 -11t3 -11.5t5 -10q18 -37 65 -42t89 4v-66q-60 -15 -116 -4q-1 0 -3 0.5t-3 0.5l-20 -57q33 -16 48 -43q13 -22 11 -49.5t-16 -47.5q-30 -46 -87 -41q-28 3 -54 16l19 50q28 -8 37 -8q25 -2 35 16q12 19 4 37q-2 4 -4.5 8
t-7 7t-7 5t-9.5 4.5t-10 3.5t-12.5 4.5t-12.5 4.5l38 107q-33 19 -50 53q-19 40 -19 129v281h-115v63h115v150h74v-150h165v-63h-165z" />
    <glyph glyph-name="Tcaron" unicode="&#x164;" horiz-adv-x="597" 
d="M420 878l-142 -92l-142 92l32 52l110 -72l111 72zM587 720v-70h-252v-650h-73v650h-252v70h577z" />
    <glyph glyph-name="tcaron" unicode="&#x165;" horiz-adv-x="401" 
d="M309 824h86v-126q0 -45 -22.5 -68t-63.5 -16l5 36q27 -1 35 17t6 51h-46v106zM199 690v-150h165v-63h-165v-278v-18v-17t0.5 -13.5t1 -14t1.5 -11t3 -11.5t5 -10q18 -37 65 -42t89 4v-66q-60 -15 -116 -4q-76 13 -104 71q-19 40 -19 129v281h-115v63h115v150h74z" />
    <glyph glyph-name="Tbar" unicode="&#x166;" horiz-adv-x="597" 
d="M587 650h-252v-253h183v-74h-183v-323h-73v323h-184v74h184v253h-252v70h577v-70z" />
    <glyph glyph-name="tbar" unicode="&#x167;" horiz-adv-x="421" 
d="M199 242v-43v-18v-17t0.5 -13.5t1 -14t1.5 -11t3 -11.5t5 -10q18 -37 65 -42t89 4v-66q-60 -15 -116 -4q-76 13 -104 71q-19 40 -19 129v46h-115v63h115v172h-115v63h115v150h74v-150h165v-63h-165v-172h172v-63h-172z" />
    <glyph glyph-name="Umacron" unicode="&#x16a;" horiz-adv-x="702" 
d="M235 903h251v-63h-251v63zM632 720v-461q0 -98 -62 -174q-39 -48 -97 -74.5t-122 -25.5q-63 -1 -121 25.5t-97 74.5q-63 78 -63 174v461h74v-426q0 -57 8 -91t37 -72q29 -36 72 -56.5t90 -20.5t90.5 20.5t71.5 56.5t36.5 71t8.5 92v426h74z" />
    <glyph glyph-name="umacron" unicode="&#x16b;" 
d="M420 723v-63h-251v63h251zM450 540h74v-540h-66v76q-11 -17 -26 -32q-51 -53 -135 -56q-92 -7 -153 42q-51 38 -68 100t-16 148v262h74v-260q0 -72 13 -119t50 -75q44 -32 105 -29q56 2 92 35q39 34 50 93q6 28 6 77v278z" />
    <glyph glyph-name="Uring" unicode="&#x16e;" horiz-adv-x="702" 
d="M361 956q49 0 83.5 -34.5t34.5 -83.5t-34.5 -83t-83.5 -34q-48 0 -83 34.5t-35 82.5q0 49 35 83.5t83 34.5zM361 898q-25 0 -42.5 -17.5t-17.5 -42.5t17.5 -42.5t42.5 -17.5t42.5 17.5t17.5 42.5t-17.5 42.5t-42.5 17.5zM632 720v-461q0 -98 -62 -174q-39 -48 -97 -74.5
t-122 -25.5q-63 -1 -121 25.5t-97 74.5q-63 78 -63 174v461h74v-426q0 -57 8 -91t37 -72q29 -36 72 -56.5t90 -20.5t90.5 20.5t71.5 56.5t36.5 71t8.5 92v426h74z" />
    <glyph glyph-name="uring" unicode="&#x16f;" 
d="M291 594q-48 0 -83 34.5t-35 83.5q0 48 35 83t83 35q49 0 83.5 -35t34.5 -83q0 -49 -34.5 -83.5t-83.5 -34.5zM291 772q-25 0 -42.5 -17.5t-17.5 -42.5t17.5 -42.5t42.5 -17.5t42.5 17.5t17.5 42.5t-17.5 42.5t-42.5 17.5zM450 540h74v-540h-66v76q-11 -17 -26 -32
q-51 -53 -135 -56q-92 -7 -153 42q-51 38 -68 100t-16 148v262h74v-260q0 -72 13 -119t50 -75q44 -32 105 -29q56 2 92 35q39 34 50 93q6 28 6 77v278z" />
    <glyph glyph-name="Uhungarumlaut" unicode="&#x170;" horiz-adv-x="702" 
d="M277 792l105 104l-39 40l-105 -103zM423 792l105 104l-39 40l-105 -103zM632 720v-461q0 -98 -62 -174q-39 -48 -97 -74.5t-122 -25.5q-63 -1 -121 25.5t-97 74.5q-63 78 -63 174v461h74v-426q0 -57 8 -91t37 -72q29 -36 72 -56.5t90 -20.5t90.5 20.5t71.5 56.5t36.5 71
t8.5 92v426h74z" />
    <glyph glyph-name="uhungarumlaut" unicode="&#x171;" 
d="M317 716l-105 -104l-39 41l105 103zM463 716l-105 -104l-39 41l105 103zM450 540h74v-540h-66v76q-11 -17 -26 -32q-51 -53 -135 -56q-92 -7 -153 42q-51 38 -68 100t-16 148v262h74v-260q0 -72 13 -119t50 -75q44 -32 105 -29q56 2 92 35q39 34 50 93q6 28 6 77v278z
" />
    <glyph glyph-name="Uogonek" unicode="&#x172;" horiz-adv-x="702" 
d="M558 720h74v-461q0 -98 -62 -174q-16 -19 -29 -30q-17 -18 -40 -42t-34.5 -37t-19.5 -24q-32 -47 -40 -74q-10 -29 6 -45q18 -15 37.5 -10.5t37.5 21.5l33 -40q-19 -24 -46 -35q-30 -13 -60 -6.5t-49 29.5q-39 41 -18 105q14 39 45 80l10 12q-23 -4 -52 -4
q-63 -1 -121 25.5t-97 74.5q-63 78 -63 174v461h74v-426q0 -57 8 -91t37 -72q29 -36 72 -56.5t90 -20.5t90.5 20.5t71.5 56.5t36.5 71t8.5 92v426z" />
    <glyph glyph-name="uogonek" unicode="&#x173;" 
d="M500 -156l33 -40q-18 -23 -46 -35q-29 -13 -60 -6.5t-49 29.5q-40 40 -18 105q26 74 98 128v51q-11 -17 -26 -32q-51 -53 -135 -56q-92 -7 -153 42q-51 38 -68 100t-16 148v262h74v-260q0 -72 13 -119t50 -75q44 -32 105 -29q56 2 92 35q39 34 50 93q6 28 6 77v278h74
v-540h-10q-33 -25 -57 -55q-29 -38 -38 -67q-10 -29 6 -45q18 -15 37.5 -10.5t37.5 21.5z" />
    <glyph glyph-name="Wcircumflex" unicode="&#x174;" horiz-adv-x="936" 
d="M358 786l110 72l111 -72l31 52l-142 92l-142 -92zM842 720h77l-208 -720h-74l-170 591l-169 -591h-74l-207 720h76l168 -594l168 594h77l168 -594z" />
    <glyph glyph-name="wcircumflex" unicode="&#x175;" horiz-adv-x="767" 
d="M270 606l111 72l111 -72l31 52l-142 92l-142 -92zM674 540h73l-165 -540h-67l-131 430l-135 -430h-64l-165 540h74l128 -419l128 419h67l129 -419z" />
    <glyph glyph-name="Ycircumflex" unicode="&#x176;" horiz-adv-x="556" 
d="M168 786l110 72l111 -72l31 52l-142 92l-142 -92zM471 720h85l-241 -418v-302h-74v302l-241 418h85l193 -334z" />
    <glyph glyph-name="ycircumflex" unicode="&#x177;" horiz-adv-x="549" 
d="M175 606l111 72l111 -72l31 52l-142 92l-142 -92zM464 539h75l-248 -645q-29 -79 -73 -111q-31 -23 -94 -23l-14 1v71l18 -2q36 -2 55 12q15 12 29 40t42 103l-234 555h76l193 -461z" />
    <glyph glyph-name="Ydieresis" unicode="&#x178;" horiz-adv-x="556" 
d="M143 920h80v-80h-80v80zM334 920h80v-80h-80v80zM471 720h85l-241 -418v-302h-74v302l-241 418h85l193 -334z" />
    <glyph glyph-name="Zacute" unicode="&#x179;" horiz-adv-x="621" 
d="M230 786l227 94l-22 56l-228 -94zM152 70h409v-70h-501v71l408 579h-408v70h501v-71z" />
    <glyph glyph-name="zacute" unicode="&#x17a;" horiz-adv-x="578" 
d="M197 606l227 94l-22 56l-228 -94zM508 69v-69h-438v68l340 403h-340v69h438v-69l-340 -402h340z" />
    <glyph glyph-name="Zdotaccent" unicode="&#x17b;" horiz-adv-x="621" 
d="M287 920h85v-85h-85v85zM152 70h409v-70h-501v71l408 579h-408v70h501v-71z" />
    <glyph glyph-name="zdotaccent" unicode="&#x17c;" horiz-adv-x="578" 
d="M253 740h86v-85h-86v85zM508 69v-69h-438v68l340 403h-340v69h438v-69l-340 -402h340z" />
    <glyph glyph-name="Zcaron" unicode="&#x17d;" horiz-adv-x="621" 
d="M215 930l-31 -52l142 -92l142 92l-32 52l-110 -72zM152 70h409v-70h-501v71l408 579h-408v70h501v-71z" />
    <glyph glyph-name="zcaron" unicode="&#x17e;" horiz-adv-x="578" 
d="M195 750l-31 -52l142 -92l142 92l-31 52l-111 -72zM508 69v-69h-438v68l340 403h-340v69h438v-69l-340 -402h340z" />
    <glyph glyph-name="florin" unicode="&#x192;" horiz-adv-x="771" 
d="M583 664q-44 0 -85.5 -25t-52.5 -91l-26 -156h221v-63h-232l-23 -140q-18 -110 -74 -157t-123 -47q-64 0 -128 30l31 63q51 -22 94 -22t78.5 33t48.5 111l21 129h-176v63h186l25 150q9 55 32.5 95t55.5 60.5t62.5 29t61.5 8.5q42 0 79.5 -10.5t51.5 -20.5l-34 -61
q-40 21 -94 21z" />
    <glyph glyph-name="uni0218" unicode="&#x218;" horiz-adv-x="611" 
d="M576 539l-73 -20q-32 80 -89 115q-50 30 -112 30q-60 2 -106 -23q-27 -15 -43 -41t-16 -54q0 -42 27 -68q28 -29 101 -51l129 -38q82 -23 130 -69q59 -57 57 -133q0 -44 -22 -86.5t-59 -68.5q-67 -47 -185 -47q-151 0 -227 100q-41 52 -58 131l74 20q11 -63 43 -105
q55 -76 171 -76q86 0 138 37q47 34 47 97q0 47 -33 78q-34 34 -94 50l-132 39q-92 29 -133 67q-52 48 -52 125q0 48 29 91.5t74 65.5q56 30 140 30q86 0 149 -38q87 -50 125 -158zM349 -163q0 -40 -24.5 -61.5t-58.5 -21.5v39q8 0 17.5 3t19 14t8.5 27h-45v83h83v-83z" />
    <glyph glyph-name="uni0219" unicode="&#x219;" horiz-adv-x="537" 
d="M495 399l-71 -18q-21 60 -72 86q-36 21 -85 21q-44 1 -83 -15q-47 -23 -47 -63q0 -32 25 -50q19 -15 64 -28q14 -4 110 -30q65 -17 104 -49q56 -44 56 -110q0 -35 -18.5 -69t-49.5 -52q-55 -36 -148 -36q-120 0 -183 69q-16 18 -27.5 40.5t-16 36t-13.5 45.5l71 18
q9 -58 38 -93q45 -49 131 -49q72 0 110 26q36 23 36 65q0 35 -31 56q-25 18 -80 34q-28 8 -62.5 18t-49.5 14q-69 23 -99 51q-37 33 -37 92q0 40 24.5 74t63.5 51q48 23 115 21q62 0 114 -26q38 -19 69 -55.5t42 -74.5zM308 -163q0 -40 -24.5 -61.5t-57.5 -21.5v39
q8 0 17.5 3t18.5 14t8 27h-44v83h82v-83z" />
    <glyph glyph-name="uni021A" unicode="&#x21a;" horiz-adv-x="597" 
d="M10 720h577v-70h-252v-650h-73v650h-252v70zM257 -163v83h83v-83q0 -40 -24.5 -61.5t-58.5 -21.5v39q8 0 17.5 3t18.5 14t8 27h-44z" />
    <glyph glyph-name="uni021B" unicode="&#x21b;" horiz-adv-x="401" 
d="M199 477v-278v-18v-17t0.5 -13.5t1 -14t1.5 -11t3 -11.5t5 -10q18 -37 65 -42t89 4v-66q-60 -15 -116 -4q-76 13 -104 71q-19 40 -19 129v281h-115v63h115v150h74v-150h165v-63h-165zM167 -163v83h83v-83q0 -40 -24.5 -61.5t-58.5 -21.5v39q8 0 17.5 3t19 14t8.5 27h-45z
" />
    <glyph glyph-name="alpha" unicode="&#x3b1;" horiz-adv-x="605" 
d="M551 174q1 -51 12 -74t42 -29v-71q-86 5 -114 74v-1q-69 -88 -195 -88t-195 88q-61 76 -61 198q0 121 61 197q33 42 84.5 64.5t110.5 22.5q120 0 189 -80v65h66v-239q1 -10 1 -30t-1 -30v-67zM432 118q42 54 42 153q0 98 -42 152q-47 62 -136 62q-91 0 -136 -62
q-42 -54 -42 -152q0 -99 42 -153q46 -63 136 -63q88 0 136 63z" />
    <glyph glyph-name="beta" unicode="&#x3b2;" horiz-adv-x="572" 
d="M479 340q60 -57 60 -135q0 -90 -59 -152q-62 -68 -171 -68q-101 0 -165 48v-273h-74v780q0 101 77 156q51 39 126 39q74 0 125 -38q37 -27 57.5 -68.5t20.5 -86.5q0 -58 -38 -102q-20 -28 -50 -46q57 -22 91 -54zM429 108q35 43 35 95q0 61 -55 101q-52 39 -136 46v67
q62 10 97 51q30 33 30 74q0 59 -46 95q-36 28 -80 28q-47 0 -83 -27q-20 -16 -32.5 -41.5t-12.5 -51.5v-344q0 -74 47 -111q45 -34 119 -34t117 52z" />
    <glyph glyph-name="uni03BC" unicode="&#x3bc;" horiz-adv-x="588" 
d="M534 174q1 -51 12 -74t42 -29v-71q-76 4 -107 60q-14 -17 -31 -30q-61 -49 -153 -42q-84 3 -135 56q-15 16 -26 32v-256h-66v720h74v-278q0 -49 6 -77q11 -59 50 -93q36 -33 92 -35q61 -3 105 29q37 28 50 75t13 119v260h74v-262v-23v-81z" />
    <glyph glyph-name="uni0400" unicode="&#x400;" horiz-adv-x="583" 
d="M408 842l-22 -56l-227 94l22 56zM513 650h-370v-255h310v-70h-310v-255h370v-70h-443v720h443v-70z" />
    <glyph glyph-name="uni0401" unicode="&#x401;" horiz-adv-x="583" 
d="M229 920v-80h-80v80h80zM420 920v-80h-80v80h80zM513 650h-370v-255h310v-70h-310v-255h370v-70h-443v720h443v-70z" />
    <glyph glyph-name="uni0402" unicode="&#x402;" horiz-adv-x="579" 
d="M471 494q68 -68 68 -202q0 -152 -83 -231q-64 -59 -150 -61v74q57 2 101 42q58 58 58 173q0 101 -47 151q-40 43 -111 43q-59 0 -95 -28q-43 -30 -58 -96q-7 -31 -7 -84v-275h-74v652h-73v68h300v-68h-161v-178q18 21 33 34q58 47 138 47q101 0 161 -61z" />
    <glyph glyph-name="uni0403" unicode="&#x403;" horiz-adv-x="530" 
d="M370 880l-227 -94l-23 56l227 94zM520 720v-70h-377v-650h-73v720h450z" />
    <glyph glyph-name="uni0404" unicode="&#x404;" horiz-adv-x="729" 
d="M570 144q28 38 43 91l73 -21q-17 -62 -57 -114q-90 -115 -254 -115q-162 0 -253 115q-81 104 -79 260q4 164 79 260q88 115 253 115q78 0 144.5 -29.5t109.5 -85.5q44 -58 63 -133l-76 -12q-15 59 -46 100q-65 87 -195 89q-58 1 -109.5 -22.5t-83.5 -66.5
q-52 -67 -59 -178h260v-74h-260q7 -112 59 -179q31 -43 83 -65.5t110 -22.5q59 -1 111 22t84 66z" />
    <glyph glyph-name="uni0405" unicode="&#x405;" horiz-adv-x="611" 
d="M576 539l-73 -20q-32 80 -89 115q-50 30 -112 30q-60 2 -106 -23q-27 -15 -43 -41t-16 -54q0 -42 27 -68q28 -29 101 -51l129 -38q82 -23 130 -69q59 -57 57 -133q0 -44 -22 -86.5t-59 -68.5q-67 -47 -185 -47q-151 0 -227 100q-41 52 -58 131l74 20q11 -63 43 -105
q55 -76 171 -76q86 0 138 37q47 34 47 97q0 47 -33 78q-34 34 -94 50l-132 39q-92 29 -133 67q-52 48 -52 125q0 48 29 91.5t74 65.5q56 30 140 30q86 0 149 -38q87 -50 125 -158z" />
    <glyph glyph-name="uni0406" unicode="&#x406;" horiz-adv-x="233" 
d="M80 720h73v-720h-73v720z" />
    <glyph glyph-name="uni0407" unicode="&#x407;" horiz-adv-x="233" 
d="M-19 920h80v-80h-80v80zM172 920h80v-80h-80v80zM80 720h73v-720h-73v720z" />
    <glyph glyph-name="uni0408" unicode="&#x408;" horiz-adv-x="464" 
d="M383 720h-76v-499q0 -74 -14 -104q-15 -29 -43 -45t-60 -16q-36 0 -64 19q-42 29 -53 75l-73 -17q21 -81 90 -121q43 -26 101 -26q112 0 166 92q18 32 22 60.5t4 82.5v499z" />
    <glyph glyph-name="uni0409" unicode="&#x409;" horiz-adv-x="1107" 
d="M1019 367q56 -64 54 -144q0 -88 -61 -151q-36 -41 -87 -58q-39 -14 -76 -14h-300v650h-289l-48 -408q-6 -57 -16.5 -97t-31.5 -76t-57 -53.5t-87 -15.5v68q63 1 87.5 45t36.5 142l55 465h434v-274h216q49 0 94.5 -21t75.5 -58zM997 223q1 53 -34 97q-46 56 -114 56h-216
v-305h216q61 0 104 45q42 44 44 107z" />
    <glyph glyph-name="uni040A" unicode="&#x40a;" horiz-adv-x="1072" 
d="M985 367q54 -64 54 -144q-2 -89 -62 -151q-36 -41 -87 -58q-37 -14 -76 -14h-299v376h-372v-376h-73v720h73v-274h372v274h73v-274h226q50 0 95.5 -21t75.5 -58zM963 223q1 52 -35 97q-45 56 -114 56h-226v-305h226q60 0 105 45q42 46 44 107z" />
    <glyph glyph-name="uni040B" unicode="&#x40b;" horiz-adv-x="640" 
d="M536 392q37 -45 49 -101t12 -138v-153h-74v143q0 74 -9 121.5t-40 83.5q-50 61 -140 61q-97 0 -146 -67q-29 -39 -39 -99q-5 -27 -5 -63v-180h-74v652h-70v68h300v-68h-156v-270q68 98 198 98q124 0 194 -88z" />
    <glyph glyph-name="uni040C" unicode="&#x40c;" horiz-adv-x="622" 
d="M231 786l227 94l-23 56l-227 -94zM622 0h-97l-300 335h-81v-335h-74v720h74v-315h81l256 315h93l-282 -349z" />
    <glyph glyph-name="uni040D" unicode="&#x40d;" horiz-adv-x="685" 
d="M445 786l22 56l-227 94l-22 -56zM540 720h74v-720h-74v591l-396 -591h-74v720h74v-590z" />
    <glyph glyph-name="uni040E" unicode="&#x40e;" horiz-adv-x="620" 
d="M377 909h61q0 -53 -38 -91t-91 -38q-54 0 -91.5 38t-37.5 91h61q0 -28 20 -48t48 -20t48 20t20 48zM533 720h77l-280 -603q-43 -88 -95 -115q-34 -17 -78 -17q-35 0 -77 15l25 64q29 -11 52 -11q28 0 48 10q33 18 73 101l-258 556h76l218 -477z" />
    <glyph glyph-name="uni040F" unicode="&#x40f;" horiz-adv-x="733" 
d="M590 720h73v-720h-260v-120h-73v120h-260v720h73v-650h447v650z" />
    <glyph glyph-name="uni0410" unicode="&#x410;" horiz-adv-x="634" 
d="M537 0l-49 142h-342l-49 -142h-77l248 720h98l248 -720h-77zM170 211h294l-148 426z" />
    <glyph glyph-name="uni0411" unicode="&#x411;" horiz-adv-x="627" 
d="M540 367q54 -64 54 -144q0 -87 -61 -151q-37 -41 -88 -58q-37 -14 -75 -14h-300v720h465v-70h-392v-204h227q49 0 94.5 -21t75.5 -58zM518 223q1 52 -35 97q-45 56 -114 56h-226v-305h226q62 0 105 45q42 44 44 107z" />
    <glyph glyph-name="uni0412" unicode="&#x412;" horiz-adv-x="613" 
d="M539 326q44 -55 41 -126q-3 -72 -46 -122t-107 -68q-33 -10 -101 -10h-256v720h243q69 0 91 -7q59 -16 97 -63q39 -43 44 -112q4 -61 -38 -115q-15 -21 -34 -37q39 -22 66 -60zM347 650h-203v-237h203q26 0 54 14t45 37q24 36 23 74q0 42 -31 75q-36 37 -91 37zM468 113
q36 38 36 87q0 50 -29 88q-18 26 -48.5 40.5t-61.5 14.5h-221v-272h181q42 0 59 1t41.5 10.5t42.5 30.5z" />
    <glyph glyph-name="uni0413" unicode="&#x413;" horiz-adv-x="530" 
d="M520 720v-70h-377v-650h-73v720h450z" />
    <glyph glyph-name="uni0414" unicode="&#x414;" horiz-adv-x="762" 
d="M652 70h60v-153h-70v83h-546v-83h-70v153q114 0 140 221l50 429h436v-650zM582 70v580h-303l-43 -367q-17 -153 -77 -213h423z" />
    <glyph glyph-name="uni0415" unicode="&#x415;" horiz-adv-x="583" 
d="M513 650h-370v-255h310v-70h-310v-255h370v-70h-443v720h443v-70z" />
    <glyph glyph-name="uni0416" unicode="&#x416;" horiz-adv-x="932" 
d="M5 0l243 375l-224 345h88l201 -314h116v314h74v-314h116l201 314h88l-224 -345l243 -375h-88l-220 343h-116v-343h-74v343h-116l-220 -343h-88z" />
    <glyph glyph-name="uni0417" unicode="&#x417;" horiz-adv-x="595" 
d="M61 568q9 83 82 129q60 38 153 38q95 0 154 -38q84 -54 84 -155q0 -82 -59 -130q-17 -16 -35 -26q31 -18 52 -42q60 -53 60 -142q0 -111 -85 -170q-68 -47 -171 -47t-170 47q-73 50 -83 141l76 13q7 -62 51 -95q49 -36 126 -36q79 2 127 36q51 38 51 111q0 75 -51 110
q-47 35 -127 37h-53v71h53q72 2 112 30q50 31 48 92q2 62 -48 93q-43 30 -112 30q-68 0 -112 -30q-42 -27 -47 -79z" />
    <glyph glyph-name="uni0418" unicode="&#x418;" horiz-adv-x="685" 
d="M540 720h74v-720h-74v591l-396 -591h-74v720h74v-590z" />
    <glyph glyph-name="uni0419" unicode="&#x419;" horiz-adv-x="685" 
d="M425 909h61q0 -53 -37.5 -91t-91.5 -38q-53 0 -91 38t-38 91h61q0 -28 20 -48t48 -20t48 20t20 48zM540 720h74v-720h-74v591l-396 -591h-74v720h74v-590z" />
    <glyph glyph-name="uni041A" unicode="&#x41a;" horiz-adv-x="622" 
d="M622 0h-97l-300 335h-81v-335h-74v720h74v-315h81l256 315h93l-282 -349z" />
    <glyph glyph-name="uni041B" unicode="&#x41b;" horiz-adv-x="703" 
d="M633 720v-720h-74v650h-299l-48 -408q-6 -57 -16.5 -97t-31.5 -76t-57 -53.5t-87 -15.5v68q63 1 87.5 45t36.5 142l55 465h434z" />
    <glyph glyph-name="uni041C" unicode="&#x41c;" horiz-adv-x="848" 
d="M778 720v-719h-74v555l-256 -556h-48l-256 556v-556h-74v720h73l281 -605l280 605h74z" />
    <glyph glyph-name="uni041D" unicode="&#x41d;" horiz-adv-x="685" 
d="M541 720h74v-720h-74v273h-398v-273h-73v720h73v-377h398v377z" />
    <glyph glyph-name="uni041E" unicode="&#x41e;" horiz-adv-x="750" 
d="M375 -15q-167 0 -253 115q-77 99 -79 260q0 159 79 260q43 57 110 86.5t143 27.5q166 -2 254 -114q74 -95 78 -260q0 -159 -78 -260q-90 -115 -254 -115zM375 56q59 0 110.5 22.5t83.5 66.5q58 76 60 215q0 137 -60 214q-32 44 -84 67.5t-110 22.5q-59 -1 -111 -24
t-83 -66q-58 -73 -60 -214q0 -138 60 -215q31 -44 83.5 -67t110.5 -22z" />
    <glyph glyph-name="uni041F" unicode="&#x41f;" horiz-adv-x="733" 
d="M663 720v-720h-73v650h-447v-650h-73v720h593z" />
    <glyph glyph-name="uni0420" unicode="&#x420;" horiz-adv-x="627" 
d="M533 648q61 -64 61 -151q0 -80 -54 -144q-30 -37 -75.5 -58t-94.5 -21h-227v-274h-73v720h300q38 0 75 -14q51 -17 88 -58zM483 400q36 45 35 97q-2 63 -44 107q-43 45 -105 45h-226v-305h226q69 0 114 56z" />
    <glyph glyph-name="uni0421" unicode="&#x421;" horiz-adv-x="735" 
d="M613 235l73 -21q-17 -62 -57 -114q-90 -115 -254 -115q-162 0 -253 115q-81 104 -79 260q4 164 79 260q88 115 253 115q78 0 144.5 -29.5t109.5 -85.5q44 -58 63 -133l-76 -12q-15 59 -46 100q-65 87 -195 89q-58 1 -109.5 -22.5t-83.5 -66.5q-60 -77 -60 -215t60 -216
q31 -43 83 -65.5t110 -22.5q59 -1 111 22t84 66q28 38 43 91z" />
    <glyph glyph-name="uni0422" unicode="&#x422;" horiz-adv-x="597" 
d="M587 720v-70h-252v-650h-73v650h-252v70h577z" />
    <glyph glyph-name="uni0423" unicode="&#x423;" horiz-adv-x="620" 
d="M533 720h77l-280 -603q-43 -88 -95 -115q-34 -17 -78 -17q-35 0 -77 15l25 64q29 -11 52 -11q28 0 48 10q33 18 73 101l-258 556h76l218 -477z" />
    <glyph glyph-name="uni0424" unicode="&#x424;" horiz-adv-x="768" 
d="M621 605q52 -39 79 -98t25 -125q2 -66 -25 -125t-80 -98q-82 -60 -200 -68v-91h-73v91q-120 10 -199 68q-52 39 -79.5 98t-25.5 125q-2 66 25 125t79 98q78 57 200 69v46h73v-46q121 -10 201 -69zM577 222q70 55 70 160t-70 160q-61 46 -157 56v-432q96 8 157 56z
M190 222q61 -46 157 -56v432q-98 -10 -156 -56q-70 -54 -70 -160q0 -105 69 -160z" />
    <glyph glyph-name="uni0425" unicode="&#x425;" horiz-adv-x="603" 
d="M345 365l253 -365h-89l-208 301l-207 -301h-89l253 365l-247 355h89l201 -292l201 292h90z" />
    <glyph glyph-name="uni0426" unicode="&#x426;" horiz-adv-x="780" 
d="M663 70h77v-153h-74v83h-596v720h73v-650h447v650h73v-650z" />
    <glyph glyph-name="uni0427" unicode="&#x427;" horiz-adv-x="640" 
d="M496 720h74v-720h-74v338q-68 -98 -198 -98q-124 0 -194 88q-37 45 -49 101t-12 138v153h74v-143q0 -74 9 -121.5t40 -83.5q50 -61 140 -61q97 0 146 67q29 39 39 99q5 27 5 63v180z" />
    <glyph glyph-name="uni0428" unicode="&#x428;" horiz-adv-x="907" 
d="M763 720h74v-720h-767v720h73v-650h274v650h73v-650h273v650z" />
    <glyph glyph-name="uni0429" unicode="&#x429;" horiz-adv-x="953" 
d="M837 70h76v-153h-73v83h-770v720h73v-650h274v650h73v-650h273v650h74v-650z" />
    <glyph glyph-name="uni042A" unicode="&#x42a;" horiz-adv-x="615" 
d="M553 367q56 -64 54 -144q0 -88 -61 -151q-36 -41 -87 -58q-39 -14 -76 -14h-300v657h-93v63h167v-274h226q49 0 94.5 -21t75.5 -58zM531 223q1 53 -34 97q-46 56 -114 56h-226v-305h226q61 0 104 45q42 44 44 107z" />
    <glyph glyph-name="uni042B" unicode="&#x42b;" horiz-adv-x="860" 
d="M370 446q49 0 94.5 -21t75.5 -58q54 -64 54 -144q0 -87 -61 -151q-37 -41 -88 -58q-37 -14 -75 -14h-300v720h73v-274h227zM707 720h73v-720h-73v720zM518 223q1 52 -35 97q-45 56 -114 56h-226v-305h226q62 0 105 45q42 44 44 107z" />
    <glyph glyph-name="uni042C" unicode="&#x42c;" horiz-adv-x="627" 
d="M540 367q54 -64 54 -144q0 -87 -61 -151q-37 -41 -88 -58q-37 -14 -75 -14h-300v720h73v-274h227q49 0 94.5 -21t75.5 -58zM518 223q1 52 -35 97q-45 56 -114 56h-226v-305h226q62 0 105 45q42 44 44 107z" />
    <glyph glyph-name="uni042D" unicode="&#x42d;" horiz-adv-x="728" 
d="M685 360q2 -157 -79 -260q-91 -115 -253 -115q-164 0 -254 115q-40 52 -57 114l73 21q14 -50 43 -91q33 -43 85 -66t110 -22q58 0 110 22.5t84 65.5q51 67 58 179h-260v74h260q-7 111 -58 178q-32 43 -84 66.5t-110 22.5q-128 -2 -195 -89q-32 -42 -45 -100l-76 12
q17 74 62 133q43 56 109.5 85.5t144.5 29.5q165 0 253 -115q77 -99 79 -260z" />
    <glyph glyph-name="uni042E" unicode="&#x42e;" horiz-adv-x="1030" 
d="M909 620q74 -95 78 -260q0 -159 -78 -260q-90 -115 -254 -115q-167 0 -253 115q-68 87 -78 223h-181v-323h-73v720h73v-323h181q8 134 78 223q43 57 110 86.5t143 27.5q166 -2 254 -114zM849 145q58 76 60 215q0 137 -60 214q-32 44 -84 67.5t-110 22.5q-59 -1 -111 -24
t-83 -66q-58 -73 -60 -214q0 -138 60 -215q31 -44 83.5 -67t110.5 -22q59 0 110.5 22.5t83.5 66.5z" />
    <glyph glyph-name="uni042F" unicode="&#x42f;" horiz-adv-x="664" 
d="M594 720v-720h-73v274h-227q-11 0 -16 1l-133 -275h-85l143 294q-45 19 -79 59q-54 64 -54 144q0 87 61 151q37 41 88 58q37 14 75 14h300zM521 344v305h-226q-62 0 -105 -45q-42 -44 -44 -107q-1 -52 35 -97q45 -56 114 -56h226z" />
    <glyph glyph-name="uni0430" unicode="&#x430;" horiz-adv-x="556" 
d="M496 0h-66v87q-66 -102 -213 -102q-78 0 -127.5 44.5t-49.5 118.5q0 101 95 149q23 12 59.5 21.5t62 14t83.5 12.5t81 12q-1 63 -39 95t-101 32q-100 0 -158 -71l-48 50q77 92 215 92q83 0 141 -51q65 -55 65 -171v-333zM401 143q14 28 18 59.5t4 92.5q-150 -23 -187 -32
q-54 -11 -88 -39t-34 -69q0 -47 32 -75.5t83 -28.5q124 0 172 92z" />
    <glyph glyph-name="uni0431" unicode="&#x431;" horiz-adv-x="583" 
d="M297 514q53 1 102 -19t82 -60q60 -70 62 -187q0 -115 -65 -188q-69 -77 -188 -75q-53 -1 -103 19.5t-84 59.5q-60 71 -62 188q-3 138 9 213q20 132 109 198q78 57 228 57q55 0 115 -10v-68q-68 9 -115 10q-127 0 -187 -44q-64 -44 -80 -174q71 81 177 80zM292 446
q-85 0 -131 -55q-42 -49 -42 -137q0 -95 42 -141q45 -55 131 -55t130 54q43 50 43 140q0 91 -43 139q-45 55 -130 55z" />
    <glyph glyph-name="uni0432" unicode="&#x432;" horiz-adv-x="559" 
d="M70 539l261 1q71 0 114 -44q46 -41 46 -107q0 -52 -31 -89q-8 -10 -19 -20q25 -15 40 -34q38 -40 38 -95q0 -69 -53 -114q-43 -37 -105 -37h-291v539zM144 477v-176h187q40 0 65 30q20 26 20 58q-2 33 -20 57q-26 31 -65 31h-187zM144 238v-175h207q42 0 68 26
q22 22 24 62q2 35 -24 61t-78 26h-197z" />
    <glyph glyph-name="uni0433" unicode="&#x433;" horiz-adv-x="465" 
d="M440 540v-73h-297v-467h-73v540h370z" />
    <glyph glyph-name="uni0434" unicode="&#x434;" horiz-adv-x="628" 
d="M523 540v-469h49v-146h-71v75h-410v-75h-71v146q91 0 111 177l34 292h358zM453 71v401h-226l-27 -232q-14 -121 -58 -169h311z" />
    <glyph glyph-name="uni0435" unicode="&#x435;" horiz-adv-x="591" 
d="M116 246q5 -82 41 -130q47 -64 139 -64q119 0 180 104l56 -36q-35 -67 -96 -101t-138 -34q-59 0 -111.5 22.5t-85.5 65.5q-61 77 -61 195q0 123 61 200q71 87 195 87q123 0 195 -87q66 -84 59 -222h-434zM296 488q-91 2 -139 -63q-32 -43 -40 -111h356q-8 71 -40 111
q-48 65 -137 63z" />
    <glyph glyph-name="uni0436" unicode="&#x436;" horiz-adv-x="734" 
d="M705 540l-168 -270l177 -270l-84 1l-151 237h-78v-238h-68v238h-78l-151 -237l-84 -1l177 270l-168 270h84l143 -239h77v239h68v-239h77l143 239h84z" />
    <glyph glyph-name="uni0437" unicode="&#x437;" horiz-adv-x="540" 
d="M54 427q15 66 77 98q55 30 137 30t137 -30q80 -43 82 -130q0 -77 -54 -113q67 -36 67 -127q-1 -89 -87 -138q-59 -32 -145 -32q-88 0 -145 32q-65 34 -83 109l73 19q9 -41 47 -64q40 -25 108 -25q64 0 108 25q49 28 49 78q0 62 -54 77q-29 11 -99 11h-51v63h51
q62 0 92 11q49 17 49 71q0 45 -45 69q-39 22 -100 24q-62 -2 -100 -24q-32 -18 -40 -52z" />
    <glyph glyph-name="uni0438" unicode="&#x438;" horiz-adv-x="575" 
d="M505 540v-540h-74v419l-295 -419h-66v540h74v-415l295 415h66z" />
    <glyph glyph-name="uni0439" unicode="&#x439;" horiz-adv-x="575" 
d="M363 729h61q0 -53 -38 -91t-91 -38q-54 0 -91.5 38t-37.5 91h61q0 -28 20 -48t48 -20t48 20t20 48zM505 540v-540h-74v419l-295 -419h-66v540h74v-415l295 415h66z" />
    <glyph glyph-name="uni043A" unicode="&#x43a;" horiz-adv-x="498" 
d="M144 238v-238h-74v540h74v-239h56l180 239h87l-202 -269l233 -271h-90l-207 238h-57z" />
    <glyph glyph-name="uni043B" unicode="&#x43b;" horiz-adv-x="563" 
d="M151 540h342v-540h-71v472h-208l-34 -277q-6 -48 -14.5 -80t-26 -61.5t-47 -43t-72.5 -10.5v68q50 0 66 31t26 109z" />
    <glyph glyph-name="uni043C" unicode="&#x43c;" horiz-adv-x="691" 
d="M552 540h67l2 -540h-74v390l-174 -307h-55l-173 307v-390h-75v540h69l206 -363z" />
    <glyph glyph-name="uni043D" unicode="&#x43d;" horiz-adv-x="591" 
d="M448 540h73v-540h-73v252h-305v-252h-73v540h73v-214h305v214z" />
    <glyph glyph-name="uni043E" unicode="&#x43e;" horiz-adv-x="592" 
d="M296 -15q-126 0 -195 88q-61 76 -61 198q0 121 61 197q33 42 84.5 64.5t110.5 22.5q126 0 195 -87q61 -77 61 -197q0 -119 -61 -198q-69 -88 -195 -88zM432 118q42 54 42 153q0 98 -42 152q-47 62 -136 62q-91 0 -136 -62q-42 -54 -42 -152q0 -99 42 -153q46 -63 136 -63
q88 0 136 63z" />
    <glyph glyph-name="uni043F" unicode="&#x43f;" horiz-adv-x="591" 
d="M521 540v-540h-73v467h-305v-467h-73v540h451z" />
    <glyph glyph-name="uni0440" unicode="&#x440;" horiz-adv-x="609" 
d="M510 468q59 -75 59 -197q0 -123 -59 -199q-69 -87 -187 -87q-116 0 -179 80v-305h-74v780h66v-73q32 42 82.5 65t107.5 23q117 0 184 -87zM451 118q40 53 40 153q0 97 -41 152q-46 64 -136 64q-88 0 -134 -60q-44 -56 -44 -156q0 -102 44 -157q47 -61 135 -61
q89 0 136 65z" />
    <glyph glyph-name="uni0441" unicode="&#x441;" horiz-adv-x="554" 
d="M519 420l-69 -29q-5 11 -19 31q-47 63 -136 63t-135 -63q-40 -51 -42 -152q2 -101 42 -152q47 -62 135 -62q89 0 136 62q8 11 18 30l70 -30q-13 -27 -29 -45q-69 -88 -195 -88q-125 0 -194 88q-59 75 -61 197q2 122 61 198q70 87 194 87q125 0 195 -87q19 -24 29 -48z
" />
    <glyph glyph-name="uni0442" unicode="&#x442;" horiz-adv-x="507" 
d="M482 540v-68h-192v-472h-73v472h-192v68h457z" />
    <glyph glyph-name="uni0443" unicode="&#x443;" horiz-adv-x="549" 
d="M464 539h75l-248 -645q-29 -79 -73 -111q-31 -23 -94 -23l-14 1v71l18 -2q36 -2 55 12q15 12 29 40t42 103l-234 555h76l193 -461z" />
    <glyph glyph-name="uni0444" unicode="&#x444;" horiz-adv-x="720" 
d="M581 490q96 -79 99 -221q-3 -142 -99 -221q-72 -57 -187 -64v-209h-68v209q-115 7 -187 64q-97 81 -99 221q2 141 99 221q69 57 187 64v162h68v-162q118 -7 187 -64zM530 102q72 58 74 167q-2 111 -74 168q-48 41 -136 46v-429q89 9 136 48zM190 102q46 -39 136 -48v429
q-85 -5 -136 -46q-72 -58 -74 -168q2 -110 74 -167z" />
    <glyph glyph-name="uni0445" unicode="&#x445;" horiz-adv-x="544" 
d="M519 540l-205 -267l210 -273h-87l-165 215l-165 -215h-87l209 273l-204 267h86l161 -209l160 209h87z" />
    <glyph glyph-name="uni0446" unicode="&#x446;" horiz-adv-x="648" 
d="M521 70h87v-153h-74v83h-464v540h73v-467h305v467h73v-470z" />
    <glyph glyph-name="uni0447" unicode="&#x447;" horiz-adv-x="574" 
d="M430 540h74v-540h-74v189q-1 -1 -3.5 -4t-5 -5t-4.5 -4q-56 -52 -140 -55q-82 -6 -149 42q-53 39 -71 99t-17 146v132h74v-132q0 -70 13 -115t50 -73q42 -31 105 -29q56 3 92 36q38 33 50 92q6 28 6 77v144z" />
    <glyph glyph-name="uni0448" unicode="&#x448;" horiz-adv-x="744" 
d="M70 0v540h68v-470h200v470h68v-470h200v470h68v-540h-604z" />
    <glyph glyph-name="uni0449" unicode="&#x449;" horiz-adv-x="800" 
d="M674 70h86v-153h-73v83h-617v540h68v-470h200v470h68v-470h200v470h68v-470z" />
    <glyph glyph-name="uni044A" unicode="&#x44a;" horiz-adv-x="526" 
d="M438 288q48 -51 48 -120q0 -70 -48 -118q-50 -50 -117 -50h-250l-1 477h-73v63h148v-203h176q68 0 117 -49zM383 102q27 29 27 66q0 38 -27 67q-28 31 -65 31h-173v-196h173q38 2 65 32z" />
    <glyph glyph-name="uni044B" unicode="&#x44b;" horiz-adv-x="670" 
d="M70 540h75v-203h153q69 0 116 -49q48 -50 48 -120q0 -72 -48 -118q-48 -50 -116 -50h-227zM527 540h73v-540h-73v540zM145 266v-196h150q38 2 65 32q26 28 26 66q0 39 -26 67q-29 31 -65 31h-150z" />
    <glyph glyph-name="uni044C" unicode="&#x44c;" horiz-adv-x="526" 
d="M70 540h75v-203h176q68 0 117 -49q48 -51 48 -120q0 -70 -48 -118q-50 -50 -117 -50h-250zM145 266v-196h173q38 2 65 32q27 29 27 66q0 38 -27 67q-28 31 -65 31h-173z" />
    <glyph glyph-name="uni044D" unicode="&#x44d;" horiz-adv-x="554" 
d="M453 468q59 -76 61 -198q-2 -122 -61 -197q-69 -88 -194 -88q-126 0 -195 88q-16 18 -29 45l70 30q10 -19 18 -30q47 -62 136 -62q88 0 135 62q35 44 40 121h-242v63h242q-5 76 -40 120q-46 63 -135 63t-136 -63q-14 -20 -19 -31l-69 29q10 24 29 48q70 87 195 87
q124 0 194 -87z" />
    <glyph glyph-name="uni044E" unicode="&#x44e;" horiz-adv-x="790" 
d="M689 468q61 -77 61 -197q0 -119 -61 -198q-69 -88 -195 -88t-195 88q-52 65 -59 160h-97v-233h-73v540h73v-233h96q8 97 60 161q33 42 84.5 64.5t110.5 22.5q126 0 195 -87zM630 118q42 54 42 153q0 98 -42 152q-47 62 -136 62q-91 0 -136 -62q-42 -54 -42 -152
q0 -99 42 -153q46 -63 136 -63q88 0 136 63z" />
    <glyph glyph-name="uni044F" unicode="&#x44f;" horiz-adv-x="556" 
d="M486 0h-75v203h-188l-98 -203h-85l105 215q-32 12 -57 37q-48 50 -48 120q0 72 48 118q50 50 117 50h280zM208 274h203v196h-203q-39 -2 -65 -32q-27 -27 -27 -66t26 -67q29 -31 66 -31z" />
    <glyph glyph-name="uni0450" unicode="&#x450;" horiz-adv-x="591" 
d="M449 662l-22 -56l-227 94l22 56zM116 246q5 -82 41 -130q47 -64 139 -64q119 0 180 104l56 -36q-35 -67 -96 -101t-138 -34q-59 0 -111.5 22.5t-85.5 65.5q-61 77 -61 195q0 123 61 200q71 87 195 87q123 0 195 -87q66 -84 59 -222h-434zM296 488q-91 2 -139 -63
q-32 -43 -40 -111h356q-8 71 -40 111q-48 65 -137 63z" />
    <glyph glyph-name="uni0451" unicode="&#x451;" horiz-adv-x="591" 
d="M240 740v-80h-80v80h80zM431 740v-80h-80v80h80zM116 246q5 -82 41 -130q47 -64 139 -64q119 0 180 104l56 -36q-35 -67 -96 -101t-138 -34q-59 0 -111.5 22.5t-85.5 65.5q-61 77 -61 195q0 123 61 200q71 87 195 87q123 0 195 -87q66 -84 59 -222h-434zM296 488
q-91 2 -139 -63q-32 -43 -40 -111h356q-8 71 -40 111q-48 65 -137 63z" />
    <glyph glyph-name="uni0452" unicode="&#x452;" 
d="M450 510q51 -38 68 -100t16 -148v-355q0 -89 -70 -104q-43 -6 -85 5v59q44 -7 62.5 7.5t18.5 66.5v319q0 72 -13 119t-50 75q-44 32 -105 29q-56 -2 -92 -35q-39 -34 -50 -93q-6 -28 -6 -77v-278h-74v593h-64v63h64v64h66v-64h121v-63h-121v-129q11 17 26 32
q51 53 135 56q92 7 153 -42z" />
    <glyph glyph-name="uni0453" unicode="&#x453;" horiz-adv-x="465" 
d="M116 606l227 94l-22 56l-228 -94zM440 540v-73h-297v-467h-73v540h370z" />
    <glyph glyph-name="uni0454" unicode="&#x454;" horiz-adv-x="554" 
d="M431 118q8 11 18 30l70 -30q-13 -27 -29 -45q-69 -88 -195 -88q-125 0 -194 88q-59 75 -61 197q2 122 61 198q70 87 194 87q125 0 195 -87q19 -24 29 -48l-69 -29q-5 11 -19 31q-47 63 -136 63t-135 -63q-35 -44 -40 -120h242v-63h-242q5 -77 40 -121q47 -62 135 -62
q89 0 136 62z" />
    <glyph glyph-name="uni0455" unicode="&#x455;" horiz-adv-x="537" 
d="M495 399l-71 -18q-21 60 -72 86q-36 21 -85 21q-44 1 -83 -15q-47 -23 -47 -63q0 -32 25 -50q19 -15 64 -28q14 -4 110 -30q65 -17 104 -49q56 -44 56 -110q0 -35 -18.5 -69t-49.5 -52q-55 -36 -148 -36q-120 0 -183 69q-16 18 -27.5 40.5t-16 36t-13.5 45.5l71 18
q9 -58 38 -93q45 -49 131 -49q72 0 110 26q36 23 36 65q0 35 -31 56q-25 18 -80 34q-28 8 -62.5 18t-49.5 14q-69 23 -99 51q-37 33 -37 92q0 40 24.5 74t63.5 51q48 23 115 21q62 0 114 -26q38 -19 69 -55.5t42 -74.5z" />
    <glyph glyph-name="uni0456" unicode="&#x456;" horiz-adv-x="233" 
d="M80 718h73v-82h-73v82zM80 540h73v-540h-73v540z" />
    <glyph glyph-name="uni0457" unicode="&#x457;" horiz-adv-x="233" 
d="M-19 740h80v-80h-80v80zM172 740h80v-80h-80v80zM80 540h73v-540h-73v540z" />
    <glyph glyph-name="uni0458" unicode="&#x458;" horiz-adv-x="254" 
d="M100 713h74v-82h-74v82zM10 -180v-75q76 0 120 51q29 32 36.5 72t7.5 117v555h-74v-555q0 -66 -4.5 -94t-23.5 -47q-18 -22 -62 -24z" />
    <glyph glyph-name="uni0459" unicode="&#x459;" horiz-adv-x="877" 
d="M789 288q48 -50 48 -120q0 -72 -48 -118q-48 -50 -116 -50h-251v472h-208l-34 -277q-6 -48 -14.5 -80t-26 -61.5t-47 -43t-72.5 -10.5v68q50 0 66 31t26 109l39 332h345v-203h177q69 0 116 -49zM735 102q26 28 26 66q0 39 -26 67q-29 31 -65 31h-174v-196h174q38 2 65 32
z" />
    <glyph glyph-name="uni045A" unicode="&#x45a;" horiz-adv-x="888" 
d="M800 288q48 -51 48 -120q0 -70 -48 -118q-50 -50 -117 -50h-250v266h-290v-266h-73v540h73v-203h289v203h75v-203h176q68 0 117 -49zM745 102q27 29 27 66q0 38 -27 67q-28 31 -65 31h-173v-196h173q38 2 65 32z" />
    <glyph glyph-name="uni045B" unicode="&#x45b;" 
d="M450 510q51 -38 68 -100t16 -148v-262h-74v260q0 72 -13 119t-50 75q-44 32 -105 29q-56 -2 -92 -35q-39 -34 -50 -93q-6 -28 -6 -77v-278h-74v593h-64v63h64v64h66v-64h121v-63h-121v-129q11 17 26 32q51 53 135 56q92 7 153 -42z" />
    <glyph glyph-name="uni045C" unicode="&#x45c;" horiz-adv-x="498" 
d="M138 606l227 94l-22 56l-228 -94zM144 238v-238h-74v540h74v-239h56l180 239h87l-202 -269l233 -271h-90l-207 238h-57z" />
    <glyph glyph-name="uni045D" unicode="&#x45d;" horiz-adv-x="575" 
d="M412 606l23 56l-228 94l-22 -56zM505 540v-540h-74v419l-295 -419h-66v540h74v-415l295 415h66z" />
    <glyph glyph-name="uni045E" unicode="&#x45e;" horiz-adv-x="549" 
d="M352 729h61q0 -53 -37.5 -91t-91.5 -38q-53 0 -91 38t-38 91h61q0 -28 20 -48t48 -20t48 20t20 48zM464 539h75l-248 -645q-29 -79 -73 -111q-31 -23 -94 -23l-14 1v71l18 -2q36 -2 55 12q15 12 29 40t42 103l-234 555h76l193 -461z" />
    <glyph glyph-name="uni045F" unicode="&#x45f;" horiz-adv-x="591" 
d="M448 540h73v-540h-189v-120h-73v120h-189v540h73v-467h305v467z" />
    <glyph glyph-name="uni0490" unicode="&#x490;" horiz-adv-x="540" 
d="M457 803h73v-153h-387v-650h-73v720h387v83z" />
    <glyph glyph-name="uni0491" unicode="&#x491;" horiz-adv-x="465" 
d="M367 623h73v-156h-297v-467h-73v540h297v83z" />
    <glyph glyph-name="uni04AE" unicode="&#x4ae;" horiz-adv-x="556" 
d="M471 720h85l-241 -418v-302h-74v302l-241 418h85l193 -334z" />
    <glyph glyph-name="uni04AF" unicode="&#x4af;" horiz-adv-x="508" 
d="M488 540l-196 -540h-5v-180h-73v186l-194 534h75l159 -444l159 444h75z" />
    <glyph glyph-name="uni04BA" unicode="&#x4ba;" horiz-adv-x="640" 
d="M144 0h-74v720h74v-338q68 98 198 98q124 0 194 -88q37 -45 49 -101t12 -138v-153h-74v143q0 74 -9 121.5t-40 83.5q-50 61 -140 61q-97 0 -146 -67q-29 -39 -39 -99q-5 -27 -5 -63v-180z" />
    <glyph glyph-name="uni04BB" unicode="&#x4bb;" horiz-adv-x="574" 
d="M446 377q53 -39 71 -99t17 -146v-132h-74v132q0 70 -13 115t-50 73q-42 31 -105 29q-56 -3 -92 -36q-38 -33 -50 -92q-6 -28 -6 -77v-144h-74v540h74v-189l13 13q56 52 140 55q82 6 149 -42z" />
    <glyph glyph-name="uni04E8" unicode="&#x4e8;" horiz-adv-x="743" 
d="M629 620q74 -95 78 -260q0 -159 -78 -260q-90 -115 -254 -115q-167 0 -253 115q-77 99 -79 260q0 159 79 260q43 57 110 86.5t143 27.5q166 -2 254 -114zM181 574q-51 -64 -58 -177h505q-9 112 -59 177q-32 44 -84 67.5t-110 22.5q-59 -1 -111 -24t-83 -66zM569 145
q51 67 58 178h-505q7 -111 59 -178q31 -44 83.5 -67t110.5 -22q59 0 110.5 22.5t83.5 66.5z" />
    <glyph glyph-name="uni04E9" unicode="&#x4e9;" horiz-adv-x="592" 
d="M491 468q61 -77 61 -197q0 -119 -61 -198q-69 -88 -195 -88t-195 88q-61 76 -61 198q0 121 61 197q33 42 84.5 64.5t110.5 22.5q126 0 195 -87zM296 485q-91 0 -136 -62q-34 -43 -41 -121h354q-7 78 -41 121q-47 62 -136 62zM296 55q88 0 136 63q34 43 41 121h-354
q7 -78 41 -121q46 -63 136 -63z" />
    <glyph glyph-name="Wgrave" unicode="&#x1e80;" horiz-adv-x="936" 
d="M570 786l23 56l-228 94l-22 -56zM842 720h77l-208 -720h-74l-170 591l-169 -591h-74l-207 720h76l168 -594l168 594h77l168 -594z" />
    <glyph glyph-name="wgrave" unicode="&#x1e81;" horiz-adv-x="767" 
d="M473 606l22 56l-227 94l-22 -56zM674 540h73l-165 -540h-67l-131 430l-135 -430h-64l-165 540h74l128 -419l128 419h67l129 -419z" />
    <glyph glyph-name="Wacute" unicode="&#x1e82;" horiz-adv-x="936" 
d="M349 786l227 94l-22 56l-228 -94zM842 720h77l-208 -720h-74l-170 591l-169 -591h-74l-207 720h76l168 -594l168 594h77l168 -594z" />
    <glyph glyph-name="wacute" unicode="&#x1e83;" horiz-adv-x="767" 
d="M265 606l227 94l-22 56l-227 -94zM674 540h73l-165 -540h-67l-131 430l-135 -430h-64l-165 540h74l128 -419l128 419h67l129 -419z" />
    <glyph glyph-name="Wdieresis" unicode="&#x1e84;" horiz-adv-x="936" 
d="M333 920h80v-80h-80v80zM524 920h80v-80h-80v80zM842 720h77l-208 -720h-74l-170 591l-169 -591h-74l-207 720h76l168 -594l168 594h77l168 -594z" />
    <glyph glyph-name="wdieresis" unicode="&#x1e85;" horiz-adv-x="767" 
d="M233 740h80v-80h-80v80zM424 740h80v-80h-80v80zM674 540h73l-165 -540h-67l-131 430l-135 -430h-64l-165 540h74l128 -419l128 419h67l129 -419z" />
    <glyph glyph-name="Ygrave" unicode="&#x1ef2;" horiz-adv-x="556" 
d="M394 786l22 56l-227 94l-22 -56zM471 720h85l-241 -418v-302h-74v302l-241 418h85l193 -334z" />
    <glyph glyph-name="ygrave" unicode="&#x1ef3;" horiz-adv-x="549" 
d="M391 606l23 56l-228 94l-22 -56zM464 539h75l-248 -645q-29 -79 -73 -111q-31 -23 -94 -23l-14 1v71l18 -2q36 -2 55 12q15 12 29 40t42 103l-234 555h76l193 -461z" />
    <glyph glyph-name="uni2011" unicode="&#x2011;" horiz-adv-x="420" 
d="M60 313h300v-63h-300v63z" />
    <glyph glyph-name="endash" unicode="&#x2013;" horiz-adv-x="540" 
d="M60 313h420v-63h-420v63z" />
    <glyph glyph-name="emdash" unicode="&#x2014;" horiz-adv-x="780" 
d="M60 313h660v-63h-660v63z" />
    <glyph glyph-name="quoteleft" unicode="&#x2018;" horiz-adv-x="222" 
d="M67 595v125h85v-105h-45q-6 -72 40 -68l5 -37q-41 -7 -63 16t-22 69z" />
    <glyph glyph-name="quoteright" unicode="&#x2019;" horiz-adv-x="222" 
d="M155 595q0 -46 -22 -69t-63 -16l5 37q46 -4 40 68h-45v105h85v-125z" />
    <glyph glyph-name="quotesinglbase" unicode="&#x201a;" horiz-adv-x="265" 
d="M145 -20q0 -45 -22 -68t-63 -16l5 36q46 -4 40 68h-45v105h85v-125z" />
    <glyph glyph-name="quotedblleft" unicode="&#x201c;" horiz-adv-x="422" 
d="M130 601v126h85v-106h-45q-3 -33 5 -51t35 -17l5 -36q-41 -7 -63 16t-22 68zM257 601v126h85v-106h-45q-3 -33 5 -51t35 -17l5 -36q-41 -7 -63 16t-22 68z" />
    <glyph glyph-name="quotedblright" unicode="&#x201d;" horiz-adv-x="422" 
d="M165 601q0 -45 -22 -68t-63 -16l5 36q27 -1 35 17t5 51h-45v106h85v-126zM292 601q0 -45 -22 -68t-63 -16l5 36q27 -1 35 17t5 51h-45v106h85v-126z" />
    <glyph glyph-name="quotedblbase" unicode="&#x201e;" horiz-adv-x="440" 
d="M165 78q0 -45 -22 -68t-63 -16l5 36q27 -1 35 17t5 51h-45v106h85v-126zM292 78q0 -45 -22 -68t-63 -16l5 36q27 -1 35 17t5 51h-45v106h85v-126z" />
    <glyph glyph-name="bullet" unicode="&#x2022;" horiz-adv-x="653" 
d="M329 153q-50 0 -84.5 34t-34.5 83q0 50 34.5 83.5t84.5 33.5q47 0 80.5 -33.5t33.5 -83.5q0 -49 -33.5 -83t-80.5 -34z" />
    <glyph glyph-name="ellipsis" unicode="&#x2026;" horiz-adv-x="632" 
d="M80 85h85v-85h-85v85zM273 85h86v-85h-86v85zM467 85h85v-85h-85v85z" />
    <glyph glyph-name="guilsinglleft" unicode="&#x2039;" horiz-adv-x="614" 
d="M375 35l-235 235l235 235l39 -40l-195 -195l195 -195z" />
    <glyph glyph-name="guilsinglright" unicode="&#x203a;" horiz-adv-x="615" 
d="M240 35l-40 40l195 195l-195 195l40 40l234 -235z" />
    <glyph glyph-name="fraction" unicode="&#x2044;" horiz-adv-x="681" 
d="M50 19l-50 50l631 630l50 -49z" />
    <glyph glyph-name="Euro" unicode="&#x20ac;" horiz-adv-x="665" 
d="M583 89l39 -61q-74 -43 -170 -43q-162 0 -253 115q-49 61 -68 147h-88v63h79q-2 17 -2 50q0 24 3 48h-80v63h89q20 90 67 149q88 115 253 115q96 0 169 -43l-39 -62q-57 32 -130 34q-58 1 -110 -22.5t-84 -66.5q-32 -42 -47 -104h285v-63h-295q-2 -32 -2 -48t2 -50h295
v-63h-285q15 -61 47 -103q32 -43 84 -65.5t110 -22.5q72 -2 131 33z" />
    <glyph glyph-name="uni20B4" unicode="&#x20b4;" horiz-adv-x="639" 
d="M517 461h62v-63h-519v63h366q0 1 2 2.5t2 2.5q28 29 28 73q0 53 -38 88q-40 37 -99 37q-57 0 -98 -43q-33 -33 -39 -82h-76q6 76 59 129q61 67 155 67q90 0 150 -54q62 -57 62 -142q0 -42 -17 -78zM579 321v-63h-372q-38 -31 -38 -77q0 -55 37 -87q42 -38 115 -38
q70 0 115 55q27 30 34 70h75q-7 -62 -48 -112q-65 -84 -178 -84q-93 0 -152 46q-74 54 -74 148q0 43 19 79h-52v63h519z" />
    <glyph glyph-name="uni20BD" unicode="&#x20bd;" horiz-adv-x="697" 
d="M603 648q61 -64 61 -151q0 -80 -54 -144q-30 -37 -75.5 -58t-94.5 -21h-227v-99h230v-63h-230v-112h-73v112h-70v63h70v99h-70v70h70v376h300q38 0 75 -14q51 -17 88 -58zM553 400q36 45 35 97q-2 63 -44 107q-43 45 -105 45h-226v-305h226q69 0 114 56z" />
    <glyph glyph-name="uni2116" unicode="&#x2116;" horiz-adv-x="1107" 
d="M877 375q-74 0 -127 52.5t-53 127.5q0 73 54 126.5t126 53.5q74 0 127 -52.5t53 -127.5t-53 -127.5t-127 -52.5zM144 720l396 -590v590h74v-720h-74l-396 591v-591h-74v720h74zM877 436q48 0 83 35t35 84t-35 84t-83 35q-49 0 -84 -35t-35 -84t35 -84t84 -35zM727 313
h300v-63h-300v63z" />
    <glyph glyph-name="trademark" unicode="&#x2122;" horiz-adv-x="898" 
d="M60 664v56h321v-56h-131v-319h-59v319h-131zM838 720v-375h-59v249l-114 -249h-40l-114 249v-249h-60v375h54l140 -292l139 292h54z" />
    <glyph glyph-name="arrowleft" unicode="&#x2190;" horiz-adv-x="1001" 
d="M861 305v-63h-610l163 -164l-39 -39l-235 235l235 234l39 -39l-164 -164h611z" />
    <glyph glyph-name="arrowup" unicode="&#x2191;" horiz-adv-x="709" 
d="M589 486l-39 -39l-164 164v-611h-63v610l-164 -163l-39 39l235 235z" />
    <glyph glyph-name="arrowright" unicode="&#x2192;" horiz-adv-x="1001" 
d="M626 508l235 -234l-235 -235l-39 39l163 164h-610v63h611l-164 164z" />
    <glyph glyph-name="arrowdown" unicode="&#x2193;" horiz-adv-x="709" 
d="M550 273l39 -39l-234 -235l-235 235l39 39l164 -163v610h63v-611z" />
    <glyph glyph-name="carriagereturn" unicode="&#x21b5;" horiz-adv-x="804" 
d="M681 720h63v-478h-493l163 -164l-39 -39l-235 235l235 234l39 -39l-164 -164h431v415z" />
    <glyph glyph-name="minus" unicode="&#x2212;" horiz-adv-x="540" 
d="M60 313h420v-63h-420v63z" />
    <glyph glyph-name="notequal" unicode="&#x2260;" horiz-adv-x="750" 
d="M630 332h-159l-108 -124h267v-63h-322l-74 -85l-49 40l39 45h-104v63h160l108 124h-268v63h324l74 85l48 -39l-40 -46h104v-63z" />
    <glyph glyph-name="i.loclTRK" horiz-adv-x="233" 
d="M80 718h73v-82h-73v82zM80 540h73v-540h-73v540z" />
    <glyph glyph-name="a.alt" horiz-adv-x="600" 
d="M132 407l-68 32q6 11 16 25q68 90 197 90q163 0 218 -122q20 -44 20 -94v-338h-66v109q-31 -59 -99 -92q-71 -36 -140 -30q-42 2 -79.5 22t-59.5 52q-31 48 -31 97q0 87 78 135q11 6 23 11t21 9t25 7.5t23 5.5t27 5.5t25.5 4t30.5 4t30 4.5l115 16q-7 57 -46 88
q-42 36 -116 36q-86 0 -131 -58q-2 -2 -13 -19zM442 296q-21 -3 -135 -20q-36 -6 -56 -9.5t-50 -12.5t-46 -20t-28.5 -29.5t-12.5 -43.5q0 -40 30 -71t74 -35q57 -6 116 24t84 83q11 22 16.5 45.5t6.5 40t1 48.5z" />
    <glyph glyph-name="e.alt" horiz-adv-x="600" 
d="M115 250q5 -83 42 -134q47 -64 139 -64q89 0 137 62q14 19 21 32l65 -32q-11 -21 -27 -42q-69 -87 -194 -87q-59 0 -111.5 22.5t-85.5 65.5q-61 77 -61 195q0 123 61 200q71 87 195 87q123 0 195 -87q60 -77 60 -199q0 -3 -0.5 -9.5t-0.5 -9.5h-435zM296 488
q-91 2 -139 -63q-32 -42 -40 -112h357q-9 72 -41 112q-48 65 -137 63z" />
    <glyph glyph-name="uni0414.loclBGR" horiz-adv-x="762" 
d="M642 70h70v-153h-70v83h-546v-83h-70v153h71l224 650h97zM173 70h393l-197 567z" />
    <glyph glyph-name="uni0416.loclBGR" horiz-adv-x="932" 
d="M5 0l243 375l-224 345h88l201 -314h116v314h74v-314h116l201 314h88l-224 -345l243 -375h-88l-220 343h-116v-343h-74v343h-116l-220 -343h-88z" />
    <glyph glyph-name="uni041A.loclBGR" horiz-adv-x="622" 
d="M622 0h-97l-300 335h-81v-335h-74v720h74v-315h81l256 315h93l-282 -349z" />
    <glyph glyph-name="uni041B.loclBGR" horiz-adv-x="604" 
d="M253 720h98l248 -720h-77l-221 637l-219 -637h-77z" />
    <glyph glyph-name="uni0432.loclBGR" horiz-adv-x="572" 
d="M273 735q74 0 125 -38q37 -27 57.5 -68.5t20.5 -86.5q0 -58 -38 -102q-20 -28 -50 -46q57 -22 91 -54q60 -57 60 -135q0 -90 -59 -152q-62 -68 -171 -68q-111 0 -174 55q-65 54 -65 161v338q0 102 77 157q51 39 126 39zM274 665q-47 0 -83 -27q-20 -16 -32.5 -41.5
t-12.5 -51.5v-344q0 -74 47 -111q45 -34 119 -34t117 52q35 43 35 95q0 61 -55 101q-52 39 -136 46v67q62 10 97 51q30 33 30 74q0 59 -46 95q-36 28 -80 28z" />
    <glyph glyph-name="uni0433.loclBGR" horiz-adv-x="537" 
d="M42 399q11 38 42 74.5t69 55.5q52 26 114 26q67 2 115 -21q39 -17 63.5 -51t24.5 -74q0 -59 -37 -92q-30 -28 -99 -51q-15 -4 -49.5 -14t-62.5 -18q-55 -16 -80 -34q-31 -21 -31 -56q0 -42 36 -65q38 -26 110 -26q86 0 131 49q29 35 38 93l71 -18q-9 -32 -13.5 -45.5
t-16 -36t-27.5 -40.5q-63 -69 -183 -69q-93 0 -148 36q-31 18 -49.5 52t-18.5 69q0 66 56 110q39 32 104 49q96 26 110 30q45 13 64 28q25 18 25 50q0 40 -47 63q-39 16 -83 15q-49 0 -85 -21q-51 -26 -72 -86z" />
    <glyph glyph-name="uni0434.loclBGR" horiz-adv-x="609" 
d="M473 540h66v-532q0 -82 -18 -129t-63 -82q-68 -52 -170 -52q-104 0 -166 68q-31 23 -47 51l68 33q6 -12 19 -27q44 -53 126 -53q81 0 128 40q30 25 39.5 57t9.5 94v57q-63 -80 -179 -80q-118 0 -187 87q-59 76 -59 199q0 122 59 197q67 87 184 87q57 0 107.5 -23
t82.5 -65v73zM429 114q44 55 44 157q0 100 -44 156q-47 60 -134 60q-90 0 -136 -64q-41 -55 -41 -152q0 -100 40 -153q47 -65 136 -65q88 0 135 61z" />
    <glyph glyph-name="uni0436.loclBGR" horiz-adv-x="714" 
d="M695 540l-168 -270l177 -270l-84 1l-151 237h-78v-238h-68v238h-78l-151 -237l-84 -1l177 270l-168 270h84l143 -239h77v419h68v-419h77l143 239h84z" />
    <glyph glyph-name="uni0437.loclBGR" horiz-adv-x="588" 
d="M57 388q9 82 83 129q59 38 153 38q95 0 154 -38q84 -54 84 -155q0 -82 -59 -130q-18 -16 -36 -26q31 -17 53 -42q59 -52 59 -142q0 -112 -84 -170q-68 -47 -171 -47q-104 0 -170 47q-73 50 -83 141l76 13q7 -64 51 -95q49 -36 126 -36q79 2 126 36q53 38 51 111
q2 75 -51 110q-46 35 -126 37h-54v71h54q70 2 112 30q50 31 48 92q2 62 -48 93q-44 30 -112 30q-67 0 -113 -30q-41 -26 -46 -79z" />
    <glyph glyph-name="uni0438.loclBGR" 
d="M450 540h74v-540h-66v76q-11 -17 -26 -32q-51 -53 -135 -56q-92 -7 -153 42q-51 38 -68 100t-16 148v262h74v-260q0 -72 13 -119t50 -75q44 -32 105 -29q56 2 92 35q39 34 50 93q6 28 6 77v278z" />
    <glyph glyph-name="uni0439.loclBGR" 
d="M282 600q-54 0 -91.5 38t-37.5 91h61q0 -28 20 -48t48 -20t48 20t20 48h61q0 -53 -38 -91t-91 -38zM450 540h74v-540h-66v76q-11 -17 -26 -32q-51 -53 -135 -56q-92 -7 -153 42q-51 38 -68 100t-16 148v262h74v-260q0 -72 13 -119t50 -75q44 -32 105 -29q56 2 92 35
q39 34 50 93q6 28 6 77v278z" />
    <glyph glyph-name="uni045D.loclBGR" horiz-adv-x="575" 
d="M430 662l-23 -56l-227 94l23 56zM450 540h74v-540h-66v76q-11 -17 -26 -32q-51 -53 -135 -56q-92 -7 -153 42q-51 38 -68 100t-16 148v262h74v-260q0 -72 13 -119t50 -75q44 -32 105 -29q56 2 92 35q39 34 50 93q6 28 6 77v278z" />
    <glyph glyph-name="uni043A.loclBGR" horiz-adv-x="498" 
d="M144 260v-260h-74v720h74v-397h57l182 217h88l-205 -249l232 -291h-88l-209 260h-57z" />
    <glyph glyph-name="uni043B.loclBGR" horiz-adv-x="508" 
d="M413 0l-159 444l-159 -444h-75l196 540h76l196 -540h-75z" />
    <glyph glyph-name="uni043D.loclBGR" horiz-adv-x="591" 
d="M448 540h73v-540h-73v252h-305v-252h-73v540h73v-214h305v214z" />
    <glyph glyph-name="uni043F.loclBGR" 
d="M450 510q51 -38 68 -100t16 -148v-262h-74v260q0 72 -13 119t-50 75q-44 32 -105 29q-56 -2 -92 -35q-39 -34 -50 -93q-6 -28 -6 -77v-278h-74v540h66v-76q11 17 26 32q51 53 135 56q92 7 153 -42z" />
    <glyph glyph-name="uni0442.loclBGR" horiz-adv-x="847" 
d="M726 514q40 -33 50.5 -72t10.5 -110l-1 -332h-72v329q0 51 -8 78.5t-36 51.5q-33 30 -78 30q-62 0 -98 -46q-29 -35 -29 -95v-16v-332h-73l1 329q0 51 -8 78.5t-36 51.5q-33 30 -79 30q-60 0 -98 -46q-28 -35 -28 -95v-348h-74v540h66v-59q25 35 65.5 54t84.5 19
q71 0 118 -40q28 -22 42 -51l9 14q25 36 66 56.5t87 20.5q71 0 118 -40z" />
    <glyph glyph-name="uni0447.loclBGR" horiz-adv-x="574" 
d="M430 540h74v-540h-74v189q-1 -1 -3.5 -4t-5 -5t-4.5 -4q-56 -52 -140 -55q-82 -6 -149 42q-53 39 -71 99t-17 146v132h74v-132q0 -70 13 -115t50 -73q42 -31 105 -29q56 3 92 36q38 33 50 92q6 28 6 77v144z" />
    <glyph glyph-name="uni0446.loclBGR" horiz-adv-x="638" 
d="M524 70h74v-153h-73v83h-70v70h3v6q-11 -17 -26 -32q-51 -53 -135 -56q-92 -7 -153 42q-51 38 -68 100t-16 148v262h74v-260q0 -72 13 -119t50 -75q44 -32 105 -29q56 2 92 35q39 34 50 93q6 28 6 77v278h74v-470z" />
    <glyph glyph-name="uni0448.loclBGR" horiz-adv-x="847" 
d="M703 540h74v-540h-66v59q-25 -35 -65.5 -54t-84.5 -19q-71 0 -118 40q-27 22 -42 51l-9 -14q-25 -36 -66 -56.5t-87 -20.5q-71 0 -118 40q-40 33 -50.5 72t-10.5 110l1 332h72v-329q0 -51 8 -78.5t36 -51.5q33 -30 78 -30q62 0 98 46q29 35 29 95v16v332h73l-1 -329
q0 -51 8 -78.5t36 -51.5q33 -30 79 -30q60 0 98 46q28 35 28 95v348z" />
    <glyph glyph-name="uni0449.loclBGR" horiz-adv-x="891" 
d="M777 70h74v-153h-73v83h-70v55q-55 -69 -147 -69q-71 0 -118 40q-27 22 -42 51l-9 -14q-25 -36 -66 -56.5t-87 -20.5q-71 0 -118 40q-40 33 -50.5 72t-10.5 110l1 332h72v-329q0 -51 8 -78.5t36 -51.5q33 -30 78 -30q62 0 98 46q29 35 29 95v16v332h73l-1 -329
q0 -51 8 -78.5t36 -51.5q33 -30 79 -30q60 0 98 46q28 35 28 95v348h74v-470z" />
    <glyph glyph-name="uni044C.loclBGR" horiz-adv-x="526" 
d="M70 540h75v-203h176q68 0 117 -49q48 -51 48 -120q0 -70 -48 -118q-50 -50 -117 -50h-250zM145 266v-196h173q38 2 65 32q27 29 27 66q0 38 -27 67q-28 31 -65 31h-173z" />
    <glyph glyph-name="uni044E.loclBGR" horiz-adv-x="790" 
d="M689 468q61 -77 61 -197q0 -119 -61 -198q-69 -88 -195 -88t-195 88q-52 65 -59 160h-97v-233h-73v720h73v-413h96q8 97 60 161q33 42 84.5 64.5t110.5 22.5q126 0 195 -87zM630 118q42 54 42 153q0 98 -42 152q-47 62 -136 62q-91 0 -136 -62q-42 -54 -42 -152
q0 -99 42 -153q46 -63 136 -63q88 0 136 63z" />
    <glyph glyph-name="uni0431.loclSRB" horiz-adv-x="583" 
d="M297 514q53 1 102 -19t82 -60q60 -70 62 -187q0 -115 -65 -188q-69 -77 -188 -75q-53 -1 -103 19.5t-84 59.5q-60 71 -62 188q-3 138 9 213q20 132 109 198q78 57 228 57q55 0 115 -10v-68q-68 9 -115 10q-127 0 -187 -44q-64 -44 -80 -174q71 81 177 80zM292 446
q-85 0 -131 -55q-42 -49 -42 -137q0 -95 42 -141q45 -55 131 -55t130 54q43 50 43 140q0 91 -43 139q-45 55 -130 55z" />
    <glyph glyph-name="zero.tf" horiz-adv-x="620" 
d="M310 -15q108 0 176 77q59 68 59 165v267q0 99 -62 168q-70 75 -173 73q-105 2 -173 -73q-62 -66 -62 -168v-267q0 -99 60 -166q68 -76 175 -76zM310 664q40 1 76 -18.5t58 -52.5q27 -42 27 -99v-267q0 -60 -27 -99q-22 -33 -57.5 -52.5t-76.5 -19.5t-76.5 19.5
t-57.5 53.5q-27 38 -27 98v267q0 55 27 98q22 34 57.5 53.5t76.5 18.5z" />
    <glyph glyph-name="one.tf" horiz-adv-x="620" 
d="M306 720h75v-720h-75v638l-135 -82v83z" />
    <glyph glyph-name="two.tf" horiz-adv-x="620" 
d="M80 506q-1 51 21 97.5t60 78.5q62 53 154 53q95 0 157 -62q73 -67 73 -168q0 -65 -23.5 -110.5t-78.5 -93.5l-255 -230h348v-71h-462l1 71l326 291q70 61 70 144q0 71 -53 118q-43 40 -106 40q-58 0 -100 -36q-59 -48 -57 -122h-75z" />
    <glyph glyph-name="three.tf" horiz-adv-x="620" 
d="M463 388q64 -61 64 -168q-2 -123 -84 -186q-61 -48 -146 -48q-84 -2 -147 47q-55 40 -76 110l70 21q16 -49 53 -77q41 -31 99 -31q59 2 99 33q56 45 56 131q0 81 -51 126q-41 37 -105 37q-39 0 -81 -20l-37 58l240 228h-315v71h416v-73l-211 -201q93 2 156 -58z" />
    <glyph glyph-name="four.tf" horiz-adv-x="620" 
d="M482 210h79v-71h-79v-139h-74v139h-335v71l241 510h78l-241 -510h257v210h74v-210z" />
    <glyph glyph-name="five.tf" horiz-adv-x="620" 
d="M114 720h379v-70h-312l-15 -241q63 55 146 55q91 0 159 -60q78 -69 78 -178q0 -97 -71 -170q-72 -70 -172 -70q-97 -2 -166 64q-51 48 -69 114l71 19q13 -51 50 -82q49 -44 114 -44q70 0 119 49q50 50 50 120q0 76 -56 126q-49 44 -113 44q-63 0 -108 -39
q-22 -19 -38 -46l-68 39z" />
    <glyph glyph-name="six.tf" horiz-adv-x="620" 
d="M516 632l-57 -46q-23 36 -61.5 57t-82.5 21q-40 0 -75 -17.5t-57 -47.5q-42 -48 -42 -119v-102q69 86 176 86q95 0 166 -66q71 -69 71 -172q-2 -98 -70 -168q-70 -74 -174 -72q-104 -2 -177 75q-67 71 -67 180v239q0 110 70 181q69 72 179 74q61 0 114 -27.5t87 -75.5z
M337 67q70 11 108 70q34 54 24 115q-10 67 -67 106q-54 36 -118 26q-69 -11 -107 -68q-36 -52 -25 -117q10 -61 61 -100q55 -42 124 -32z" />
    <glyph glyph-name="seven.tf" horiz-adv-x="620" 
d="M179 0l265 649h-337v71h412v-71l-264 -649h-76z" />
    <glyph glyph-name="eight.tf" horiz-adv-x="620" 
d="M97 541q2 96 67 148q55 46 146 46t146 -46q66 -50 66 -148q0 -74 -46 -121q-18 -21 -38 -34q35 -23 54 -49q50 -54 48 -135q0 -103 -68 -162q-62 -55 -162 -55t-162 55q-66 59 -68 162q-2 79 47 135q21 26 55 49q-21 12 -39 34q-46 49 -46 121zM175 541q-2 -59 37 -90
q35 -31 98 -31t98 31q36 30 36 90q2 58 -37 91q-34 31 -97 31q-63 -2 -98 -31q-35 -31 -37 -91zM421 95q41 37 41 107t-41 108q-40 39 -111 39q-70 0 -112 -39q-41 -38 -41 -108t41 -107q42 -39 112 -39q71 0 111 39z" />
    <glyph glyph-name="nine.tf" horiz-adv-x="620" 
d="M104 88l57 46q23 -36 61.5 -57t82.5 -21q40 0 75 17.5t57 47.5q42 48 42 119v102q-69 -86 -176 -86q-95 0 -166 66q-71 69 -71 172q2 98 70 168q70 74 174 72q104 2 177 -75q67 -71 67 -180v-239q0 -110 -70 -181q-69 -72 -179 -74q-61 0 -114 27.5t-87 75.5zM283 653
q-70 -11 -108 -70q-34 -54 -24 -115q10 -67 67 -106q54 -36 118 -26q69 11 107 68q36 52 25 117q-10 61 -61 100q-55 42 -124 32z" />
    <glyph glyph-name="exclamdown.case" horiz-adv-x="313" 
d="M120 637v83h73v-83h-73zM120 0v540h73v-540h-73z" />
    <glyph glyph-name="questiondown.case" horiz-adv-x="524" 
d="M313 720v-98h-78v98h78zM50 178q0 81 59 142q11 12 54.5 46.5t56.5 57.5q3 6 5.5 12t4 10.5t2.5 11.5l1.5 10.5t1 13t0.5 12.5v15v15h78q0 -85 -24 -129q-17 -33 -66.5 -71.5t-61.5 -51.5q-33 -37 -33 -94q0 -49 26 -80q35 -42 109 -42q69 0 103 36q32 29 32 86h76
q-5 -91 -62 -141q-56 -52 -148 -52q-110 0 -167 64q-47 51 -47 129z" />
    <glyph glyph-name="periodcentered.case" horiz-adv-x="587" 
d="M295 307q-23 0 -39 15t-16 38t16 38t39 15q21 0 36.5 -15t15.5 -38t-15.5 -38t-36.5 -15z" />
    <glyph glyph-name="parenleft.case" horiz-adv-x="392" 
d="M302 835l-61 34q-62 -106 -94 -248q-29 -128 -27 -260q2 -146 27 -261q31 -140 94 -249l61 35q-106 191 -106 475q0 283 106 474z" />
    <glyph glyph-name="parenright.case" horiz-adv-x="392" 
d="M90 835q106 -189 106 -474q2 -281 -106 -475l61 -35q61 104 95 249q24 116 26 261q1 130 -26 260q-31 139 -95 248z" />
    <glyph glyph-name="braceleft.case" horiz-adv-x="446" 
d="M356 -110v70h-56q-22 0 -37 15t-15 36v240q0 39 -22 70l-28 39l28 39q22 31 22 70v239q0 22 15 37t37 15h56v71h-56q-51 0 -86.5 -36t-35.5 -87v-239q0 -14 -9 -30l-43 -59q-13 -20 0 -40l43 -59q9 -16 9 -30v-240q0 -50 35.5 -85.5t86.5 -35.5h56z" />
    <glyph glyph-name="braceright.case" horiz-adv-x="446" 
d="M90 -110h56q51 0 87 35.5t36 85.5v240q0 17 9 30l42 59q13 20 0 40l-42 59q-9 13 -9 30v239q0 51 -36 87t-87 36h-56v-71h56q22 0 37 -15t15 -37v-239q0 -39 22 -70l28 -39l-28 -39q-22 -31 -22 -70v-240q0 -21 -15 -36t-37 -15h-56v-70z" />
    <glyph glyph-name="bracketleft.case" horiz-adv-x="387" 
d="M307 885h-119v-970h119v-68h-187v1106h187v-68z" />
    <glyph glyph-name="bracketright.case" horiz-adv-x="387" 
d="M267 953v-1106h-187v68h119v970h-119v68h187z" />
    <glyph glyph-name="hyphen.case" horiz-adv-x="420" 
d="M60 392h300v-63h-300v63z" />
    <glyph glyph-name="endash.case" horiz-adv-x="540" 
d="M60 392h420v-63h-420v63z" />
    <glyph glyph-name="emdash.case" horiz-adv-x="780" 
d="M60 392h660v-63h-660v63z" />
    <glyph glyph-name="guillemotleft.case" horiz-adv-x="536" 
d="M253 143l44 35l-145 183l145 182l-44 35l-173 -217zM425 143l44 35l-146 183l146 182l-44 35l-173 -217z" />
    <glyph glyph-name="guillemotright.case" horiz-adv-x="536" 
d="M111 143l173 218l-173 217l-44 -35l146 -182l-146 -183zM283 143l173 218l-173 217l-44 -35l145 -182l-145 -183z" />
    <glyph glyph-name="guilsinglleft.case" horiz-adv-x="614" 
d="M375 125l-235 235l235 235l39 -40l-195 -195l195 -195z" />
    <glyph glyph-name="guilsinglright.case" horiz-adv-x="614" 
d="M240 125l-40 40l195 195l-195 195l40 40l234 -235z" />
    <glyph glyph-name="greater.case" horiz-adv-x="614" 
d="M240 125l-40 40l195 195l-195 195l40 40l234 -235z" />
    <glyph glyph-name="less.case" horiz-adv-x="614" 
d="M375 125l-235 235l235 235l39 -40l-195 -195l195 -195z" />
    <glyph glyph-name="arrowright.case" horiz-adv-x="1001" 
d="M626 595l235 -235l-235 -235l-39 40l163 163l-610 1v63l611 -1l-164 164z" />
    <glyph glyph-name="arrowleft.case" horiz-adv-x="1001" 
d="M861 392v-63l-610 -1l163 -163l-39 -40l-235 235l235 235l39 -40l-164 -164z" />
    <glyph glyph-name="at.case" horiz-adv-x="913" 
d="M833 359q-2 -111 -55 -163q-36 -36 -92 -36q-57 0 -98 38q-23 22 -31 43q-42 -37 -105 -37q-67 0 -108 40q-42 40 -46 115q0 71 46 116q43 40 109 40q62 0 100 -34v20h53v-175q0 -56 19 -76q25 -27 60 -27q33 0 51 23q31 36 29 113q-2 120 -56 198q-40 56 -108 84.5
t-146 28.5q-129 0 -213 -72q-97 -80 -95 -242q2 -148 87 -228q83 -80 226 -80q94 0 165 42l26 -58q-83 -47 -193 -47q-170 0 -272 99q-103 96 -106 271q-2 86 28 163.5t90 128.5q98 88 254 88q97 0 178.5 -35.5t132.5 -104.5q68 -94 70 -236zM543 360q0 41 -19 64
q-24 29 -68 29q-42 0 -68 -24q-24 -24 -24 -69t24 -68q25 -24 67 -24q46 0 69 29q19 22 19 63z" />
    <glyph glyph-name="copyright.case" horiz-adv-x="830" 
d="M415 -12q154 0 263 109t109 263t-109 263t-263 109t-263 -109t-109 -263t109 -263t263 -109zM415 60q-125 0 -213 88t-88 213q0 124 88 211.5t213 87.5q124 0 211.5 -87.5t87.5 -211.5q0 -125 -87.5 -213t-211.5 -88zM584 473l-58 -25q-2 4 -13 21q-33 45 -96 45
q-59 0 -94 -45q-31 -38 -31 -107q0 -63 31 -107q14 -21 41 -32.5t53 -11.5q59 0 96 44q7 9 12 21l59 -25q-8 -15 -22 -33q-50 -64 -145 -66q-93 0 -145 66q-45 56 -45 144q2 91 45 145q55 65 145 65q94 0 145 -65q14 -17 22 -34z" />
    </font>
</defs>
</svg>
